<?xml version="1.0" encoding="UTF-8" standalone="no"?>
<svg
   xmlns:dc="http://purl.org/dc/elements/1.1/"
   xmlns:cc="http://creativecommons.org/ns#"
   xmlns:rdf="http://www.w3.org/1999/02/22-rdf-syntax-ns#"
   xmlns:svg="http://www.w3.org/2000/svg"
   xmlns="http://www.w3.org/2000/svg"
   xmlns:sodipodi="http://sodipodi.sourceforge.net/DTD/sodipodi-0.dtd"
   xmlns:inkscape="http://www.inkscape.org/namespaces/inkscape"
   width="1824"
   height="984"
   version="1.1"
   id="svg975"
   sodipodi:docname="Blank_US_Map_(states_only) tv size_epsg102003.svg"
   inkscape:version="0.92.3 (2405546, 2018-03-11)"
   inkscape:export-filename="map.png"
   inkscape:export-xdpi="96"
   inkscape:export-ydpi="96">
  <metadata
     id="metadata981">
    <rdf:RDF>
      <cc:Work
         rdf:about="">
        <dc:format>image/svg+xml</dc:format>
        <dc:type
           rdf:resource="http://purl.org/dc/dcmitype/StillImage" />
        <dc:title>Blank US states map</dc:title>
      </cc:Work>
    </rdf:RDF>
  </metadata>
  <defs
     id="defs979" />
  <sodipodi:namedview
     pagecolor="#e9e9e9"
     bordercolor="#666666"
     borderopacity="1"
     objecttolerance="10"
     gridtolerance="10"
     guidetolerance="10"
     inkscape:pageopacity="1"
     inkscape:pageshadow="2"
     inkscape:window-width="640"
     inkscape:window-height="480"
     id="namedview977"
     showgrid="false"
     inkscape:zoom="0.90809444"
     inkscape:cx="884.08411"
     inkscape:cy="489.60254"
     inkscape:current-layer="layer1"
     inkscape:snap-page="true" />
  <title
     id="title918">Blank US states map</title>
  <g
     inkscape:groupmode="layer"
     id="layer2"
     inkscape:label="map">
    <g
       id="g1087"
       transform="matrix(1.5493621,0,0,1.5493621,165.80326,-601.78585)"
       style="fill:none;stroke:#ababab;stroke-width:2.29058719;stroke-miterlimit:4;stroke-dasharray:none;stroke-opacity:1"
       inkscape:transform-center-x="16.87315"
       inkscape:transform-center-y="-30.622502"
       inkscape:export-filename="./g1087.png"
       inkscape:export-xdpi="96"
       inkscape:export-ydpi="96">
      <path
         id="AL"
         d="m 628.5,857.4 0.6,0.2 1.3,-2.7 1.5,-4.4 2.3,0.6 3.1,6 v 1 l -2.7,1.9 2.7,0.3 5.2,-2.5 -0.3,-7.6 -2.5,-1.8 -2,-2 0.4,-4 10.5,-1.5 25.7,-2.9 6.7,-0.6 5.6,0.1 -0.5,-2.2 -1.5,-0.8 -0.9,-1.1 1,-2.6 -0.4,-5.2 -1.6,-4.5 0.8,-5.1 1.7,-4.8 -0.2,-1.7 -1.8,-0.7 -0.5,-3.6 -2.7,-3.4 -2,-6.5 -1.4,-6.7 -1.8,-5 -3.8,-16 -3.5,-7.9 -0.8,-5.6 0.1,-2.2 -9,0.8 -23.4,2.2 -12.2,0.8 -0.2,6.4 0.2,16.7 -0.7,31 -0.3,14.1 2.8,18.8 1.6,14.7 z"
         inkscape:connector-curvature="0"
         style="fill:none;stroke:#ababab;stroke-width:2.29058719;stroke-miterlimit:4;stroke-dasharray:none;stroke-opacity:1" />
      <path
         id="AR"
         d="m 587.3,737.1 -6.4,-0.7 0.9,-3.1 3.1,-2.6 0.6,-2.3 -1.8,-2.9 -31.9,1.2 -23.3,0.7 -23.6,0.3 1.5,6.9 0.1,8.5 1.4,10.9 0.3,38.2 2.1,1.6 3,-1.2 2.9,1.2 0.4,10.1 25.2,-0.2 26.8,-0.8 0.9,-1.9 -0.3,-3.8 -1.7,-3.1 1.5,-1.4 -1.4,-2.2 0.7,-2.4 1.1,-5.9 2.7,-2.3 -0.8,-2.2 4,-5.6 2.5,-1.1 -0.1,-1.7 -0.5,-1.7 2.9,-5.8 2.5,-1.1 0.2,-3.3 2.1,-1.4 0.9,-4.1 -1.4,-4 4.2,-2.4 0.3,-2.1 1.2,-4.2 0.9,-3.1 z"
         inkscape:connector-curvature="0"
         style="fill:none;stroke:#ababab;stroke-width:2.29058719;stroke-miterlimit:4;stroke-dasharray:none;stroke-opacity:1" />
      <path
         id="AZ"
         d="m 135.1,780.7 -0.3,1.5 0.5,1 18.9,10.7 12.1,7.6 14.7,8.6 16.8,10 12.3,2.4 25.4,2.7 6,-39.6 7,-53.1 4.4,-31 -24.6,-3.6 -60.7,-11 -0.2,1.1 -2.6,16.5 -2.1,3.8 -2.8,-0.2 -1.2,-2.6 -2.6,-0.4 -1.2,-1.1 -1.1,0.1 -2.1,1.7 -0.3,6.8 -0.3,1.5 -0.5,12.5 -1.5,2.4 -0.4,3.3 2.8,5 1.1,5.5 0.7,1.1 1.1,0.9 -0.4,2.4 -1.7,1.2 -3.4,1.6 -1.6,1.8 -1.6,3.6 -0.5,4.9 -3,2.9 -1.9,0.9 -0.1,5.8 -0.6,1.6 0.5,0.8 3.9,0.4 -0.9,3 -1.7,2.4 -3.7,0.4 z"
         inkscape:connector-curvature="0"
         style="fill:none;stroke:#ababab;stroke-width:2.29058719;stroke-miterlimit:4;stroke-dasharray:none;stroke-opacity:1" />
      <path
         id="CA"
         d="m 122.7,776.9 -19.7,-2.7 -10,-1.5 -0.5,-1.8 v -9.4 l -0.3,-3.2 -2.6,-4.2 -0.8,-2.3 -3.9,-4.2 -2.9,-4.7 -2.7,-0.2 -3.2,-0.8 -0.3,-1 1.5,-0.6 -0.6,-3.2 -1.5,-2.1 -4.8,-0.8 -3.9,-2.1 -1.1,-2.3 -2.6,-4.8 -2.9,-3.1 H 57 l -3.9,-2.1 -4.5,-1.8 -4.2,-0.5 -2.4,-2.7 0.5,-1.9 1.8,-7.1 0.8,-1.9 v -2.4 l -1.6,-1 -0.5,-2.9 -1.5,-2.6 -3.4,-5.8 -1.3,-3.1 -1.5,-4.7 -1.6,-5.3 -3.2,-4.4 -0.5,-2.9 0.8,-3.9 h 1.1 l 2.1,-1.6 1.1,-3.6 -1,-2.7 -2.7,-0.5 -1.9,-2.6 -2.1,-3.7 -0.2,-8.2 0.6,-1.9 0.6,-2.3 0.5,-2.4 -5.7,-6.3 V 627 l 0.3,-0.5 0.3,-3.2 -1.3,-4 -2.3,-4.8 -2.7,-4.5 -1.8,-3.9 1,-3.7 0.6,-5.8 1.8,-3.1 0.3,-6.5 -1.1,-3.6 -1.6,-4.2 -2.7,-4.2 0.8,-3.2 1.5,-4.2 1.8,-0.8 0.3,-1.1 3.1,-2.6 5.2,-11.8 0.2,-7.4 1.69,-4.9 38.69,11.8 25.6,6.6 -8,31.3 -8.67,33.1 12.63,19.2 42.16,62.3 17.1,26.1 -0.4,3.1 2.8,5.2 1.1,5.4 1,1.5 0.7,0.6 -0.2,1.4 -1.4,1 -3.4,1.6 -1.9,2.1 -1.7,3.9 -0.5,4.7 -2.6,2.5 -2.3,1.1 -0.1,6.2 -0.6,1.9 1,1.7 3,0.3 -0.4,1.6 -1.4,2 -3.9,0.6 z M 48.8,728 l 1.3,1.5 -0.2,1.3 -3.2,-0.1 -0.6,-1.2 -0.6,-1.5 z m 1.9,0 1.2,-0.6 3.6,2.1 3.1,1.2 -0.9,0.6 -4.5,-0.2 -1.6,-1.6 z m 20.7,19.8 1.8,2.3 0.8,1 1.5,0.6 0.6,-1.5 -1,-1.8 -2.7,-2 -1.1,0.2 v 1.2 z m -1.4,8.7 1.8,3.2 1.2,1.9 -1.5,0.2 -1.3,-1.2 c 0,0 -0.7,-1.5 -0.7,-1.9 0,-0.4 0,-2.2 0,-2.2 z"
         inkscape:connector-curvature="0"
         style="fill:none;stroke:#ababab;stroke-width:2.29058719;stroke-miterlimit:4;stroke-dasharray:none;stroke-opacity:1" />
      <path
         id="CO"
         d="m 380.2,626.5 -36,-3.5 -79.1,-8.6 -2.2,22.1 -7,50.4 -1.9,13.7 34,3.9 37.5,4.4 34.7,3 14.3,0.6 z"
         inkscape:connector-curvature="0"
         style="fill:none;stroke:#ababab;stroke-width:2.29058719;stroke-miterlimit:4;stroke-dasharray:none;stroke-opacity:1" />
      <path
         id="CT"
         d="m 852,581.9 3.6,-3.2 1.9,-2.1 0.8,0.6 2.7,-1.5 5.2,-1.1 7,-3.5 -0.6,-4.2 -0.8,-4.4 -1.6,-6 -4.3,1.1 -21.8,4.7 0.6,3.1 1.5,7.3 v 8.3 l -0.9,2.1 1.7,2.2 z"
         inkscape:connector-curvature="0"
         style="fill:none;stroke:#ababab;stroke-width:2.29058719;stroke-miterlimit:4;stroke-dasharray:none;stroke-opacity:1" />
      <path
         id="DE"
         d="m 834.4,638.2 -1,0.5 -3.6,-2.4 -1.8,-4.7 -1.9,-3.6 -2.3,-1 -2.1,-3.6 0.5,-2 0.5,-2.3 0.1,-1.1 -0.6,0.1 -1.7,1 -2,1.7 -0.2,0.3 1.4,4.1 2.3,5.6 3.7,16.1 5,-0.3 6,-1.1 z"
         inkscape:connector-curvature="0"
         style="fill:none;stroke:#ababab;stroke-width:2.29058719;stroke-miterlimit:4;stroke-dasharray:none;stroke-opacity:1" />
      <path
         id="FL"
         d="m 750.2,836.2 -5.2,-0.7 -0.7,0.8 1.5,4.4 -0.4,5.2 -4.1,-1 -0.2,-2.8 H 737 l -5.3,0.7 -32.4,1.9 -8.2,-0.3 -1.7,-1.7 -2.5,-4.2 H 681 l -6.6,0.5 -35.4,4.2 -0.3,2.8 1.6,1.6 2.9,2 0.3,8.4 3.3,-0.6 6,-2.1 6,-0.5 4.4,-0.6 7.6,1.8 8.1,3.9 1.6,1.5 2.9,1.1 1.6,1.9 0.3,2.7 3.2,-1.3 h 3.9 l 3.6,-1.9 3.7,-3.6 3.1,0.2 0.5,-1.1 -0.8,-1 0.2,-1.9 4,-0.8 h 2.6 l 2.9,1.5 4.2,1.5 2.4,3.7 2.7,1 1.1,3.4 3.4,1.6 1.6,2.6 1.9,0.6 5.2,1.3 1.3,3.1 3,3.7 v 9.5 l -1.5,4.7 0.3,2.7 1.3,4.8 1.8,4 0.8,-0.5 1.5,-4.5 -2.6,-1 -0.3,-0.6 1.6,-0.6 4.5,1 0.2,1.6 -3.2,5.5 -2.1,2.4 3.6,3.7 2.6,3.1 2.9,5.3 2.9,3.9 2.1,5 1.8,0.3 1.6,-2.1 1.8,1.1 2.6,4 0.6,3.6 3.1,4.4 0.8,-1.3 3.9,0.3 3.6,2.3 3.4,5.2 0.8,3.4 0.3,2.9 1.1,1 1.3,0.5 2.4,-1 1.5,-1.6 3.9,-0.2 3.1,-1.5 2.7,-3.2 -0.5,-1.9 -0.3,-2.4 0.6,-1.9 -0.3,-1.9 2.4,-1.3 0.3,-3.4 -0.6,-1.8 -0.5,-12 -1.3,-7.6 -4.5,-8.2 -3.6,-5.8 -2.6,-5.3 -2.9,-2.9 -2.9,-7.4 0.7,-1.4 1.1,-1.3 -1.6,-2.9 -4,-3.7 -4.8,-5.5 -3.7,-6.3 -5.3,-9.4 -3.7,-9.7 -2.3,-7.3 z m 17.7,132.7 2.4,-0.6 1.3,-0.2 1.5,-2.3 2.3,-1.6 1.3,0.5 1.7,0.3 0.4,1.1 -3.5,1.2 -4.2,1.5 -2.3,1.2 z m 13.5,-5 1.2,1.1 2.7,-2.1 5.3,-4.2 3.7,-3.9 2.5,-6.6 1,-1.7 0.2,-3.4 -0.7,0.5 -1,2.8 -1.5,4.6 -3.2,5.3 -4.4,4.2 -3.4,1.9 z"
         inkscape:connector-curvature="0"
         style="fill:none;stroke:#ababab;stroke-width:2.29058719;stroke-miterlimit:4;stroke-dasharray:none;stroke-opacity:1" />
      <path
         id="GA"
         d="m 750.2,835.2 -5.6,-0.7 -1.4,1.6 1.6,4.7 -0.3,3.9 -2.2,-0.6 -0.2,-3 h -5.2 l -5.3,0.7 -32.3,1.9 -7.7,-0.3 -1.4,-1.2 -2.5,-4.3 -0.8,-3.3 -1.6,-0.9 -0.5,-0.5 0.9,-2.2 -0.4,-5.5 -1.6,-4.5 0.8,-4.9 1.7,-4.8 -0.2,-2.5 -1.9,-0.7 -0.4,-3.2 -2.8,-3.5 -1.9,-6.2 -1.5,-7 -1.7,-4.8 -3.8,-16 -3.5,-8 -0.8,-5.3 0.1,-2.3 3.3,-0.3 13.6,-1.6 18.6,-2 6.3,-1.1 0.5,1.4 -2.2,0.9 -0.9,2.2 0.4,2 1.4,1.6 4.3,2.7 3.2,-0.1 3.2,4.7 0.6,1.6 2.3,2.8 0.5,1.7 4.7,1.8 3,2.2 2.3,3 2.3,1.3 2,1.8 1.4,2.7 2.1,1.9 4.1,1.8 2.7,6 1.7,5.1 2.8,0.7 2.1,1.9 2,5.7 2.9,1.6 1.7,-0.8 0.4,1.2 -3.3,6.2 0.5,2.6 -1.5,4.2 -2.3,10 0.8,6.3 z"
         inkscape:connector-curvature="0"
         style="fill:none;stroke:#ababab;stroke-width:2.29058719;stroke-miterlimit:4;stroke-dasharray:none;stroke-opacity:1" />
      <path
         id="IA"
         d="m 556.8,574.6 2.1,2.1 0.3,0.7 -2,3 0.3,4 2.6,4.1 3.1,1.6 2.4,0.3 0.9,1.8 0.2,2.4 2.5,1 0.9,1.1 0.5,1.6 3.8,3.3 0.6,1.9 -0.7,3 -1.7,3.7 -0.6,2.4 -2.1,1.6 -1.6,0.5 -5.7,1.5 -1.6,4.8 0.8,1.8 1.7,1.5 -0.2,3.5 -1.9,1.4 -0.7,1.8 v 2.4 l -1.4,0.4 -1.7,1.4 -0.5,1.7 0.4,1.7 -1.3,1 -2.3,-2.7 -1.4,-2.8 -8.3,0.8 -10,0.6 -49.2,1.2 -1.6,-4.3 -0.4,-6.7 -1.4,-4.2 -0.7,-5.2 -2.2,-3.7 -1,-4.6 -2.7,-7.8 -1.1,-5.6 -1.4,-1.9 -1.3,-2.9 1.7,-3.8 1.2,-6.1 -2.7,-2.2 -0.3,-2.4 0.7,-2.4 1.8,-0.3 61.1,-0.6 21.2,-0.7 z"
         inkscape:connector-curvature="0"
         style="fill:none;stroke:#ababab;stroke-width:2.29058719;stroke-miterlimit:4;stroke-dasharray:none;stroke-opacity:1" />
      <path
         id="ID"
         d="m 175.3,418.63 -4.8,17.41 -4.5,20.86 -3.4,16.22 -0.4,9.67 1.2,4.44 3.5,2.66 -0.2,3.91 -3.9,4.4 -4.5,6.6 -0.9,2.9 -1.2,1.1 -1.8,0.8 -4.3,5.3 -0.4,3.1 -0.4,1.1 0.6,1 2.6,-0.1 1.1,2.3 -2.4,5.8 -1.2,4.2 -8.8,35.3 20.7,4.5 39.5,7.9 34.8,6.1 4.9,-29.2 3.8,-24.1 -2.7,-2.4 -0.4,-2.6 -0.8,-1.1 -2.1,1 -0.7,2.6 -3.2,0.5 -3.9,-1.6 -3.8,0.1 -2.5,0.7 -3.4,-1.5 -2.4,0.2 -2.4,2 -2,-1.1 -0.7,-4 0.7,-2.9 -2.5,-2.9 -3.3,-2.6 -2.7,-13.1 -0.1,-4.7 -0.3,-0.1 -0.2,0.4 -5.1,3.5 -1.7,-0.2 -2.9,-3.4 -0.2,-3.1 7,-17.13 -0.4,-1.94 -3.4,-1.15 -0.6,-1.18 -2.6,-3.46 -4.6,-10.23 -3.2,-1.53 -2,-4.95 1.3,-4.63 -3.2,-7.58 4.4,-21.52 z"
         inkscape:connector-curvature="0"
         style="fill:none;stroke:#ababab;stroke-width:2.29058719;stroke-miterlimit:4;stroke-dasharray:none;stroke-opacity:1" />
      <path
         id="IL"
         d="m 618.7,605.3 -0.8,-2.6 -1.3,-3.7 -1.6,-1.8 -1.5,-2.6 -0.4,-5.5 -15.9,1.8 -17.4,1 h -12.3 l 0.2,2.1 2.2,0.9 1.1,1.4 0.4,1.4 3.9,3.4 0.7,2.4 -0.7,3.3 -1.7,3.7 -0.8,2.7 -2.4,1.9 -1.9,0.6 -5.2,1.3 -1.3,4.1 0.6,1.1 1.9,1.8 -0.2,4.3 -2.1,1.6 -0.5,1.3 v 2.8 l -1.8,0.6 -1.4,1.2 -0.4,1.2 0.4,2 -1.6,1.3 -0.9,2.8 0.3,3.9 2.3,7 7,7.6 5.7,3.7 v 4.4 l 0.7,1.2 6.6,0.6 2.7,1.4 -0.7,3.5 -2.2,6.2 -0.8,3 2,3.7 6.4,5.3 4.8,0.8 2.2,5.1 2,3.4 -0.9,2.8 1.5,3.8 1.7,2.1 1.6,-0.3 1,-2.2 2.4,-1.7 2.8,-1 6.1,2.5 0.5,-0.2 v -1.1 l -1.2,-2.7 0.4,-2.8 2.4,-1.6 3.4,-1.2 -0.5,-1.3 -0.8,-2 1.2,-1.3 1,-2.7 v -4 l 0.4,-4.9 2.5,-3 1.8,-3.8 2.5,-4 -0.5,-5.3 -1.8,-3.2 -0.3,-3.3 0.8,-5.3 -0.7,-7.2 -1.1,-15.8 -1.4,-15.3 -0.9,-11.7 z"
         inkscape:connector-curvature="0"
         style="fill:none;stroke:#ababab;stroke-width:2.29058719;stroke-miterlimit:4;stroke-dasharray:none;stroke-opacity:1" />
      <path
         id="IN"
         d="m 622.9,607.1 1.5,1 1.1,-0.3 2.1,-1.9 2.5,-1.8 14.3,-1.1 18.4,-1.8 1.6,15.5 4.9,42.6 -0.6,2.9 1.3,1.6 0.2,1.3 -2.3,1.6 -3.6,1.7 -3.2,0.4 -0.5,4.8 -4.7,3.6 -2.9,4 0.2,2.4 -0.5,1.4 h -3.5 l -1.4,-1.7 -5.2,3 0.2,3.1 -0.9,0.2 -0.5,-0.9 -2.4,-1.7 -3.6,1.5 -1.4,2.9 -1.2,-0.6 -1.6,-1.8 -4.4,0.5 -5.7,1 -2.5,1.3 v -2.6 l 0.4,-4.7 2.3,-2.9 1.8,-3.9 2.7,-4.2 -0.5,-5.8 -1.8,-3.1 -0.3,-3.2 0.8,-5.3 -0.7,-7.1 -0.9,-12.6 -2.5,-30.1 z"
         inkscape:connector-curvature="0"
         style="fill:none;stroke:#ababab;stroke-width:2.29058719;stroke-miterlimit:4;stroke-dasharray:none;stroke-opacity:1" />
      <path
         id="KS"
         d="m 485.9,650.5 -43.8,-0.6 -40.6,-1.2 -21.7,-0.9 -4.3,64.8 24.3,1 44.7,2.1 46.3,0.6 12.6,-0.3 0.7,-35 -1.2,-11.1 -2.5,-2 -2.4,-3 -2.3,-3.6 0.6,-3 1.7,-1.4 v -2.1 l -0.8,-0.7 -2.6,-0.2 -3.5,-3.4 z"
         inkscape:connector-curvature="0"
         style="fill:none;stroke:#ababab;stroke-width:2.29058719;stroke-miterlimit:4;stroke-dasharray:none;stroke-opacity:1" />
      <path
         id="KY"
         d="m 607.2,722.8 12.6,-0.7 0.1,-4.1 h 4.3 l 30.4,-3.2 45.1,-4.3 5.6,-3.6 3.9,-2.1 0.1,-1.9 6,-7.8 4.1,-3.6 2.1,-2.4 -3.3,-2 -2.5,-2.7 -3,-3.8 -0.5,-2.2 -2.6,-1.4 -0.9,-1.9 -0.2,-6.1 -2.6,-2 -1.9,-1.1 -0.5,-2.3 -1.3,0.2 -2,1.2 -2.5,2.7 -1.9,-1.7 -2.5,-0.5 -2.4,1.4 h -2.3 l -1.8,-2 -5.6,-0.1 -1.8,-4.5 -2.9,-1.5 -2.1,0.8 -4.2,0.2 -0.5,2.1 1.2,1.5 0.3,2.1 -2.8,2 -3.8,1.8 -2.6,0.4 -0.5,4.5 -4.9,3.6 -2.6,3.7 0.2,2.2 -0.9,2.3 -4.5,-0.1 -1.3,-1.3 -3.9,2.2 0.2,3.3 -2.4,0.6 -0.8,-1.4 -1.7,-1.2 -2.7,1.1 -1.8,3.5 -2.2,-1 -1.4,-1.6 -3.7,0.4 -5.6,1 -2.8,1.3 -1.2,3.4 -1,1 1.5,3.7 -4.2,1.4 -1.9,1.4 -0.4,2.2 1.2,2.4 v 2.2 l -1.6,0.4 -6.1,-2.5 -2.3,0.9 -2,1.4 -0.8,1.8 1.7,2.4 -0.9,1.8 -0.1,3.3 -2.4,1.3 -2.1,1.7 z"
         inkscape:connector-curvature="0"
         style="fill:none;stroke:#ababab;stroke-width:2.29058719;stroke-miterlimit:4;stroke-dasharray:none;stroke-opacity:1" />
      <path
         id="LA"
         d="m 526.9,876.9 8.1,-0.3 10.3,3.6 6.5,1.1 3.7,-1.5 3.2,1.1 3.2,1 0.8,-2.1 -3.2,-1.1 -2.6,0.5 -2.7,-1.6 0.8,-1.5 3.1,-1 1.8,1.5 1.8,-1 3.2,0.6 1.5,2.4 0.3,2.3 4.5,0.3 1.8,1.8 -0.8,1.6 -1.3,0.8 1.6,1.6 8.4,3.6 3.6,-1.3 1,-2.4 2.6,-0.6 1.8,-1.5 1.3,1 0.8,2.9 -2.3,0.8 0.6,0.6 3.4,-1.3 2.3,-3.4 0.8,-0.5 -2.1,-0.3 0.8,-1.6 -0.2,-1.5 2.1,-0.5 1.1,-1.3 0.6,0.8 0.6,3.1 4.2,0.6 4,1.9 1,1.5 h 2.9 l 1.1,1 2.3,-3.1 V 884 h -1.3 l -3.4,-2.7 -5.8,-0.8 -3.2,-2.3 1.1,-2.7 2.3,0.3 0.2,-0.6 -1.8,-1 v -0.5 h 3.2 l 1.8,-3.1 -1.3,-1.9 -0.3,-2.7 -1.5,0.2 -1.9,2.1 -0.6,2.6 -3.1,-0.6 -1,-1.8 1.8,-1.9 1.9,-1.7 -2.2,-6.5 -3.4,-3.4 1,-7.3 -0.2,-0.5 -1.3,0.2 -33.1,1.4 -0.8,-2.4 0.8,-8.5 8.6,-14.8 -0.9,-2.6 1.4,-0.4 0.4,-2 -2.2,-2 0.1,-1.9 -2,-4.5 -0.4,-5.1 0.1,-0.7 -26.4,0.8 -25.2,0.1 0.4,9.7 0.7,9.5 0.5,3.7 2.6,4.5 0.9,4.4 4.3,6 0.3,3.1 0.6,0.8 -0.7,8.3 -2.8,4.6 1.2,2.4 -0.5,2.6 -0.8,7.3 -1.3,3 0.2,3.7 z"
         inkscape:connector-curvature="0"
         style="fill:none;stroke:#ababab;stroke-width:2.29058719;stroke-miterlimit:4;stroke-dasharray:none;stroke-opacity:1" />
      <path
         id="MA"
         d="m 887.5,563.5 -0.5,-2.3 0.8,-1.5 2.9,-1.5 0.8,3.1 -0.5,1.8 -2.4,1.5 v 1 l 1.9,-1.5 3.9,-4.5 3.9,-1.9 4.2,-1.5 -0.3,-2.4 -1,-2.9 -1.9,-2.4 -1.8,-0.8 -2.1,0.2 -0.5,0.5 1,1.3 1.5,-0.8 2.1,1.6 0.8,2.7 -1.8,1.8 -2.3,1 -3.6,-0.5 -3.9,-6 -2.3,-2.6 h -1.8 l -1.1,0.8 -1.9,-2.6 0.3,-1.5 2.4,-5.2 -2.9,-4.4 -3.7,1.8 -1.8,2.9 -18.3,4.7 -13.8,2.5 -0.6,10.6 0.7,4.9 22,-4.8 11.2,-2.8 2,1.6 3.4,4.3 2.9,4.7 z m 12.5,1.4 2.2,-0.7 0.5,-1.7 1,0.1 1,2.3 -1.3,0.5 -3.9,0.1 z m -9.4,0.8 2.3,-2.6 h 1.6 l 1.8,1.5 -2.4,1 -2.2,1 z"
         inkscape:connector-curvature="0"
         style="fill:none;stroke:#ababab;stroke-width:2.29058719;stroke-miterlimit:4;stroke-dasharray:none;stroke-opacity:1" />
      <path
         id="MD"
         d="m 834.8,655.1 1.7,-3.8 0.5,-4.8 -6.3,1.1 -5.8,0.3 -3.8,-16.8 -2.3,-5.5 -1.5,-4.6 -22.2,4.3 -37.6,7.6 2,10.4 4.8,-4.9 2.5,-0.7 1.4,-1.5 1.8,-2.7 1.6,0.7 2.6,-0.2 2.6,-2.1 2,-1.5 2.1,-0.6 1.5,1.1 2.7,1.4 1.9,1.8 1.3,1.4 4.8,1.6 -0.6,2.9 5.8,2.1 2.1,-2.6 3.7,2.5 -2.1,3.3 -0.7,3.3 -1.8,2.6 v 2.1 l 0.3,0.8 2,1.3 3.4,1.1 4.3,-0.1 3.1,1 2.1,0.3 1,-2.1 -1.5,-2.1 v -1.8 l -2.4,-2.1 -2.1,-5.5 1.3,-5.3 -0.2,-2.1 -1.3,-1.3 c 0,0 1.5,-1.6 1.5,-2.3 0,-0.6 0.5,-2.1 0.5,-2.1 l 1.9,-1.3 1.9,-1.6 0.5,1 -1.5,1.6 -1.3,3.7 0.3,1.1 1.8,0.3 0.5,5.5 -2.1,1 0.3,3.6 0.5,-0.2 1.1,-1.9 1.6,1.8 -1.6,1.3 -0.3,3.4 2.6,3.4 3.9,0.5 1.6,-0.8 3.2,4.2 1,0.4 z m -14.5,0.2 1.1,2.5 0.2,1.8 1.1,1.9 c 0,0 0.9,-0.9 0.9,-1.2 0,-0.3 -0.7,-3.1 -0.7,-3.1 l -0.7,-2.3 z"
         inkscape:connector-curvature="0"
         style="fill:none;stroke:#ababab;stroke-width:2.29058719;stroke-miterlimit:4;stroke-dasharray:none;stroke-opacity:1" />
      <path
         id="ME"
         d="m 865.8,482.9 1.5,0.4 v -2.6 l 0.8,-5.5 2.6,-4.7 1.5,-4 -1.9,-2.4 v -6 l 0.8,-1 0.8,-2.7 -0.2,-1.5 -0.2,-4.8 1.8,-4.8 2.9,-8.9 2.1,-4.2 h 1.3 l 1.3,0.2 v 1.1 l 1.3,2.3 2.7,0.6 0.8,-0.8 v -1 l 4,-2.9 1.8,-1.8 1.5,0.2 6,2.4 1.9,1 9.1,29.9 h 6 l 0.8,1.9 0.2,4.8 2.9,2.3 h 0.8 l 0.2,-0.5 -0.5,-1.1 2.8,-0.5 1.9,2.1 2.3,3.7 v 1.9 l -2.1,4.7 -1.9,0.6 -3.4,3.1 -4.8,5.5 c 0,0 -0.6,0 -1.3,0 -0.6,0 -1,-2.1 -1,-2.1 l -1.8,0.2 -1,1.5 -2.4,1.5 -1,1.5 1.6,1.5 -0.5,0.6 -0.5,2.7 -1.9,-0.2 v -1.6 l -0.3,-1.3 -1.5,0.3 -1.8,-3.2 -2.1,1.3 1.3,1.5 0.3,1.1 -0.8,1.3 0.3,3.1 0.2,1.6 -1.6,2.6 -2.9,0.5 -0.3,2.9 -5.3,3.1 -1.3,0.5 -1.6,-1.5 -3.1,3.6 1,3.2 -1.5,1.3 -0.2,4.4 -1.1,6.3 -2.2,-0.9 -0.5,-3.1 -4,-1.1 -0.2,-2.5 -11.7,-37.43 z m 36.5,15.6 1.5,-1.5 1.4,1.1 0.6,2.4 -1.7,0.9 z m 6.7,-5.9 1.8,1.9 c 0,0 1.3,0.1 1.3,-0.2 0,-0.3 0.2,-2 0.2,-2 l 0.9,-0.8 -0.8,-1.8 -2,0.7 z"
         inkscape:connector-curvature="0"
         style="fill:none;stroke:#ababab;stroke-width:2.29058719;stroke-miterlimit:4;stroke-dasharray:none;stroke-opacity:1" />
      <path
         id="MI"
         d="m 644.5,602 19.1,-1.9 0.2,1.1 9.9,-1.5 12,-1.7 0.1,-0.6 0.2,-1.5 2.1,-3.7 2,-1.7 -0.2,-5.1 1.6,-1.6 1.1,-0.3 0.2,-3.6 1.5,-3 1.1,0.6 0.2,0.6 0.8,0.2 1.9,-1 -0.4,-9.1 -3.2,-8.2 -2.3,-9.1 -2.4,-3.2 -2.6,-1.8 -1.6,1.1 -3.9,1.8 -1.9,5 -2.7,3.7 -1.1,0.6 -1.5,-0.6 c 0,0 -2.6,-1.5 -2.4,-2.1 0.2,-0.6 0.5,-5 0.5,-5 l 3.4,-1.3 0.8,-3.4 0.6,-2.6 2.4,-1.6 -0.3,-10 -1.6,-2.3 -1.3,-0.8 -0.8,-2.1 0.8,-0.8 1.6,0.3 0.2,-1.6 -2.6,-2.2 -1.3,-2.6 h -2.6 l -4.5,-1.5 -5.5,-3.4 h -2.7 l -0.6,0.6 -1,-0.5 -3.1,-2.3 -2.9,1.8 -2.9,2.3 0.3,3.6 1,0.3 2.1,0.5 0.5,0.8 -2.6,0.8 -2.6,0.3 -1.5,1.8 -0.3,2.1 0.3,1.6 0.3,5.5 -3.6,2.1 -0.6,-0.2 v -4.2 l 1.3,-2.4 0.6,-2.4 -0.8,-0.8 -1.9,0.8 -1,4.2 -2.7,1.1 -1.8,1.9 -0.2,1 0.6,0.8 -0.6,2.6 -2.3,0.5 v 1.1 l 0.8,2.4 -1.1,6.1 -1.6,4 0.6,4.7 0.5,1.1 -0.8,2.4 -0.3,0.8 -0.3,2.7 3.6,6 2.9,6.5 1.5,4.8 -0.8,4.7 -1,6 -2.4,5.2 -0.3,2.7 -3.2,3.1 z m -33.3,-72.4 -1.3,-1.1 -1.8,-10.4 -3.7,-1.3 -1.7,-2.3 -12.6,-2.8 -2.8,-1.1 -8.1,-2.2 -7.8,-1 -3.9,-5.3 0.7,-0.5 2.7,-0.8 3.6,-2.3 v -1 l 0.6,-0.6 6,-1 2.4,-1.9 4.4,-2.1 0.2,-1.3 1.9,-2.9 1.8,-0.8 1.3,-1.8 2.3,-2.3 4.4,-2.4 4.7,-0.5 1.1,1.1 -0.3,1 -3.7,1 -1.5,3.1 -2.3,0.8 -0.5,2.4 -2.4,3.2 -0.3,2.6 0.8,0.5 1,-1.1 3.6,-2.9 1.3,1.3 h 2.3 l 3.2,1 1.5,1.1 1.5,3.1 2.7,2.7 3.9,-0.2 1.5,-1 1.6,1.3 1.6,0.5 1.3,-0.8 h 1.1 l 1.6,-1 4,-3.6 3.4,-1.1 6.6,-0.3 4.5,-1.9 2.6,-1.3 1.5,0.2 v 5.7 l 0.5,0.3 2.9,0.8 1.9,-0.5 6.1,-1.6 1.1,-1.1 1.5,0.5 v 7 l 3.2,3.1 1.3,0.6 1.3,1 -1.3,0.3 -0.8,-0.3 -3.7,-0.5 -2.1,0.6 -2.3,-0.2 -3.2,1.5 h -1.8 l -5.8,-1.3 -5.2,0.2 -1.9,2.6 -7,0.6 -2.4,0.8 -1.1,3.1 -1.3,1.1 -0.5,-0.2 -1.5,-1.6 -4.5,2.4 h -0.6 l -1.1,-1.6 -0.8,0.2 -1.9,4.4 -1,4 -3.2,6.9 z m -29.6,-56.5 1.8,-2.1 2.2,-0.8 5.4,-3.9 2.3,-0.6 0.5,0.5 -5.1,5.1 -3.3,1.9 -2.1,0.9 z m 86.2,32.1 0.6,2.5 3.2,0.2 1.3,-1.2 c 0,0 -0.1,-1.5 -0.4,-1.6 -0.3,-0.2 -1.6,-1.9 -1.6,-1.9 l -2.2,0.2 -1.6,0.2 -0.3,1.1 z"
         inkscape:connector-curvature="0"
         style="fill:none;stroke:#ababab;stroke-width:2.29058719;stroke-miterlimit:4;stroke-dasharray:none;stroke-opacity:1" />
      <path
         id="MN"
         d="m 464.6,457.79 -0.6,3.91 v 10.27 l 1.6,5.03 1.9,3.32 0.5,9.93 1.8,13.45 1.8,7.3 0.4,6.4 v 5.3 l -1.6,1.8 -1.8,1.3 v 1.5 l 0.9,1.7 4.1,3.5 0.7,3.2 v 35.9 l 60.3,-0.6 21.2,-0.7 -0.5,-6 -1.8,-2.1 -7.2,-4.6 -3.6,-5.3 -3.4,-0.9 -2,-2.8 h -3.2 l -3.5,-3.8 -0.5,-7 0.1,-3.9 1.5,-3 -0.7,-2.7 -2.8,-3.1 2.2,-6.1 5.4,-4 1.2,-1.4 -0.2,-8 0.2,-3 2.6,-3 3.8,-2.9 1.3,-0.2 4.5,-5 1.8,-0.8 2.3,-3.9 2.4,-3.6 3.1,-2.6 4.8,-2 9.2,-4.1 3.9,-1.8 0.6,-2.3 -4.4,0.4 -0.7,1.1 h -0.6 l -1.8,-3.1 -8.9,0.3 -1,0.8 h -1 l -0.5,-1.3 -0.8,-1.8 -2.6,0.5 -3.2,3.2 -1.6,0.8 h -3.1 l -2.6,-1 v -2.1 l -1.3,-0.2 -0.5,0.5 -2.6,-1.3 -0.5,-2.9 -1.5,0.5 -0.5,1 -2.4,-0.5 -5.3,-2.4 -3.9,-2.6 h -2.9 l -1.3,-1 -2.3,0.6 -1.1,1.1 -0.3,1.3 h -4.8 v -2.1 l -6.3,-0.3 -0.3,-1.5 h -4.8 l -1.6,-1.6 -1.5,-6.1 -0.8,-5.5 -1.9,-0.8 -2.3,-0.5 -0.6,0.2 -0.3,8.2 -30.1,-0.03 z"
         inkscape:connector-curvature="0"
         style="fill:none;stroke:#ababab;stroke-width:2.29058719;stroke-miterlimit:4;stroke-dasharray:none;stroke-opacity:1" />
      <path
         id="MO"
         d="m 593.1,729.7 0.5,-5.9 4.2,-3.4 1.9,-1 v -2.9 l 0.7,-1.6 -1.1,-1.6 -2.4,0.3 -2.1,-2.5 -1.7,-4.5 0.9,-2.6 -2,-3.2 -1.8,-4.6 -4.6,-0.7 -6.8,-5.6 -2.2,-4.2 0.8,-3.3 2.2,-6 0.6,-3 -1.9,-1 -6.9,-0.6 -1.1,-1.9 v -4.1 l -5.3,-3.5 -7.2,-7.8 -2.3,-7.3 -0.5,-4.2 0.7,-2.4 -2.6,-3.1 -1.2,-2.4 -7.7,0.8 -10,0.6 -48.8,1.2 1.3,2.6 -0.1,2.2 2.3,3.6 3,3.9 3.1,3 2.6,0.2 1.4,1.1 v 2.9 l -1.8,1.6 -0.5,2.3 2.1,3.2 2.4,3 2.6,2.1 1.3,11.6 -0.8,40 0.5,5.7 23.7,-0.2 23.3,-0.7 32.5,-1.3 2.2,3.7 -0.8,3.1 -3.1,2.5 -0.5,1.8 5.2,0.5 4.1,-1.1 z"
         inkscape:connector-curvature="0"
         style="fill:none;stroke:#ababab;stroke-width:2.29058719;stroke-miterlimit:4;stroke-dasharray:none;stroke-opacity:1" />
      <path
         id="MS"
         d="m 604.3,863.5 2.6,-4.2 1.8,0.8 6.8,-1.9 2.1,0.3 1.5,0.8 h 5.2 l 0.4,-1.6 -1.7,-14.8 -2.8,-19 1,-45.1 -0.2,-16.7 0.2,-6.3 -4.8,0.3 -19.6,1.6 -13,0.4 -0.2,3.2 -2.8,1.3 -2.6,5.1 0.5,1.6 0.1,2.4 -2.9,1.1 -3.5,5.1 0.8,2.3 -3,2.5 -1,5.7 -0.6,1.9 1.6,2.5 -1.5,1.4 1.5,2.8 0.3,4.2 -1.2,2.5 -0.2,0.9 0.4,5 2,4.5 -0.1,1.7 2.3,2 -0.7,3.1 -0.9,0.3 0.6,1.9 -8.6,15 -0.8,8.2 0.5,1.5 24.2,-0.7 8.2,-0.7 1.9,-0.3 0.6,1.4 -1,7.1 3.3,3.3 2.2,6.4 z"
         inkscape:connector-curvature="0"
         style="fill:none;stroke:#ababab;stroke-width:2.29058719;stroke-miterlimit:4;stroke-dasharray:none;stroke-opacity:1" />
      <path
         id="MT"
         d="m 361.1,461.77 -5.3,57.13 -1.3,15.2 -59.1,-6.6 -49,-7.1 -1.4,11.2 -1.9,-1.7 -0.4,-2.5 -1.3,-1.9 -3.3,1.5 -0.7,2.5 -2.3,0.3 -3.8,-1.6 -4.1,0.1 -2.4,0.7 -3.2,-1.5 -3,0.2 -2.1,1.9 -0.9,-0.6 -0.7,-3.4 0.7,-3.2 -2.7,-3.2 -3.3,-2.5 -2.5,-12.6 -0.1,-5.3 -1.6,-0.8 -0.6,1 -4.5,3.2 -1.2,-0.1 -2.3,-2.8 -0.2,-2.8 7,-17.15 -0.6,-2.67 -3.5,-1.12 -0.4,-0.91 -2.7,-3.5 -4.6,-10.41 -3.2,-1.58 -1.8,-4.26 1.3,-4.63 -3.2,-7.57 4.4,-21.29 32.7,6.89 18.4,3.4 32.3,5.3 29.3,4 29.2,3.5 30.8,3.07 z"
         inkscape:connector-curvature="0"
         style="fill:none;stroke:#ababab;stroke-width:2.29058719;stroke-miterlimit:4;stroke-dasharray:none;stroke-opacity:1" />
      <path
         id="NC"
         d="M 786.7,748.7 774,741 l -3.1,-0.8 -16.6,2.1 -1.6,-3 -2.8,-2.2 -16.7,0.5 -7.4,0.9 -9.2,4.5 -6.8,2.7 -6.5,1.2 -13.4,1.4 0.1,-4.1 1.7,-1.3 2.7,-0.7 0.7,-3.8 3.9,-2.5 3.9,-1.5 4.5,-3.7 4.4,-2.3 0.7,-3.2 4.1,-3.8 0.7,1 2.5,0.2 2.4,-3.6 1.7,-0.4 2.6,0.3 1.8,-4 2.5,-2.4 0.5,-1.8 0.1,-3.5 4.4,0.1 38.5,-5.6 57.5,-12.3 2,4.8 3.6,6.5 2.4,2.4 0.6,2.3 -2.4,0.2 0.8,0.6 -0.3,4.2 -2.6,1.3 -0.6,2.1 -1.3,2.9 -3.7,1.6 -2.4,-0.3 -1.5,-0.2 -1.6,-1.3 0.3,1.3 v 1 h 1.9 l 0.8,1.3 -1.9,6.3 h 4.2 l 0.6,1.6 2.3,-2.3 1.3,-0.5 -1.9,3.6 -3.1,4.8 H 828 l -1.1,-0.5 -2.7,0.6 -5.2,2.4 -6.5,5.3 -3.4,4.7 -1.9,6.5 -0.5,2.4 -4.7,0.5 -5.1,1.5 z m 49.3,-26.2 2.6,-2.5 3.2,-2.6 1.5,-0.6 0.2,-2 -0.6,-6.1 -1.5,-2.3 -0.6,-1.9 0.7,-0.2 2.7,5.5 0.4,4.4 -0.2,3.4 -3.4,1.5 -2.8,2.4 -1.1,1.2 z"
         inkscape:connector-curvature="0"
         style="fill:none;stroke:#ababab;stroke-width:2.29058719;stroke-miterlimit:4;stroke-dasharray:none;stroke-opacity:1" />
      <path
         id="ND"
         d="m 471,517.4 -0.4,-6.2 -1.8,-7.3 -1.8,-13.61 -0.5,-9.7 -1.9,-3.18 -1.6,-5.32 v -10.41 l 0.6,-3.85 -1.8,-5.54 -28.6,-0.59 -18.6,-0.6 -26.5,-1.3 -25.2,-2.16 -0.9,14.42 -4.7,50.94 56.8,3.9 56.9,1.7 z"
         inkscape:connector-curvature="0"
         style="fill:none;stroke:#ababab;stroke-width:2.29058719;stroke-miterlimit:4;stroke-dasharray:none;stroke-opacity:1" />
      <path
         id="NE"
         d="m 470.3,595.3 -1,-2.3 -0.5,-1.6 -2.9,-1.6 -4.8,-1.5 -2.2,-1.2 -2.6,0.1 -3.7,0.4 -4.2,1.2 -6,-4.1 -2.2,-2 -10.7,0.6 -41.5,-2.4 -35.6,-2.2 -4.3,43.7 33.1,3.3 -1.4,21.1 21.7,1 40.6,1.2 43.8,0.6 h 4.5 l -2.2,-3 -2.6,-3.9 0.1,-2.3 -1.4,-2.7 -1.9,-5.2 -0.4,-6.7 -1.4,-4.1 -0.5,-5 -2.3,-3.7 -1,-4.7 -2.8,-7.9 -1,-5.3 z"
         inkscape:connector-curvature="0"
         style="fill:none;stroke:#ababab;stroke-width:2.29058719;stroke-miterlimit:4;stroke-dasharray:none;stroke-opacity:1" />
      <path
         id="NH"
         d="m 881.7,532.3 1.1,-3.2 -2.7,-1.2 -0.5,-3.1 -4.1,-1.1 -0.3,-3 -11.7,-37.48 -0.7,0.08 -0.6,1.6 -0.6,-0.5 -1,-1 -1.5,1.9 -0.2,2.29 0.5,8.41 1.9,2.8 v 4.3 l -3.9,4.8 -2.4,0.9 v 0.7 l 1.1,1.9 v 8.6 l -0.8,9.2 -0.2,4.7 1,1.4 -0.2,4.7 -0.5,1.5 1,1.1 5.1,-1.2 13.8,-3.5 1.7,-2.9 4,-1.9 z"
         inkscape:connector-curvature="0"
         style="fill:none;stroke:#ababab;stroke-width:2.29058719;stroke-miterlimit:4;stroke-dasharray:none;stroke-opacity:1" />
      <path
         id="NJ"
         d="m 823.7,619.3 0.1,-1.5 2.7,-1.3 1.7,-2.8 1.7,-2.4 3.3,-3.2 v -1.2 l -6.1,-4.1 -1,-2.7 -2.7,-0.3 -0.1,-0.9 -0.7,-2.2 2.2,-1.1 0.2,-2.9 -1.3,-1.3 0.2,-1.2 1.9,-3.1 V 584 l 2.5,-3.1 5.6,2.5 6.4,1.9 2.5,1.2 0.1,1.8 -0.5,2.7 0.4,4.5 -2.1,1.9 -1.1,1 0.5,0.5 2.7,-0.3 1.1,-0.8 1.6,3.4 0.2,9.4 0.6,1.1 -1.1,5.5 -3.1,6.5 -2.7,4 -0.8,4.8 -2.1,2.4 h -0.8 l -0.3,-2.7 0.8,-1 -0.2,-1.5 -4,-0.6 -4.8,-2.3 -3.2,-2.9 -1,-2 z"
         inkscape:connector-curvature="0"
         style="fill:none;stroke:#ababab;stroke-width:2.29058719;stroke-miterlimit:4;stroke-dasharray:none;stroke-opacity:1" />
      <path
         id="NM"
         d="m 270.2,820.4 -16.7,-2.6 -1.2,9.6 -15.8,-2 6,-39.7 7,-53.2 4.4,-30.9 34,3.9 37.4,4.4 32,2.8 -0.3,10.8 -1.4,-0.1 -7.4,97.7 -28.4,-1.8 -38.1,-3.7 0.7,6.3 z"
         inkscape:connector-curvature="0"
         style="fill:none;stroke:#ababab;stroke-width:2.29058719;stroke-miterlimit:4;stroke-dasharray:none;stroke-opacity:1" />
      <path
         id="NV"
         d="m 123.1,564.6 38.7,8.5 26,5.2 -10.6,53.1 -5.4,29.8 -3.3,15.5 -2.1,11.1 -2.6,16.4 -1.7,3.1 -1.6,-0.1 -1.2,-2.6 -2.8,-0.5 -1.3,-1.1 -1.8,0.1 -0.9,0.8 -1.8,1.3 -0.3,7.3 -0.3,1.5 -0.5,12.4 -1.1,1.8 -16.7,-25.5 -42.1,-62.1 -12.43,-19 8.55,-32.6 8.01,-31.3 z"
         inkscape:connector-curvature="0"
         style="fill:none;stroke:#ababab;stroke-width:2.29058719;stroke-miterlimit:4;stroke-dasharray:none;stroke-opacity:1" />
      <path
         id="NY"
         d="m 843.4,591 0.5,-2.7 -0.2,-2.4 -3,-1.5 -6.5,-2 -6,-2.6 -0.6,-0.4 -2.7,-0.3 -2,-1.5 -2.1,-5.9 -3.3,-0.5 -2.4,-2.4 -38.4,8.1 -31.6,6 -0.5,-6.5 1.6,-1.2 1.3,-1.1 1,-1.6 1.8,-1.1 1.9,-1.8 0.5,-1.6 2.1,-2.7 1.1,-1 -0.2,-1 -1.3,-3.1 -1.8,-0.2 -1.9,-6.1 2.9,-1.8 4.4,-1.5 4,-1.3 3.2,-0.5 6.3,-0.2 1.9,1.3 1.6,0.2 2.1,-1.3 2.6,-1.1 5.2,-0.5 2.1,-1.8 1.8,-3.2 1.6,-1.9 h 2.1 l 1.9,-1.1 0.2,-2.3 -1.5,-2.1 -0.3,-1.5 1.1,-2.1 v -1.5 h -1.8 l -1.8,-0.8 -0.8,-1.1 -0.2,-2.6 5.8,-5.5 0.6,-0.8 1.5,-2.9 2.9,-4.5 2.7,-3.7 2.1,-2.4 2.4,-1.8 3.1,-1.2 5.5,-1.3 3.2,0.2 4.5,-1.5 7.4,-2.2 0.7,4.9 2.4,6.5 0.8,5 -1,4.2 2.6,4.5 0.8,2 -0.9,3.2 3.7,1.7 2.7,10.2 v 5.8 l -0.6,10.9 0.8,5.4 0.7,3.6 1.5,7.3 v 8.1 l -1.1,2.3 2.1,2.7 0.5,0.9 -1.9,1.8 0.3,1.3 1.3,-0.3 1.5,-1.3 2.3,-2.6 1.1,-0.6 1.6,0.6 2.3,0.2 7.9,-3.9 2.9,-2.7 1.3,-1.5 4.2,1.6 -3.4,3.6 -3.9,2.9 -7.1,5.3 -2.6,1 -5.8,1.9 -4,1.1 -1,-0.4 z"
         inkscape:connector-curvature="0"
         style="fill:none;stroke:#ababab;stroke-width:2.29058719;stroke-miterlimit:4;stroke-dasharray:none;stroke-opacity:1" />
      <path
         id="OH"
         d="m 663.8,602.2 1.7,15.5 4.8,41.1 3.9,-0.2 2.3,-0.8 3.6,1.8 1.7,4.2 5.4,0.1 1.8,2 h 1.7 l 2.4,-1.4 3.1,0.5 1.5,1.3 1.8,-2 2.3,-1.4 2.4,-0.4 0.6,2.7 1.6,1 2.6,2 0.8,0.2 2,-0.1 1.2,-0.6 v -2.1 l 1.7,-1.5 0.1,-4.8 1.1,-4.2 1.9,-1.3 1,0.7 1,1.1 0.7,0.2 0.4,-0.4 -0.9,-2.7 v -2.2 l 1.1,-1.4 2.5,-3.6 1.3,-1.5 2.2,0.5 2.1,-1.5 3,-3.3 2.2,-3.7 0.2,-5.4 0.5,-5 V 621 l -1.2,-3.2 1.2,-1.8 1.3,-1.2 -0.6,-2.8 -4.3,-25.6 -6.2,3.7 -3.9,2.3 -3.4,3.7 -4,3.9 -3.2,0.8 -2.9,0.5 -5.5,2.6 -2.1,0.2 -3.4,-3.1 -5.2,0.6 -2.6,-1.5 -2.2,-1.3 z"
         inkscape:connector-curvature="0"
         style="fill:none;stroke:#ababab;stroke-width:2.29058719;stroke-miterlimit:4;stroke-dasharray:none;stroke-opacity:1" />
      <path
         id="OK"
         d="m 411.9,725.9 -1.8,24.3 -0.9,18 0.2,1.6 4,3.6 1.7,0.9 h 0.9 l 0.9,-2.1 1.5,1.9 1.6,0.1 0.3,-0.2 0.2,-1.1 2.8,1.4 -0.4,3.5 3.8,0.5 2.5,1 4.2,0.6 2.3,1.6 2.5,-1.7 3.5,0.7 2.2,3.1 1.2,0.1 v 2.3 l 2.1,0.7 2.5,-2.1 1.8,0.6 2.7,0.1 0.7,2.3 4.4,1.8 1.7,-0.3 1.9,-4.2 h 1.3 l 1.1,2.1 4.2,0.8 3.4,1.3 3,0.8 1.6,-0.7 0.7,-2.7 h 4.5 l 1.9,0.9 2.7,-1.9 h 1.4 l 0.6,1.4 h 3.6 l 2,-1.8 2.3,0.6 1.7,2.2 3,1.7 3.4,0.9 1.9,1.2 -0.3,-37.6 -1.4,-10.9 -0.1,-8.6 -1.5,-6.6 -0.6,-6.8 0.1,-4.3 -12.6,0.3 -46.3,-0.5 -44.7,-2.1 -41.5,-1.8 -0.4,10.7 z"
         inkscape:connector-curvature="0"
         style="fill:none;stroke:#ababab;stroke-width:2.29058719;stroke-miterlimit:4;stroke-dasharray:none;stroke-opacity:1" />
      <path
         id="OR"
         d="m 67.44,549.9 28.24,7.2 27.52,6.5 17,3.7 8.8,-35.1 1.2,-4.4 2.4,-5.5 -0.7,-1.3 -2.5,0.1 -1.3,-1.8 0.6,-1.5 0.4,-3.3 4.7,-5.7 1.9,-0.9 0.9,-0.8 0.7,-2.7 0.8,-1.1 3.9,-5.7 3.7,-4 0.2,-3.26 -3.4,-2.49 -1.2,-4.55 -13.1,-3.83 -15.3,-3.47 -14.8,0.37 -1.1,-1.31 -5.1,1.84 -4.5,-0.48 -2.4,-1.58 -1.3,0.54 -4.68,-0.29 -1.96,-1.43 -4.84,-1.77 -1.1,-0.07 -4.45,-1.27 -1.76,1.52 -6.26,-0.24 -5.31,-3.85 0.21,-9.28 -2.05,-3.5 -4.1,-0.6 -0.7,-2.5 -2.4,-0.5 -5.8,2.1 -2.3,6.5 -3.2,10 -3.2,6.5 -5,14.1 -6.5,13.6 -8.1,12.6 -1.9,2.9 -0.8,8.6 -1.3,6 2.71,3.5 z"
         inkscape:connector-curvature="0"
         style="fill:none;stroke:#ababab;stroke-width:2.29058719;stroke-miterlimit:4;stroke-dasharray:none;stroke-opacity:1" />
      <path
         id="PA"
         d="m 736.6,583.2 1.3,-0.5 5.7,-5.5 0.7,6.9 33.5,-6.5 36.9,-7.8 2.3,2.3 3.1,0.4 2,5.6 2.4,1.9 2.8,0.4 0.1,0.1 -2.6,3.2 v 3.1 l -1.9,3.1 -0.2,1.9 1.3,1.3 -0.2,1.9 -2.4,1.1 1,3.4 0.2,1.1 2.8,0.3 0.9,2.5 5.9,3.9 v 0.4 l -3.1,3 -1.5,2.2 -1.7,2.8 -2.7,1.2 -1.4,0.3 -2.1,1.3 -1.6,1.4 -22.4,4.3 -38.7,7.8 -11.3,1.4 -3.9,0.7 -5.1,-22.4 -4.3,-25.9 z"
         inkscape:connector-curvature="0"
         style="fill:none;stroke:#ababab;stroke-width:2.29058719;stroke-miterlimit:4;stroke-dasharray:none;stroke-opacity:1" />
      <path
         id="RI"
         d="m 873.6,566.7 -0.8,-4.4 -1.6,-6 5.7,-1.5 1.5,1.3 3.4,4.3 2.8,4.4 -2.8,1.4 -1.3,-0.2 -1.1,1.8 -2.4,1.9 -2.8,1.1 z"
         inkscape:connector-curvature="0"
         style="fill:none;stroke:#ababab;stroke-width:2.29058719;stroke-miterlimit:4;stroke-dasharray:none;stroke-opacity:1" />
      <path
         id="SC"
         d="m 759,804.6 -2.1,-1 -1.9,-5.6 -2.5,-2.3 -2.5,-0.5 -1.5,-4.6 -3,-6.5 -4.2,-1.8 -1.9,-1.8 -1.2,-2.6 -2.4,-2 -2.3,-1.3 -2.2,-2.9 -3.2,-2.4 -4.4,-1.7 -0.4,-1.4 -2.3,-2.8 -0.5,-1.5 -3.8,-5.4 -3.4,0.1 -3.9,-2.5 -1.2,-1.2 -0.2,-1.4 0.6,-1.6 2.7,-1.3 -0.8,-2 6.4,-2.7 9.2,-4.5 7.1,-0.9 16.4,-0.5 2.3,1.9 1.8,3.5 4.6,-0.8 12.6,-1.5 2.7,0.8 12.5,7.4 10.1,8.3 -5.3,5.4 -2.6,6.1 -0.5,6.3 -1.6,0.8 -1.1,2.7 -2.4,0.6 -2.1,3.6 -2.7,2.7 -2.3,3.4 -1.6,0.8 -3.6,3.4 -2.9,0.2 1,3.2 -5,5.3 -2.3,1.6 z"
         inkscape:connector-curvature="0"
         style="fill:none;stroke:#ababab;stroke-width:2.29058719;stroke-miterlimit:4;stroke-dasharray:none;stroke-opacity:1" />
      <path
         id="SD"
         d="m 471,572.1 -0.9,3.2 0.4,3 2.6,2 -1.2,5.4 -1.8,4.1 1.5,3.3 0.7,1.1 -1.3,0.1 -0.7,-1.6 -0.6,-2 -3.3,-1.8 -4.8,-1.5 -2.5,-1.3 -2.9,0.1 -3.9,0.4 -3.8,1.2 -5.3,-3.8 -2.7,-2.4 -10.9,0.8 -41.5,-2.4 -35.6,-2.2 1.5,-24.8 2.8,-34 0.4,-5 56.9,3.9 56.9,1.7 v 2.7 l -1.3,1.5 -2,1.5 -0.1,2.2 1.1,2.2 4.1,3.4 0.5,2.7 v 35.9 z"
         inkscape:connector-curvature="0"
         style="fill:none;stroke:#ababab;stroke-width:2.29058719;stroke-miterlimit:4;stroke-dasharray:none;stroke-opacity:1" />
      <path
         id="TN"
         d="m 670.8,750.6 -13.1,1.2 -23.3,2.2 -37.6,2.7 -11.8,0.4 0.9,-0.6 0.9,-4.5 -1.2,-3.6 3.9,-2.3 0.4,-2.5 1.2,-4.3 3,-9.5 0.5,-5.6 0.3,-0.2 12.3,-0.2 13.6,-0.8 0.1,-3.9 3.5,-0.1 30.4,-3.3 54,-5.2 10.3,-1.5 7.6,-0.2 2.4,-1.9 1.3,0.3 -0.1,3.3 -0.4,1.6 -2.4,2.2 -1.6,3.6 -2,-0.4 -2.4,0.9 -2.2,3.3 -1.4,-0.2 -0.8,-1.2 -1.1,0.4 -4.3,4 -0.8,3.1 -4.2,2.2 -4.3,3.6 -3.8,1.5 -4.4,2.8 -0.6,3.6 -2.5,0.5 -2,1.7 -0.2,4.8 z"
         inkscape:connector-curvature="0"
         style="fill:none;stroke:#ababab;stroke-width:2.29058719;stroke-miterlimit:4;stroke-dasharray:none;stroke-opacity:1" />
      <path
         id="TX"
         d="m 282.8,816.6 37,3.6 29.3,1.9 7.4,-97.7 54.4,2.4 -1.7,23.3 -1,18 0.2,2 4.4,4.1 2,1.1 h 1.8 l 0.5,-1.2 0.7,0.9 2.4,0.2 1.1,-0.6 v -0.2 l 1,0.5 -0.4,3.7 4.5,0.7 2.4,0.9 4.2,0.7 2.6,1.8 2.8,-1.9 2.7,0.6 2.2,3.1 0.8,0.1 v 2.1 l 3.3,1.1 2.5,-2.1 1.5,0.5 2.1,0.1 0.6,2.1 5.2,2 2.3,-0.5 1.9,-4 h 0.1 l 1.1,1.9 4.6,0.9 3.4,1.3 3.2,1 2.4,-1.2 0.7,-2.3 h 3.6 l 2.1,1 3,-2 h 0.4 l 0.5,1.4 h 4.7 l 1.9,-1.8 1.3,0.4 1.7,2.1 3.3,1.9 3.4,1 2.5,1.4 2.7,2 3.1,-1.2 2.1,0.8 0.7,20 0.7,9.5 0.6,4.1 2.6,4.4 0.9,4.5 4.2,5.9 0.3,3.1 0.6,0.8 -0.7,7.7 -2.9,4.8 1.3,2.6 -0.5,2.4 -0.8,7.2 -1.3,3 0.3,4.2 -5.6,1.6 -9.9,4.5 -1,1.9 -2.6,1.9 -2.1,1.5 -1.3,0.8 -5.7,5.3 -2.7,2.1 -5.3,3.2 -5.7,2.4 -6.3,3.4 -1.8,1.5 -5.8,3.6 -3.4,0.6 -3.9,5.5 -4,0.3 -1,1.9 2.3,1.9 -1.5,5.5 -1.3,4.5 -1.1,3.9 -0.8,4.5 0.8,2.4 1.8,7 1,6.1 1.8,2.7 -1,1.5 -3.1,1.9 -5.7,-3.9 -5.5,-1.1 -1.3,0.5 -3.2,-0.6 -4.2,-3.1 -5.2,-1.1 -7.6,-3.4 -2.1,-3.9 -1.3,-6.5 -3.2,-1.9 -0.6,-2.3 0.6,-0.6 0.3,-3.4 -1.3,-0.6 -0.6,-1 1.3,-4.4 -1.6,-2.3 -3.2,-1.3 -3.4,-4.4 -3.6,-6.6 -4.2,-2.6 0.2,-1.9 -5.3,-12.3 -0.8,-4.2 -1.8,-1.9 -0.2,-1.5 -6,-5.3 -2.6,-3.1 v -1.1 l -2.6,-2.1 -6.8,-1.1 -7.4,-0.6 -3.1,-2.3 -4.5,1.8 -3.6,1.5 -2.3,3.2 -1,3.7 -4.4,6.1 -2.4,2.4 -2.6,-1 -1.8,-1.1 -1.9,-0.6 -3.9,-2.3 v -0.6 l -1.8,-1.9 -5.2,-2.1 -7.4,-7.8 -2.3,-4.7 v -8.1 l -3.2,-6.5 -0.5,-2.7 -1.6,-1 -1.1,-2.1 -5,-2.1 -1.3,-1.6 -7.1,-7.9 -1.3,-3.2 -4.7,-2.3 -1.5,-4.4 -2.6,-2.9 -1.7,-0.5 z m 174.4,141.7 -0.6,-7.1 -2.7,-7.2 -0.6,-7 1.5,-8.2 3.3,-6.9 3.5,-5.4 3.2,-3.6 0.6,0.2 -4.8,6.6 -4.4,6.5 -2,6.6 -0.3,5.2 0.9,6.1 2.6,7.2 0.5,5.2 0.2,1.5 z"
         inkscape:connector-curvature="0"
         style="fill:none;stroke:#ababab;stroke-width:2.29058719;stroke-miterlimit:4;stroke-dasharray:none;stroke-opacity:1" />
      <path
         id="UT"
         d="m 228.4,696.9 24.6,3.6 1.9,-13.7 7,-50.5 2.3,-22 -32.2,-3.5 2.2,-13.1 1.8,-10.6 -34.7,-6.1 -12.5,-2.5 -10.6,52.9 -5.4,30 -3.3,15.4 -1.7,9.2 z"
         inkscape:connector-curvature="0"
         style="fill:none;stroke:#ababab;stroke-width:2.29058719;stroke-miterlimit:4;stroke-dasharray:none;stroke-opacity:1" />
      <path
         id="VA"
         d="m 834.7,656.2 -0.2,2.8 -2.9,3.8 -0.4,4.6 0.5,3.4 -1.8,5 -2.2,1.9 -1.5,-4.6 0.4,-5.4 1.6,-4.2 0.7,-3.3 -0.1,-1.7 z m -60.3,44.6 -38.6,5.6 -4.8,-0.1 -2.2,-0.3 -2.5,1.9 -7.3,0.1 -10.3,1.6 -6.7,0.6 4.1,-2.6 4.1,-2.3 v -2.1 l 5.7,-7.3 4.1,-3.7 2.2,-2.5 3.6,4.3 3.8,0.9 2.7,-1 2,-1.5 2.4,1.2 4.6,-1.3 1.7,-4.4 2.4,0.7 3.2,-2.3 1.6,0.4 2.8,-3.2 0.2,-2.7 -0.8,-1.2 4.8,-10.5 1.8,-5.2 0.5,-4.7 0.7,-0.2 1.1,1.7 1.5,1.2 3.9,-0.2 1.7,-8.1 3,-0.6 0.8,-2.6 2.8,-2.2 1.1,-2.1 1.8,-4.3 0.1,-4.6 3.6,1.4 6.6,3.1 0.3,-5.2 3.4,1.2 -0.6,2.9 8.6,3.1 1.4,1.8 -0.8,3.3 -1.3,1.3 -0.5,1.7 0.5,2.4 2,1.3 3.9,1.4 2.9,1 4.9,0.9 2.2,2.1 3.2,0.4 0.9,1.2 -0.4,4.7 1.4,1.1 -0.5,1.9 1.2,0.8 -0.2,1.4 -2.7,-0.1 0.1,1.6 2.3,1.5 0.1,1.4 1.8,1.8 0.5,2.5 -2.6,1.4 1.6,1.5 5.8,-1.7 3.7,6.2 z"
         inkscape:connector-curvature="0"
         style="fill:none;stroke:#ababab;stroke-width:2.29058719;stroke-miterlimit:4;stroke-dasharray:none;stroke-opacity:1" />
      <path
         id="VT"
         d="m 832.7,502.3 2.4,6.5 0.8,5.3 -1,3.9 2.5,4.4 0.9,2.3 -0.7,2.6 3.3,1.5 2.9,10.8 v 5.3 l 11.5,-2.1 -1,-1.1 0.6,-1.9 0.2,-4.3 -1,-1.4 0.2,-4.7 0.8,-9.3 v -8.5 l -1.1,-1.8 v -1.6 l 2.8,-1.1 3.5,-4.4 v -3.6 l -1.9,-2.7 -0.3,-5.79 -26.1,6.79 z"
         inkscape:connector-curvature="0"
         style="fill:none;stroke:#ababab;stroke-width:2.29058719;stroke-miterlimit:4;stroke-dasharray:none;stroke-opacity:1" />
      <path
         id="WA"
         d="m 74.5,458.7 -2.3,-4.3 -4.1,-0.7 -0.4,-2.4 -2.5,-0.6 -2.9,-0.5 -1.8,1 -2.3,-2.9 0.3,-2.9 2.7,-0.3 1.6,-4 -2.6,-1.1 0.2,-3.7 4.4,-0.6 -2.7,-2.7 -1.5,-7.1 0.6,-2.9 v -7.9 l -1.8,-3.2 2.3,-9.4 2.1,0.5 2.4,2.9 2.7,2.6 3.2,1.9 4.5,2.1 3.1,0.6 2.9,1.5 3.4,1 2.3,-0.2 V 413 l 1.3,-1.1 2.1,-1.3 0.3,1.1 0.3,1.8 -2.3,0.5 -0.3,2.1 1.8,1.5 1.1,2.4 0.6,1.9 1.5,-0.2 0.2,-1.3 -1,-1.3 -0.5,-3.2 0.8,-1.8 -0.6,-1.5 V 410 l 1.8,-3.6 -1.1,-2.6 -2.4,-4.8 0.3,-0.8 1.4,-0.8 4.4,1.5 9.7,2.7 8.6,1.9 20,5.7 23,5.7 15,3.49 -4.8,17.56 -4.5,20.83 -3.4,16.25 -0.4,9.18 v 0 l -12.9,-3.72 -15.3,-3.47 -14.5,0.32 -1.1,-1.53 -5.7,2.09 -3.9,-0.42 -2.6,-1.79 -1.7,0.65 -4.15,-0.25 -1.72,-1.32 -5.16,-1.82 -1.18,-0.16 -4.8,-1.39 -1.92,1.65 -5.65,-0.25 -4.61,-3.35 z m 9.6,-55.4 2,-0.2 0.5,1.4 1.5,-1.6 h 2.3 l 0.8,1.5 -1.5,1.7 0.6,0.8 -0.7,2 -1.4,0.4 c 0,0 -0.9,0.1 -0.9,-0.2 0,-0.3 1.5,-2.6 1.5,-2.6 l -1.7,-0.6 -0.3,1.5 -0.7,0.6 -1.5,-2.3 z"
         inkscape:connector-curvature="0"
         style="fill:none;stroke:#ababab;stroke-width:2.29058719;stroke-miterlimit:4;stroke-dasharray:none;stroke-opacity:1" />
      <path
         id="WI"
         d="m 541.4,500.9 2.9,0.5 2.9,-0.6 7.4,-3.2 2.9,-1.9 2.1,-0.8 1.9,1.5 -1.1,1.1 -1.9,3.1 -0.6,1.9 1,0.6 1.8,-1 1.1,-0.2 2.7,0.8 0.6,1.1 1.1,0.2 0.6,-1.1 4,5.3 8.2,1.2 8.2,2.2 2.6,1.1 12.3,2.6 1.6,2.3 3.6,1.2 1.7,10.2 1.6,1.4 1.5,0.9 -1.1,2.3 -1.8,1.6 -2.1,4.7 -1.3,2.4 0.2,1.8 1.5,0.3 1.1,-1.9 1.5,-0.8 0.8,-2.3 1.9,-1.8 2.7,-4 4.2,-6.3 0.8,-0.5 0.3,1 -0.2,2.3 -2.9,6.8 -2.7,5.7 -0.5,3.2 -0.6,2.6 0.8,1.3 -0.2,2.7 -1.9,2.4 -0.5,1.8 0.6,3.6 0.6,3.4 -1.5,2.6 -0.8,2.9 -1,3.1 1.1,2.4 0.6,6.1 1.6,4.5 -0.2,3 -15.9,1.8 -17.5,1 H 567 l -0.7,-1.5 -2.9,-0.4 -2.6,-1.3 -2.3,-3.7 -0.3,-3.6 2,-2.9 -0.5,-1.4 -2.1,-2.2 -0.8,-3.3 -0.6,-6.8 -2.1,-2.5 -7,-4.5 -3.8,-5.4 -3.4,-1 -2.2,-2.8 h -3.2 l -2.9,-3.3 -0.5,-6.5 0.1,-3.8 1.5,-3.1 -0.8,-3.2 -2.5,-2.8 1.8,-5.4 5.2,-3.8 1.6,-1.9 -0.2,-8.1 0.2,-2.8 2.4,-2.8 z"
         inkscape:connector-curvature="0"
         style="fill:none;stroke:#ababab;stroke-width:2.29058719;stroke-miterlimit:4;stroke-dasharray:none;stroke-opacity:1" />
      <path
         id="WV"
         d="m 758.9,645.3 5.8,-6 2.6,-0.8 1.6,-1.5 1.5,-2.2 1.1,0.3 3.1,-0.2 4.6,-3.6 1.5,-0.5 1.3,1 2.6,1.2 3,3 -0.4,4.3 -5.4,-2.6 -4.8,-1.8 -0.1,5.9 -2.6,5.7 -2.9,2.4 -0.8,2.3 -3,0.5 -1.7,8.1 -2.8,0.2 -1.1,-1 -1.2,-2 -2.2,0.5 -0.5,5.1 -1.8,5.1 -5,11 0.9,1.4 -0.1,2 -2.2,2.5 -1.6,-0.4 -3.1,2.3 -2.8,-0.8 -1.8,4.9 -3.8,1 -2.5,-1.3 -2.5,1.9 -2.3,0.7 -3.2,-0.8 -3.8,-4.5 -3.5,-2.2 -2.5,-2.5 -2.9,-3.7 -0.5,-2.3 -2.8,-1.7 -0.6,-1.3 -0.2,-5.6 0.3,0.1 2.4,-0.2 1.8,-1 V 666 l 1.7,-1.5 0.1,-5.2 0.9,-3.6 1.1,-0.7 0.4,0.3 1,1.1 1.7,0.5 1.1,-1.3 -1,-3.1 v -1.6 l 3.1,-4.6 1.2,-1.3 2,0.5 2.6,-1.8 3.1,-3.4 2.4,-4.1 0.2,-5.6 0.5,-4.8 v -4.9 l -1.1,-3 0.9,-1.3 0.8,-0.7 4.3,19.3 4.3,-0.8 11.2,-1.3 z"
         inkscape:connector-curvature="0"
         style="fill:none;stroke:#ababab;stroke-width:2.29058719;stroke-miterlimit:4;stroke-dasharray:none;stroke-opacity:1" />
      <path
         id="WY"
         d="m 353,552.9 -1.5,25.4 -4.4,44 -2.7,-0.3 -83.3,-9.1 -27.9,-3 2,-12 6.9,-41 3.8,-24.2 1.3,-11.2 48.2,7 59.1,6.5 z"
         inkscape:connector-curvature="0"
         style="fill:none;stroke:#ababab;stroke-width:2.29058719;stroke-miterlimit:4;stroke-dasharray:none;stroke-opacity:1" />
      <g
         transform="translate(0,391)"
         id="DC"
         style="fill:none;stroke:#ababab;stroke-width:2.29058719;stroke-miterlimit:4;stroke-dasharray:none;stroke-opacity:1">
        <path
           id="DC1"
           d="m 801.8,253.8 -1.1,-1.6 -1,-0.8 1.1,-1.6 2.2,1.5 z"
           inkscape:connector-curvature="0"
           style="fill:none;stroke:#ababab;stroke-width:2.29058719;stroke-miterlimit:4;stroke-dasharray:none;stroke-opacity:1" />
        <circle
           id="DC2"
           cx="801.29999"
           cy="251.8"
           r="5"
           style="opacity:1;fill:none;stroke:#ababab;stroke-width:2.29058719;stroke-miterlimit:4;stroke-dasharray:none;stroke-opacity:1" />
        <!-- Set opacity to "0" to hide DC circle -->
      </g>
    </g>
  </g>
  <g
     inkscape:groupmode="layer"
     id="layer1"
     inkscape:label="center"
     sodipodi:insensitive="true"
     style="display:none">
    <circle
       style="opacity:1;vector-effect:none;fill:#ff0000;fill-opacity:1;stroke:none;stroke-width:1.30441773;stroke-linecap:butt;stroke-linejoin:miter;stroke-miterlimit:4;stroke-dasharray:none;stroke-dashoffset:0;stroke-opacity:1"
       id="path1719"
       cx="912"
       cy="492"
       r="3.7623672" />
  </g>
</svg>
