<?xml version="1.0" encoding="UTF-8" standalone="no"?>
<!-- Generator: Adobe Illustrator 22.0.1, SVG Export Plug-In . SVG Version: 6.00 Build 0)  -->

<svg
   xmlns:dc="http://purl.org/dc/elements/1.1/"
   xmlns:cc="http://creativecommons.org/ns#"
   xmlns:rdf="http://www.w3.org/1999/02/22-rdf-syntax-ns#"
   xmlns:svg="http://www.w3.org/2000/svg"
   xmlns="http://www.w3.org/2000/svg"
   xmlns:sodipodi="http://sodipodi.sourceforge.net/DTD/sodipodi-0.dtd"
   xmlns:inkscape="http://www.inkscape.org/namespaces/inkscape"
   version="1.1"
   id="svg975"
   inkscape:export-filename="map.png"
   inkscape:export-xdpi="96"
   inkscape:export-ydpi="96"
   inkscape:version="0.92.3 (2405546, 2018-03-11)"
   sodipodi:docname="map.svg"
   x="0px"
   y="0px"
   viewBox="0 0 1824 984"
   style="enable-background:new 0 0 1824 984;"
   xml:space="preserve"><metadata
   id="metadata1175"><rdf:RDF><cc:Work
       rdf:about=""><dc:format>image/svg+xml</dc:format><dc:type
         rdf:resource="http://purl.org/dc/dcmitype/StillImage" /></cc:Work></rdf:RDF></metadata><defs
   id="defs1173">
	

		
		
		
		
		
		
		
		
		
		
		
		
		
		
		
		
		
		
		
		
		
		
		
		
		
	</defs>
<style
   type="text/css"
   id="style1015">
	.st0{fill:#E5E5E5;}
	.st1{display:none;}
	.st2{display:inline;fill:#FF0000;}
	.st3{fill:#444444;stroke:#E5E5E5;stroke-width:1.2;}
</style>
<rect
   class="st0"
   width="1824"
   height="984"
   id="rect1017" />
<sodipodi:namedview
   bordercolor="#666666"
   borderopacity="1"
   gridtolerance="10"
   guidetolerance="10"
   id="namedview977"
   inkscape:current-layer="svg975"
   inkscape:cx="307.54412"
   inkscape:cy="395.69566"
   inkscape:pageopacity="1"
   inkscape:pageshadow="2"
   inkscape:snap-page="true"
   inkscape:window-height="480"
   inkscape:window-width="640"
   inkscape:zoom="0.64211974"
   objecttolerance="10"
   pagecolor="#e9e9e9"
   showgrid="false">
	</sodipodi:namedview>
<title
   id="title918">Blank US states map</title>
<g
   id="layer1"
   inkscape:groupmode="layer"
   inkscape:label="center"
   sodipodi:insensitive="true"
   class="st1">
	<circle
   id="path1719"
   class="st2"
   cx="912"
   cy="492"
   r="3.8" />
</g>
<g
   id="outlines"
   style="fill:#cccccc;fill-opacity:1">
	<path
   id="AL_1_"
   class="st3"
   d="M1141.3,728l0.9,0.3l2-4.2l2.3-6.8l3.6,0.9l4.8,9.3v1.6l-4.2,3l4.2,0.5l8.1-3.9l-0.5-11.8l-3.9-2.8   l-3.1-3.1l0.6-6.2l16.3-2.3l39.9-4.5l10.4-0.9l8.7,0.2l-0.8-3.4l-2.3-1.2l-1.4-1.7l1.6-4l-0.6-8.1l-2.5-7l1.2-7.9l2.6-7.5l-0.3-2.6   l-2.8-1.1l-0.8-5.6l-4.2-5.3l-3.1-10.1l-2.2-10.4l-2.8-7.8l-5.9-24.9l-5.4-12.3l-1.2-8.7l0.2-3.4l-14,1.2l-36.4,3.4l-19,1.2   l-0.3,9.9l0.3,25.9l-1.1,48.2l-0.5,21.9l4.4,29.2l2.5,22.8L1141.3,728z"
   style="fill:#cccccc;fill-opacity:1" />
	<path
   id="AR_1_"
   class="st3"
   d="M1077.3,541.1l-9.9-1.1l1.4-4.8l4.8-4l0.9-3.6l-2.8-4.5l-49.6,1.9l-36.2,1.1l-36.7,0.5l2.3,10.7   l0.2,13.2l2.2,16.9l0.5,59.4l3.3,2.5l4.7-1.9l4.5,1.9l0.6,15.7l39.2-0.3l41.6-1.2l1.4-3l-0.5-5.9l-2.6-4.8l2.3-2.2l-2.2-3.4   l1.1-3.7l1.7-9.2l4.2-3.6l-1.2-3.4l6.2-8.7l3.9-1.7l-0.2-2.6l-0.8-2.6l4.5-9l3.9-1.7l0.3-5.1l3.3-2.2l1.4-6.4l-2.2-6.2l6.5-3.7   l0.5-3.3l1.9-6.5l1.4-4.8L1077.3,541.1z"
   style="fill:#cccccc;fill-opacity:1" />
	<path
   id="AZ_1_"
   class="st3"
   d="M374.7,608.8l-0.5,2.3l0.8,1.6l29.4,16.6l18.8,11.8l22.8,13.4l26.1,15.5l19.1,3.7l39.5,4.2   l9.3-61.5l10.9-82.5l6.8-48.2l-38.2-5.6L425.2,463l-0.3,1.7l-4,25.6l-3.3,5.9l-4.4-0.3l-1.9-4l-4-0.6l-1.9-1.7l-1.7,0.2l-3.3,2.6   L400,503l-0.5,2.3l-0.8,19.4l-2.3,3.7l-0.6,5.1l4.4,7.8l1.7,8.5l1.1,1.7l1.7,1.4l-0.6,3.7l-2.6,1.9l-5.3,2.5l-2.5,2.8l-2.5,5.6   l-0.8,7.6l-4.7,4.5l-3,1.4l-0.2,9l-0.9,2.5l0.8,1.2l6.1,0.6l-1.4,4.7l-2.6,3.7l-5.7,0.6L374.7,608.8z"
   style="fill:#cccccc;fill-opacity:1" />
	<path
   id="CA_1_"
   class="st3"
   d="M355.4,602.9l-30.6-4.2l-15.5-2.3l-0.8-2.8V579l-0.5-5l-4-6.5l-1.2-3.6l-6.1-6.5l-4.5-7.3l-4.2-0.3   l-5-1.2l-0.5-1.6l2.3-0.9l-0.9-5l-2.3-3.3l-7.5-1.2l-6.1-3.3l-1.7-3.6l-4-7.5l-4.5-4.8h-4.5l-6.1-3.3l-7-2.8l-6.5-0.8l-3.7-4.2   l0.8-3l2.8-11l1.2-3v-3.7l-2.5-1.6l-0.8-4.5l-2.3-4l-5.3-9l-2-4.8l-2.3-7.3l-2.5-8.2l-5-6.8l-0.8-4.5l1.2-6.1h1.7l3.3-2.5l1.7-5.6   l-1.6-4.2l-4.2-0.8l-3-4l-3.3-5.7l-0.3-12.7l0.9-3l0.9-3.6l0.8-3.7l-8.9-9.8V370l0.5-0.8l0.5-5l-2-6.2l-3.6-7.5l-4.2-7l-2.8-6.1   l1.6-5.7l0.9-9l2.8-4.8l0.5-10.1l-1.7-5.6l-2.5-6.5l-4.2-6.5l1.2-5l2.3-6.5l2.8-1.2l0.5-1.7l4.8-4l8.1-18.3l0.3-11.5l2.6-7.6   l60.1,18.3l39.8,10.3l-12.4,48.6L282.9,362l19.6,29.8l65.5,96.8l26.6,40.6L394,534l4.4,8.1l1.7,8.4l1.6,2.3l1.1,0.9l-0.3,2.2   l-2.2,1.6L395,560l-3,3.3l-2.6,6.1l-0.8,7.3l-4,3.9l-3.6,1.7l-0.2,9.6l-0.9,3l1.6,2.6l4.7,0.5l-0.6,2.5l-2.2,3.1l-6.1,0.9   L355.4,602.9z M240.6,526.9l2,2.3l-0.3,2l-5-0.2l-0.9-1.9l-0.9-2.3h5.1V526.9z M243.5,526.9l1.9-0.9l5.6,3.3l4.8,1.9l-1.4,0.9   l-7-0.3l-2.5-2.5L243.5,526.9z M275.7,557.7l2.8,3.6l1.2,1.6l2.3,0.9l0.9-2.3l-1.6-2.8l-4.2-3.1l-1.7,0.3v1.9L275.7,557.7z    M273.5,571.2l2.8,5l1.9,3l-2.3,0.3l-2-1.9c0,0-1.1-2.3-1.1-3c0-0.6,0-3.4,0-3.4L273.5,571.2L273.5,571.2z"
   style="fill:#cccccc;fill-opacity:1" />
	<path
   id="CO_1_"
   class="st3"
   d="M755.5,369.2l-55.9-5.4l-122.9-13.4l-3.4,34.3L562.4,463l-3,21.3l52.8,6.1l58.3,6.8l53.9,4.7   l22.2,0.9L755.5,369.2z"
   style="fill:#cccccc;fill-opacity:1" />
	<path
   id="CT_1_"
   class="st3"
   d="M1488.5,299.9l5.6-5l3-3.3l1.2,0.9l4.2-2.3l8.1-1.7l10.9-5.4l-0.9-6.5l-1.2-6.8l-2.5-9.3l-6.7,1.7   l-33.9,7.3l0.9,4.8l2.3,11.3v12.9l-1.4,3.3l2.6,3.4L1488.5,299.9z"
   style="fill:#cccccc;fill-opacity:1" />
	<path
   id="DE_1_"
   class="st3"
   d="M1461.2,387.4l-1.6,0.8l-5.6-3.7l-2.8-7.3l-3-5.6l-3.6-1.6l-3.3-5.6l0.8-3.1l0.8-3.6l0.2-1.7   l-0.9,0.2l-2.6,1.6l-3.1,2.6l-0.3,0.5l2.2,6.4l3.6,8.7l5.7,25l7.8-0.5l9.3-1.7L1461.2,387.4z"
   style="fill:#cccccc;fill-opacity:1" />
	<path
   id="FL_1_"
   class="st3"
   d="M1330.4,695l-8.1-1.1l-1.1,1.2l2.3,6.8l-0.6,8.1l-6.4-1.6l-0.3-4.4h-6.4l-8.2,1.1l-50.3,3   l-12.7-0.5l-2.6-2.6l-3.9-6.5h-9.2l-10.3,0.8l-55,6.5l-0.5,4.4l2.5,2.5l4.5,3.1l0.5,13.1l5.1-0.9l9.3-3.3l9.3-0.8l6.8-0.9l11.8,2.8   l12.6,6.1l2.5,2.3l4.5,1.7l2.5,3l0.5,4.2l5-2h6.1l5.6-3l5.7-5.6l4.8,0.3l0.8-1.7l-1.2-1.6l0.3-3l6.2-1.2h4l4.5,2.3l6.5,2.3l3.7,5.7   l4.2,1.6l1.7,5.3l5.3,2.5l2.5,4l3,0.9l8.1,2l2,4.8l4.7,5.7v14.8l-2.3,7.3l0.5,4.2l2,7.5l2.8,6.2l1.2-0.8l2.3-7l-4-1.6l-0.5-0.9   l2.5-0.9l7,1.6l0.3,2.5l-5,8.5l-3.3,3.7l5.6,5.7l4,4.8l4.5,8.2l4.5,6.1l3.3,7.8l2.8,0.5l2.5-3.3l2.8,1.7l4,6.2l0.9,5.6l4.8,6.8   l1.2-2l6.1,0.5l5.6,3.6l5.3,8.1l1.2,5.3l0.5,4.5l1.7,1.6l2,0.8l3.7-1.6l2.3-2.5l6.1-0.3l4.8-2.3l4.2-5l-0.8-3l-0.5-3.7l0.9-3   l-0.5-3l3.7-2l0.5-5.3l-0.9-2.8l-0.8-18.6l-2-11.8l-7-12.7l-5.6-9l-4-8.2l-4.5-4.5l-4.5-11.5l1.1-2.2l1.7-2l-2.5-4.5l-6.2-5.7   l-7.5-8.5l-5.7-9.8l-8.2-14.6l-5.7-15.1l-3.6-11.3L1330.4,695z M1357.9,901.2l3.7-0.9l2-0.3l2.3-3.6l3.6-2.5l2,0.8l2.6,0.5l0.6,1.7   l-5.4,1.9l-6.5,2.3l-3.6,1.9L1357.9,901.2z M1378.8,893.4l1.9,1.7l4.2-3.3l8.2-6.5l5.7-6.1l3.9-10.3l1.6-2.6l0.3-5.3l-1.1,0.8   l-1.6,4.4l-2.3,7.1l-5,8.2l-6.8,6.5l-5.3,3L1378.8,893.4z"
   style="fill:#cccccc;fill-opacity:1" />
	<path
   id="GA_1_"
   class="st3"
   d="M1330.4,693.5l-8.7-1.1l-2.2,2.5l2.5,7.3l-0.5,6.1l-3.4-0.9l-0.3-4.7h-8.1l-8.2,1.1l-50.2,3   l-12-0.5l-2.2-1.9l-3.9-6.7l-1.2-5.1l-2.5-1.4l-0.8-0.8l1.4-3.4l-0.6-8.5l-2.5-7l1.2-7.6l2.6-7.5l-0.3-3.9l-3-1.1l-0.6-5l-4.4-5.4   l-3-9.6l-2.3-10.9l-2.6-7.5l-5.9-24.9l-5.4-12.4l-1.2-8.2l0.2-3.6l5.1-0.5l21.1-2.5l28.9-3.1l9.8-1.7l0.8,2.2l-3.4,1.4l-1.4,3.4   l0.6,3.1l2.2,2.5l6.7,4.2l5-0.2l5,7.3l0.9,2.5l3.6,4.4l0.8,2.6l7.3,2.8l4.7,3.4l3.6,4.7l3.6,2l3.1,2.8l2.2,4.2l3.3,3l6.4,2.8   l4.2,9.3l2.6,7.9l4.4,1.1l3.3,3l3.1,8.9l4.5,2.5l2.6-1.2l0.6,1.9l-5.1,9.6l0.8,4l-2.3,6.5l-3.6,15.5l1.2,9.8L1330.4,693.5z"
   style="fill:#cccccc;fill-opacity:1" />
	<path
   id="IA_1_"
   class="st3"
   d="M1029.9,288.6l3.3,3.3l0.5,1.1l-3.1,4.7l0.5,6.2l4,6.4l4.8,2.5l3.7,0.5l1.4,2.8l0.3,3.7l3.9,1.6   l1.4,1.7l0.8,2.5l5.9,5.1l0.9,3l-1.1,4.7l-2.6,5.7l-0.9,3.7l-3.3,2.5l-2.5,0.8l-8.9,2.3l-2.5,7.5l1.2,2.8l2.6,2.3l-0.3,5.4l-3,2.2   l-1.1,2.8v3.7l-2.2,0.6l-2.6,2.2l-0.8,2.6l0.6,2.6l-2,1.6l-3.6-4.2l-2.2-4.4l-12.9,1.2l-15.5,0.9l-76.4,1.9l-2.5-6.7l-0.6-10.4   l-2.2-6.5l-1.1-8.1l-3.4-5.7l-1.6-7.1l-4.2-12.1l-1.7-8.7l-2.2-3l-2-4.5l2.6-5.9l1.9-9.5l-4.2-3.4l-0.5-3.7l1.1-3.7l2.8-0.5   l94.9-0.9l32.9-1.1L1029.9,288.6z"
   style="fill:#cccccc;fill-opacity:1" />
	<path
   id="ID_1_"
   class="st3"
   d="M437.1,46.2l-7.5,27.1l-7,32.4l-5.3,25.2l-0.6,15l1.9,6.9l5.4,4.1l-0.3,6.1l-6.1,6.8l-7,10.3   l-1.4,4.5l-1.9,1.7l-2.8,1.2l-6.7,8.2l-0.6,4.8l-0.6,1.7l0.9,1.6l4-0.2l1.7,3.6l-3.7,9l-1.9,6.5l-13.7,54.8l32.2,7l61.4,12.3   l54.1,9.5l7.6-45.4l5.9-37.4l-4.2-3.7l-0.6-4l-1.2-1.7l-3.3,1.6l-1.1,4l-5,0.8l-6.1-2.5l-5.9,0.2l-3.9,1.1l-5.3-2.3l-3.7,0.3   l-3.7,3.1l-3.1-1.7l-1.1-6.2l1.1-4.5l-3.9-4.5l-5.1-4l-4-20.5l-0.2-7.3l-0.5-0.2l-0.3,0.6l-7.9,5.4l-2.6-0.3l-4.5-5.3l-0.3-4.8   l10.9-26.6l-0.6-3l-5.3-1.8l-0.9-1.8l-4-5.4l-7.1-15.9l-5-2.4l-3.1-7.7l2-7.2l-5-11.8l6.8-33.4L437.1,46.2z"
   style="fill:#cccccc;fill-opacity:1" />
	<path
   id="IL_1_"
   class="st3"
   d="M1126.1,336.3l-1.2-4l-2-5.7l-2.5-2.8l-2.3-4l-0.6-8.5l-24.7,2.8l-27,1.6h-19.1l0.3,3.3l3.4,1.4   l1.7,2.2l0.6,2.2l6.1,5.3l1.1,3.7l-1.1,5.1l-2.6,5.7l-1.2,4.2l-3.7,3l-3,0.9l-8.1,2l-2,6.4l0.9,1.7l3,2.8l-0.3,6.7l-3.3,2.5l-0.8,2   v4.4l-2.8,0.9l-2.2,1.9l-0.6,1.9l0.6,3.1l-2.5,2l-1.4,4.4l0.5,6.1l3.6,10.9l10.9,11.8l8.9,5.7v6.8l1.1,1.9l10.3,0.9l4.2,2.2   l-1.1,5.4l-3.4,9.6l-1.2,4.7l3.1,5.7l9.9,8.2l7.5,1.2l3.4,7.9l3.1,5.3l-1.4,4.4l2.3,5.9l2.6,3.3l2.5-0.5l1.6-3.4l3.7-2.6l4.4-1.6   l9.5,3.9l0.8-0.3v-1.7l-1.9-4.2l0.6-4.4l3.7-2.5l5.3-1.9l-0.8-2l-1.2-3.1l1.9-2l1.6-4.2v-6.2l0.6-7.6l3.9-4.7l2.8-5.9l3.9-6.2   l-0.8-8.2l-2.8-5l-0.5-5.1l1.2-8.2l-1.1-11.2l-1.7-24.5l-2.2-23.8l-1.4-18.2L1126.1,336.3z"
   style="fill:#cccccc;fill-opacity:1" />
	<path
   id="IN_1_"
   class="st3"
   d="M1132.6,339.1l2.3,1.6l1.7-0.5l3.3-3l3.9-2.8l22.2-1.7l28.6-2.8l2.5,24.1l7.6,66.2l-0.9,4.5l2,2.5   l0.3,2l-3.6,2.5l-5.6,2.6l-5,0.6l-0.8,7.5l-7.3,5.6l-4.5,6.2l0.3,3.7l-0.8,2.2h-5.4l-2.2-2.6l-8.1,4.7l0.3,4.8l-1.4,0.3l-0.8-1.4   l-3.7-2.6l-5.6,2.3l-2.2,4.5l-1.9-0.9l-2.5-2.8l-6.8,0.8l-8.9,1.6l-3.9,2v-4l0.6-7.3l3.6-4.5l2.8-6.1l4.2-6.5l-0.8-9l-2.8-4.8   l-0.5-5l1.2-8.2l-1.1-11l-1.4-19.6l-3.9-46.8L1132.6,339.1z"
   style="fill:#cccccc;fill-opacity:1" />
	<path
   id="KS_1_"
   class="st3"
   d="M919.7,406.5l-68.1-0.9l-63.1-1.9l-33.7-1.4L748.2,503l37.8,1.6l69.5,3.3l71.9,0.9l19.6-0.5   l1.1-54.4l-1.9-17.2l-3.9-3.1l-3.7-4.7l-3.6-5.6l0.9-4.7l2.6-2.2v-3.3l-1.2-1.1l-4-0.3l-5.4-5.3L919.7,406.5z"
   style="fill:#cccccc;fill-opacity:1" />
	<path
   id="KY_1_"
   class="st3"
   d="M1108.2,518.8l19.6-1.1l0.2-6.4h6.7l47.2-5l70.1-6.7l8.7-5.6l6.1-3.3l0.2-3l9.3-12.1l6.4-5.6   l3.3-3.7l-5.1-3.1l-3.9-4.2l-4.7-5.9l-0.8-3.4l-4-2.2l-1.4-3l-0.3-9.5l-4-3.1l-3-1.7l-0.8-3.6l-2,0.3l-3.1,1.9l-3.9,4.2l-3-2.6   l-3.9-0.8l-3.7,2.2h-3.6l-2.8-3.1l-8.7-0.2l-2.8-7l-4.5-2.3l-3.3,1.2l-6.5,0.3l-0.8,3.3l1.9,2.3l0.5,3.3l-4.4,3.1l-5.9,2.8l-4,0.6   l-0.8,7l-7.6,5.6l-4,5.7l0.3,3.4l-1.4,3.6l-7-0.2l-2-2l-6.1,3.4l0.3,5.1l-3.7,0.9l-1.2-2.2l-2.6-1.9l-4.2,1.7l-2.8,5.4l-3.4-1.6   l-2.2-2.5l-5.7,0.6l-8.7,1.6l-4.4,2l-1.9,5.3l-1.6,1.6l2.3,5.7l-6.5,2.2l-3,2.2l-0.6,3.4l1.9,3.7v3.4l-2.5,0.6l-9.5-3.9l-3.6,1.4   l-3.1,2.2l-1.2,2.8l2.6,3.7l-1.4,2.8l-0.2,5.1l-3.7,2l-3.3,2.6L1108.2,518.8z"
   style="fill:#cccccc;fill-opacity:1" />
	<path
   id="LA_1_"
   class="st3"
   d="M983.4,758.3l12.6-0.5l16,5.6l10.1,1.7l5.7-2.3l5,1.7l5,1.6l1.2-3.3l-5-1.7l-4,0.8l-4.2-2.5   l1.2-2.3l4.8-1.6l2.8,2.3l2.8-1.6l5,0.9l2.3,3.7l0.5,3.6l7,0.5l2.8,2.8l-1.2,2.5l-2,1.2l2.5,2.5l13.1,5.6l5.6-2l1.6-3.7l4-0.9   l2.8-2.3l2,1.6l1.2,4.5l-3.6,1.2l0.9,0.9l5.3-2l3.6-5.3l1.2-0.8l-3.3-0.5l1.2-2.5l-0.3-2.3l3.3-0.8l1.7-2l0.9,1.2l0.9,4.8l6.5,0.9   l6.2,3l1.6,2.3h4.5l1.7,1.6l3.6-4.8v-2.3h-2l-5.3-4.2l-9-1.2l-5-3.6l1.7-4.2l3.6,0.5l0.3-0.9l-2.8-1.6v-0.8h5l2.8-4.8l-2-3   l-0.5-4.2l-2.3,0.3l-3,3.3l-0.9,4l-4.8-0.9l-1.6-2.8l2.8-3l3-2.6l-3.4-10.1l-5.3-5.3l1.6-11.3l-0.3-0.8l-2,0.3l-51.4,2.2l-1.2-3.7   l1.2-13.2l13.4-23l-1.4-4l2.2-0.6l0.6-3.1l-3.4-3.1l0.2-3l-3.1-7l-0.6-7.9l0.2-1.1l-41,1.2l-39.2,0.2l0.6,15.1l1.1,14.8l0.8,5.7   l4,7l1.4,6.8l6.7,9.3l0.5,4.8l0.9,1.2l-1.1,12.9l-4.4,7.1l1.9,3.7l-0.8,4L978,750l-2,4.7l0.3,5.7L983.4,758.3z"
   style="fill:#cccccc;fill-opacity:1" />
	<path
   id="MA_1_"
   class="st3"
   d="M1543.7,271.3l-0.8-3.6l1.2-2.3l4.5-2.3l1.2,4.8l-0.8,2.8l-3.7,2.3v1.6l3-2.3l6.1-7l6.1-3l6.5-2.3   l-0.5-3.7l-1.6-4.5l-3-3.7l-2.8-1.2l-3.3,0.3l-0.8,0.8l1.6,2l2.3-1.2l3.3,2.5l1.2,4.2l-2.8,2.8l-3.6,1.6l-5.6-0.8l-6.1-9.3l-3.6-4   h-2.8l-1.7,1.2l-3-4l0.5-2.3l3.7-8.1l-4.5-6.8l-5.7,2.8l-2.8,4.5l-28.4,7.3l-21.4,3.9l-0.9,16.5l1.1,7.6l34.2-7.5l17.4-4.4l3.1,2.5   l5.3,6.7l4.5,7.3L1543.7,271.3z M1563.1,273.5l3.4-1.1l0.8-2.6l1.6,0.2l1.6,3.6l-2,0.8l-6.1,0.2L1563.1,273.5z M1548.5,274.8l3.6-4   h2.5l2.8,2.3l-3.7,1.6l-3.4,1.6L1548.5,274.8z"
   style="fill:#cccccc;fill-opacity:1" />
	<path
   id="MD_1_"
   class="st3"
   d="M1461.8,413.7l2.6-5.9l0.8-7.5l-9.8,1.7l-9,0.5l-5.9-26.1l-3.6-8.5l-2.3-7.1l-34.5,6.7l-58.4,11.8   l3.1,16.2l7.5-7.6l3.9-1.1l2.2-2.3l2.8-4.2l2.5,1.1l4-0.3l4-3.3l3.1-2.3l3.3-0.9l2.3,1.7l4.2,2.2l3,2.8l2,2.2l7.5,2.5l-0.9,4.5   l9,3.3l3.3-4l5.7,3.9l-3.3,5.1l-1.1,5.1l-2.8,4v3.3l0.5,1.2l3.1,2l5.3,1.7l6.7-0.2l4.8,1.6l3.3,0.5l1.6-3.3l-2.3-3.3v-2.8l-3.7-3.3   l-3.3-8.5l2-8.2l-0.3-3.3l-2-2c0,0,2.3-2.5,2.3-3.6c0-0.9,0.8-3.3,0.8-3.3l3-2l3-2.5l0.8,1.6l-2.3,2.5l-2,5.7l0.5,1.7l2.8,0.5   l0.8,8.5l-3.3,1.6l0.5,5.6l0.8-0.3l1.7-3l2.5,2.8l-2.5,2l-0.5,5.3l4,5.3l6.1,0.8l2.5-1.2l5,6.5l1.6,0.6L1461.8,413.7z M1439.3,414   l1.7,3.9l0.3,2.8l1.7,3c0,0,1.4-1.4,1.4-1.9s-1.1-4.8-1.1-4.8l-1.1-3.6L1439.3,414z"
   style="fill:#cccccc;fill-opacity:1" />
	<path
   id="ME_1_"
   class="st3"
   d="M1510,146.1l2.3,0.6v-4l1.2-8.5l4-7.3l2.3-6.2l-3-3.7v-9.3l1.2-1.6l1.2-4.2l-0.3-2.3l-0.3-7.5   l2.8-7.5l4.5-13.8l3.3-6.5h2l2,0.3v1.7l2,3.6l4.2,0.9l1.2-1.2V68l6.2-4.5l2.8-2.8l2.3,0.3l9.3,3.7l3,1.6l14.1,46.5h9.3l1.2,3   l0.3,7.5l4.5,3.6h1.2l0.3-0.8l-0.8-1.7l4.4-0.8l3,3.3l3.6,5.7v3l-3.3,7.3l-3,0.9l-5.3,4.8l-7.5,8.5c0,0-0.9,0-2,0   c-0.9,0-1.6-3.3-1.6-3.3l-2.8,0.3l-1.6,2.3l-3.7,2.3l-1.6,2.3l2.5,2.3l-0.8,0.9l-0.8,4.2l-3-0.3v-2.5l-0.5-2l-2.3,0.5l-2.8-5   l-3.3,2l2,2.3l0.5,1.7l-1.2,2l0.5,4.8l0.3,2.5l-2.5,4l-4.5,0.8l-0.5,4.5l-8.2,4.8l-2,0.8l-2.5-2.3l-4.8,5.6l1.6,5l-2.3,2l-0.3,6.8   l-1.7,9.8l-3.4-1.4l-0.8-4.8l-6.2-1.7l-0.3-3.9l-18.2-58.2L1510,146.1z M1566.7,170.3l2.3-2.3l2.2,1.7l0.9,3.7l-2.6,1.4   L1566.7,170.3z M1577.1,161.2l2.8,3c0,0,2,0.2,2-0.3s0.3-3.1,0.3-3.1l1.4-1.2l-1.2-2.8l-3.1,1.1L1577.1,161.2z"
   style="fill:#cccccc;fill-opacity:1" />
	<path
   id="MI_1_"
   class="st3"
   d="M1166.1,331.2l29.7-3l0.3,1.7l15.4-2.3l18.6-2.6l0.2-0.9l0.3-2.3l3.3-5.7l3.1-2.6l-0.3-7.9l2.5-2.5   l1.7-0.5l0.3-5.6l2.3-4.7l1.7,0.9l0.3,0.9l1.2,0.3l3-1.6l-0.6-14.1l-5-12.7l-3.6-14.1l-3.7-5l-4-2.8l-2.5,1.7l-6.1,2.8l-3,7.8   l-4.2,5.7l-1.7,0.9l-2.3-0.9c0,0-4-2.3-3.7-3.3c0.3-0.9,0.8-7.8,0.8-7.8l5.3-2l1.2-5.3l0.9-4l3.7-2.5l-0.5-15.5l-2.5-3.6l-2-1.2   l-1.2-3.3l1.2-1.2l2.5,0.5l0.3-2.5l-4-3.4l-2-4h-4l-7-2.3l-8.5-5.3h-4.2l-0.9,0.9l-1.6-0.8l-4.8-3.6l-4.5,2.8l-4.5,3.6l0.5,5.6   l1.6,0.5l3.3,0.8l0.8,1.2l-4,1.2l-4,0.5l-2.3,2.8l-0.5,3.3l0.5,2.5l0.5,8.5l-5.6,3.3l-0.9-0.3v-6.5l2-3.7l0.9-3.7l-1.2-1.2l-3,1.2   l-1.6,6.5l-4.2,1.7l-2.8,3l-0.3,1.6l0.9,1.2l-0.9,4l-3.6,0.8v1.7l1.2,3.7l-1.7,9.5l-2.5,6.2l0.9,7.3l0.8,1.7l-1.2,3.7l-0.5,1.2   l-0.5,4.2l5.6,9.3l4.5,10.1l2.3,7.5l-1.2,7.3l-1.6,9.3l-3.7,8.1l-0.5,4.2l-5,4.8L1166.1,331.2z M1114.4,218.7l-2-1.7l-2.8-16.2   l-5.7-2l-2.6-3.6l-19.6-4.4l-4.4-1.7l-12.6-3.4l-12.1-1.6l-6.1-8.2l1.1-0.8l4.2-1.2l5.6-3.6v-1.6l0.9-0.9l9.3-1.6l3.7-3l6.8-3.3   l0.3-2l3-4.5l2.8-1.2l2-2.8l3.6-3.6l6.8-3.7l7.3-0.8l1.7,1.7l-0.5,1.6l-5.7,1.6l-2.3,4.8l-3.6,1.2l-0.8,3.7l-3.7,5l-0.5,4l1.2,0.8   l1.6-1.7l5.6-4.5l2,2h3.6l5,1.6l2.3,1.7l2.3,4.8l4.2,4.2l6.1-0.3l2.3-1.6l2.5,2l2.5,0.8l2-1.2h1.7l2.5-1.6l6.2-5.6l5.3-1.7   l10.3-0.5l7-3l4-2l2.3,0.3v8.9l0.8,0.5l4.5,1.2l3-0.8l9.5-2.5l1.7-1.7l2.3,0.8v10.9l5,4.8l2,0.9l2,1.6l-2,0.5l-1.2-0.5l-5.7-0.8   l-3.3,0.9l-3.6-0.3l-5,2.3h-2.8l-9-2l-8.1,0.3l-3,4l-10.9,0.9l-3.7,1.2l-1.7,4.8l-2,1.7l-0.8-0.3l-2.3-2.5l-7,3.7h-0.9l-1.7-2.5   l-1.2,0.3l-3,6.8l-1.6,6.2l-5,10.7L1114.4,218.7z M1068.4,130.9l2.8-3.3l3.4-1.2l8.4-6.1l3.6-0.9l0.8,0.8l-7.9,7.9l-5.1,3l-3.3,1.4   L1068.4,130.9z M1202.3,180.8l0.9,3.9l5,0.3l2-1.9c0,0-0.2-2.3-0.6-2.5c-0.5-0.3-2.5-3-2.5-3l-3.4,0.3l-2.5,0.3l-0.5,1.7   L1202.3,180.8z"
   style="fill:#cccccc;fill-opacity:1" />
	<path
   id="MN_1_"
   class="st3"
   d="M886.6,107.1l-0.9,6.1v16l2.5,7.8l3,5.2l0.8,15.4l2.8,20.9l2.8,11.3l0.6,9.9v8.2l-2.5,2.8l-2.8,2   v2.3l1.4,2.6l6.4,5.4l1.1,5v55.8l93.7-0.9l32.9-1.1l-0.8-9.3l-2.8-3.3l-11.2-7.1l-5.6-8.2l-5.3-1.4l-3.1-4.4h-5l-5.4-5.9l-0.8-10.9   l0.2-6.1l2.3-4.7l-1.1-4.2l-4.4-4.8l3.4-9.5l8.4-6.2l1.9-2.2l-0.3-12.4l0.3-4.7l4-4.7l5.9-4.5l2-0.3l7-7.8l2.8-1.2l3.6-6.1l3.7-5.6   l4.8-4l7.5-3.1l14.3-6.4l6.1-2.8l0.9-3.6l-6.8,0.6l-1.1,1.7h-0.9l-2.8-4.8l-13.8,0.5l-1.6,1.2h-1.6l-0.8-2l-1.2-2.8l-4,0.8l-5,5   l-2.5,1.2h-4.8l-4-1.6v-3.3l-2-0.3l-0.8,0.8l-4-2l-0.8-4.5l-2.3,0.8l-0.8,1.6l-3.7-0.8l-8.2-3.7l-6.1-4h-4.5l-2-1.6l-3.6,0.9   l-1.7,1.7l-0.5,2h-7.5v-3.3l-9.8-0.5l-0.5-2h-7.5l-2.5-2.5l-2.3-9.5l-1.2-8.5l-3-1.2l-3.6-0.8l-0.9,0.3l-0.5,12.7h-46.8   L886.6,107.1z"
   style="fill:#cccccc;fill-opacity:1" />
	<path
   id="MO_1_"
   class="st3"
   d="M1086.3,529.6l0.8-9.2l6.5-5.3l3-1.6V509l1.1-2.5l-1.7-2.5l-3.7,0.5l-3.3-3.9l-2.6-7l1.4-4l-3.1-5   l-2.8-7.1l-7.1-1.1l-10.6-8.7l-3.4-6.5l1.2-5.1l3.4-9.3l0.9-4.7l-3-1.6l-10.7-0.9l-1.7-3v-6.4l-8.2-5.4l-11.2-12.1l-3.6-11.3   l-0.8-6.5l1.1-3.7l-4-4.8l-1.9-3.7l-12,1.2l-15.5,0.9l-75.8,1.9l2,4l-0.2,3.4l3.6,5.6l4.7,6.1l4.8,4.7l4,0.3l2.2,1.7v4.5l-2.8,2.5   l-0.8,3.6l3.3,5l3.7,4.7l4,3.3l2,18l-1.2,62.1l0.8,8.9l36.8-0.3l36.2-1.1l50.5-2l3.4,5.7l-1.2,4.8l-4.8,3.9l-0.8,2.8l8.1,0.8   l6.4-1.7L1086.3,529.6z"
   style="fill:#cccccc;fill-opacity:1" />
	<path
   id="MS_1_"
   class="st3"
   d="M1103.7,737.4l4-6.5l2.8,1.2l10.6-3l3.3,0.5l2.3,1.2h8.1l0.6-2.5l-2.6-23l-4.4-29.5l1.6-70.1   l-0.3-25.9l0.3-9.8l-7.5,0.5L1092,573l-20.2,0.6l-0.3,5l-4.4,2l-4,7.9l0.8,2.5l0.2,3.7l-4.5,1.7l-5.4,7.9l1.2,3.6l-4.7,3.9   l-1.6,8.9l-0.9,3l2.5,3.9l-2.3,2.2l2.3,4.4l0.5,6.5l-1.9,3.9l-0.3,1.4l0.6,7.8l3.1,7l-0.2,2.6l3.6,3.1l-1.1,4.8l-1.4,0.5l0.9,3   l-13.4,23.3l-1.2,12.7l0.8,2.3l37.6-1.1l12.7-1.1l3-0.5l0.9,2.2l-1.6,11l5.1,5.1l3.4,9.9L1103.7,737.4z"
   style="fill:#cccccc;fill-opacity:1" />
	<path
   id="MT_1_"
   class="st3"
   d="M725.8,113.3l-8.2,88.8l-2,23.6l-91.8-10.3l-76.1-11l-2.2,17.4l-3-2.6l-0.6-3.9l-2-3l-5.1,2.3   l-1.1,3.9L530,219l-5.9-2.5l-6.4,0.2l-3.7,1.1l-5-2.3l-4.7,0.3l-3.3,3l-1.4-0.9l-1.1-5.3l1.1-5l-4.2-5l-5.1-3.9l-3.9-19.6l-0.2-8.2   l-2.5-1.2l-0.9,1.6l-7,5l-1.9-0.2l-3.6-4.4l-0.3-4.4l10.9-26.6l-0.9-4.1l-5.4-1.7l-0.6-1.4l-4.2-5.4l-7.1-16.2l-5-2.5l-2.8-6.6   l2-7.2l-5-11.8l6.8-33.1l50.8,10.7l28.6,5.3l50.2,8.2L634,81l45.4,5.4l47.9,4.8L725.8,113.3z"
   style="fill:#cccccc;fill-opacity:1" />
	<path
   id="NC_1_"
   class="st3"
   d="M1387.1,559.1l-19.7-12l-4.8-1.2l-25.8,3.3l-2.5-4.7l-4.4-3.4l-25.9,0.8l-11.5,1.4l-14.3,7   l-10.6,4.2l-10.1,1.9l-20.8,2.2l0.2-6.4l2.6-2l4.2-1.1l1.1-5.9l6.1-3.9l6.1-2.3l7-5.7l6.8-3.6l1.1-5l6.4-5.9l1.1,1.6l3.9,0.3   l3.7-5.6l2.6-0.6l4,0.5l2.8-6.2l3.9-3.7l0.8-2.8l0.2-5.4l6.8,0.2l59.8-8.7l89.3-19.1l3.1,7.5l5.6,10.1l3.7,3.7l0.9,3.6l-3.7,0.3   l1.2,0.9l-0.5,6.5l-4,2l-0.9,3.3l-2,4.5l-5.7,2.5l-3.7-0.5l-2.3-0.3l-2.5-2l0.5,2v1.6h3l1.2,2l-3,9.8h6.5l0.9,2.5l3.6-3.6l2-0.8   l-3,5.6l-4.8,7.5h-2l-1.7-0.8l-4.2,0.9l-8.1,3.7l-10.1,8.2l-5.3,7.3l-3,10.1l-0.8,3.7l-7.3,0.8l-7.9,2.3L1387.1,559.1z    M1463.7,518.4l4-3.9l5-4l2.3-0.9l0.3-3.1l-0.9-9.5l-2.3-3.6l-0.9-3l1.1-0.3l4.2,8.5l0.6,6.8l-0.3,5.3l-5.3,2.3l-4.4,3.7l-1.7,1.9   L1463.7,518.4z"
   style="fill:#cccccc;fill-opacity:1" />
	<path
   id="ND_1_"
   class="st3"
   d="M896.6,199.7l-0.6-9.6l-2.8-11.3l-2.8-21.1l-0.8-15.1l-3-4.9l-2.5-8.3v-16.2l0.9-6l-2.8-8.6   l-44.4-0.9l-28.9-0.9l-41.2-2l-39.2-3.4l-1.4,22.4l-7.3,79.1l88.3,6.1l88.4,2.6L896.6,199.7L896.6,199.7z"
   style="fill:#cccccc;fill-opacity:1" />
	<path
   id="NE_1_"
   class="st3"
   d="M895.5,320.7l-1.6-3.6l-0.8-2.5l-4.5-2.5l-7.5-2.3l-3.4-1.9l-4,0.2l-5.7,0.6l-6.5,1.9l-9.3-6.4   l-3.4-3.1l-16.6,0.9l-64.5-3.7l-55.3-3.4l-6.7,67.9L757,368l-2.2,32.8l33.7,1.6l63.1,1.9l68.1,0.9h7l-3.4-4.7l-4-6.1l0.2-3.6   l-2.2-4.2l-3-8.1l-0.6-10.4l-2.2-6.4l-0.8-7.8l-3.6-5.7l-1.6-7.3l-4.4-12.3l-1.6-8.2L895.5,320.7z"
   style="fill:#cccccc;fill-opacity:1" />
	<path
   id="NH_1_"
   class="st3"
   d="M1534.7,222.9l1.7-5l-4.2-1.9l-0.8-4.8l-6.4-1.7l-0.5-4.7l-18.2-58.2l-1.1,0.1l-0.9,2.5l-0.9-0.8   l-1.6-1.6l-2.3,3l-0.3,3.6l0.8,13.1l3,4.4v6.7l-6.1,7.5l-3.7,1.4v1.1l1.7,3V204l-1.2,14.3l-0.3,7.3l1.6,2.2l-0.3,7.3l-0.8,2.3   l1.6,1.7l7.9-1.9l21.4-5.4l2.6-4.5l6.2-3L1534.7,222.9z"
   style="fill:#cccccc;fill-opacity:1" />
	<path
   id="NJ_1_"
   class="st3"
   d="M1444.6,358l0.2-2.3l4.2-2l2.6-4.4l2.6-3.7l5.1-5v-1.9l-9.5-6.4l-1.6-4.2l-4.2-0.5l-0.2-1.4   l-1.1-3.4l3.4-1.7l0.3-4.5l-2-2l0.3-1.9l3-4.8v-4.8l3.9-4.8l8.7,3.9l9.9,3l3.9,1.9l0.2,2.8l-0.8,4.2l0.6,7l-3.3,3l-1.7,1.6l0.8,0.8   l4.2-0.5l1.7-1.2l2.5,5.3l0.3,14.6l0.9,1.7l-1.7,8.5L1473,365l-4.2,6.2l-1.2,7.5l-3.3,3.7h-1.2l-0.5-4.2l1.2-1.6l-0.3-2.3l-6.2-0.9   l-7.5-3.6l-5-4.5l-1.6-3.1L1444.6,358z"
   style="fill:#cccccc;fill-opacity:1" />
	<path
   id="NM_1_"
   class="st3"
   d="M584.6,670.5l-25.9-4l-1.9,14.9l-24.5-3.1l9.3-61.7l10.9-82.7l6.8-48l52.8,6.1l58.1,6.8l49.7,4.4   l-0.5,16.8l-2.2-0.2l-11.5,151.8l-44.1-2.8l-59.2-5.7l1.1,9.8L584.6,670.5z"
   style="fill:#cccccc;fill-opacity:1" />
	<path
   id="NV_1_"
   class="st3"
   d="M356,273l60.1,13.2l40.4,8.1L440,376.8l-8.4,46.3l-5.1,24.1l-3.3,17.2l-4,25.5l-2.6,4.8l-2.5-0.2   l-1.9-4l-4.4-0.8l-2-1.7l-2.8,0.2l-1.4,1.2l-2.8,2l-0.5,11.3l-0.5,2.3l-0.8,19.3l-1.7,2.8l-25.9-39.6L304,391l-19.3-29.5l13.3-50.7   l12.4-48.6L356,273z"
   style="fill:#cccccc;fill-opacity:1" />
	<path
   id="NY_1_"
   class="st3"
   d="M1475.2,314.1l0.8-4.2l-0.3-3.7l-4.7-2.3l-10.1-3.1l-9.3-4l-0.9-0.6l-4.2-0.5l-3.1-2.3l-3.3-9.2   l-5.1-0.8l-3.7-3.7l-59.7,12.6l-49.1,9.3l-0.8-10.1l2.5-1.9l2-1.7l1.6-2.5l2.8-1.7l3-2.8l0.8-2.5l3.3-4.2l1.7-1.6l-0.3-1.6l-2-4.8   l-2.8-0.3l-3-9.5l4.5-2.8l6.8-2.3l6.2-2l5-0.8l9.8-0.3l3,2l2.5,0.3l3.3-2l4-1.7l8.1-0.8l3.3-2.8l2.8-5l2.5-3h3.3l3-1.7l0.3-3.6   l-2.3-3.3l-0.5-2.3l1.7-3.3v-2.3h-2.8l-2.8-1.2l-1.2-1.7l-0.3-4l9-8.5l0.9-1.2l2.3-4.5l4.5-7l4.2-5.7l3.3-3.7l3.7-2.8l4.8-1.9   l8.5-2l5,0.3l7-2.3l11.5-3.4l1.1,7.6l3.7,10.1l1.2,7.8l-1.6,6.5l4,7l1.2,3.1l-1.4,5l5.7,2.6l4.2,15.8v9l-0.9,16.9l1.2,8.4l1.1,5.6   l2.3,11.3v12.6l-1.7,3.6l3.3,4.2l0.8,1.4l-3,2.8l0.5,2l2-0.5l2.3-2l3.6-4l1.7-0.9l2.5,0.9l3.6,0.3l12.3-6.1l4.5-4.2l2-2.3l6.5,2.5   l-5.3,5.6l-6.1,4.5l-11,8.2l-4,1.6l-9,3l-6.2,1.7l-1.6-0.6L1475.2,314.1z"
   style="fill:#cccccc;fill-opacity:1" />
	<path
   id="OH_1_"
   class="st3"
   d="M1196.1,331.5l2.6,24.1l7.5,63.9l6.1-0.3l3.6-1.2l5.6,2.8l2.6,6.5l8.4,0.2l2.8,3.1h2.6l3.7-2.2   l4.8,0.8l2.3,2l2.8-3.1l3.6-2.2l3.7-0.6l0.9,4.2l2.5,1.6l4,3.1l1.2,0.3l3.1-0.2l1.9-0.9V430l2.6-2.3l0.2-7.5l1.7-6.5l3-2l1.6,1.1   l1.6,1.7l1.1,0.3l0.6-0.6l-1.4-4.2v-3.4l1.7-2.2l3.9-5.6l2-2.3l3.4,0.8l3.3-2.3l4.7-5.1l3.4-5.7l0.3-8.4l0.8-7.8v-7.1l-1.9-5   l1.9-2.8l2-1.9l-0.9-4.4l-6.7-39.8l-9.6,5.7l-6.1,3.6l-5.3,5.7l-6.2,6.1l-5,1.2l-4.5,0.8l-8.5,4l-3.3,0.3l-5.3-4.8l-8.1,0.9l-4-2.3   l-3.4-2L1196.1,331.5z"
   style="fill:#cccccc;fill-opacity:1" />
	<path
   id="OK_1_"
   class="st3"
   d="M804.7,523.7l-2.8,37.8l-1.4,28l0.3,2.5l6.2,5.6l2.6,1.4h1.4l1.4-3.3l2.3,3l2.5,0.2l0.5-0.3   l0.3-1.7l4.4,2.2l-0.6,5.4l5.9,0.8l3.9,1.6l6.5,0.9l3.6,2.5l3.9-2.6l5.4,1.1l3.4,4.8l1.9,0.2v3.6l3.3,1.1l3.9-3.3l2.8,0.9l4.2,0.2   l1.1,3.6l6.8,2.8l2.6-0.5l3-6.5h2l1.7,3.3l6.5,1.2l5.3,2l4.7,1.2l2.5-1.1l1.1-4.2h7l3,1.4l4.2-3h2.2l0.9,2.2h5.6l3.1-2.8l3.6,0.9   l2.6,3.4l4.7,2.6l5.3,1.4l3,1.9l-0.5-58.4l-2.2-16.9l-0.2-13.4l-2.3-10.3l-0.9-10.6l0.2-6.7l-19.6,0.5l-71.9-0.8l-69.5-3.3   l-64.5-2.8L721,520L804.7,523.7z"
   style="fill:#cccccc;fill-opacity:1" />
	<path
   id="OR_1_"
   class="st3"
   d="M269.6,250.2l43.9,11.2l42.8,10.1l26.4,5.7l13.7-54.5l1.9-6.8l3.7-8.5l-1.1-2l-3.9,0.2l-2-2.8   l0.9-2.3l0.6-5.1l7.3-8.9l3-1.4l1.4-1.2l1.1-4.2l1.2-1.7l6.1-8.9l5.7-6.2l0.3-5.1l-5.3-3.9l-1.9-7.1l-20.4-6l-23.8-5.4l-23,0.6   l-1.7-2l-7.9,2.9l-7-0.7l-3.7-2.5l-2,0.8l-7.3-0.5l-3-2.2l-7.5-2.8l-1.7-0.1l-6.9-2l-2.7,2.4l-9.7-0.4l-8.3-6l0.3-14.4l-3.2-5.4   l-6.4-0.9l-1.1-3.9l-3.7-0.8l-9,3.3l-3.6,10.1l-5,15.5l-5,10.1l-7.8,21.9l-10.1,21.1l-12.6,19.6l-3,4.5l-1.2,13.4l-2,9.3l4.2,5.4   L269.6,250.2z"
   style="fill:#cccccc;fill-opacity:1" />
	<path
   id="PA_1_"
   class="st3"
   d="M1309.2,301.9l2-0.8l8.9-8.5l1.1,10.7l52-10.1l57.3-12.1l3.6,3.6l4.8,0.6l3.1,8.7l3.7,3l4.4,0.6   l0.2,0.2l-4,5v4.8l-3,4.8l-0.3,3l2,2l-0.3,3l-3.7,1.7l1.6,5.3l0.3,1.7l4.4,0.5l1.4,3.9l9.2,6.1v0.6l-4.8,4.7l-2.3,3.4l-2.6,4.4   l-4.2,1.9l-2.2,0.5l-3.3,2l-2.5,2.2l-34.8,6.7l-60.1,12.1l-17.6,2.2l-6.1,1.1l-7.9-34.8l-6.7-40.2L1309.2,301.9z"
   style="fill:#cccccc;fill-opacity:1" />
	<path
   id="RI_1_"
   class="st3"
   d="M1522.1,276.3l-1.2-6.8l-2.5-9.3l8.9-2.3l2.3,2l5.3,6.7l4.4,6.8l-4.4,2.2l-2-0.3l-1.7,2.8l-3.7,3   l-4.4,1.7L1522.1,276.3z"
   style="fill:#cccccc;fill-opacity:1" />
	<path
   id="SC_1_"
   class="st3"
   d="M1344,645.9l-3.3-1.6l-3-8.7l-3.9-3.6l-3.9-0.8l-2.3-7.1l-4.7-10.1l-6.5-2.8l-3-2.8l-1.9-4   l-3.7-3.1l-3.6-2l-3.4-4.5l-5-3.7l-6.8-2.6l-0.6-2.2l-3.6-4.4l-0.8-2.3l-5.9-8.4l-5.3,0.2l-6.1-3.9l-1.9-1.9l-0.3-2.2l0.9-2.5   l4.2-2l-1.2-3.1l9.9-4.2l14.3-7l11-1.4l25.5-0.8l3.6,3l2.8,5.4l7.1-1.2l19.6-2.3l4.2,1.2l19.4,11.5l15.7,12.9l-8.2,8.4l-4,9.5   l-0.8,9.8l-2.5,1.2l-1.7,4.2l-3.7,0.9l-3.3,5.6l-4.2,4.2l-3.6,5.3l-2.5,1.2l-5.6,5.3l-4.5,0.3l1.6,5l-7.8,8.2l-3.6,2.5L1344,645.9z   "
   style="fill:#cccccc;fill-opacity:1" />
	<path
   id="SD_1_"
   class="st3"
   d="M896.6,284.7l-1.4,5l0.6,4.7l4,3.1l-1.9,8.4l-2.8,6.4l2.3,5.1l1.1,1.7l-2,0.2l-1.1-2.5l-0.9-3.1   l-5.1-2.8l-7.5-2.3l-3.9-2l-4.5,0.2l-6.1,0.6l-5.9,1.9l-8.2-5.9l-4.2-3.7l-16.9,1.2l-64.5-3.7l-55.3-3.4l2.3-38.5l4.4-52.8l0.6-7.8   l88.4,6.1l88.4,2.6v4.2l-2,2.3l-3.1,2.3l-0.2,3.4l1.7,3.4l6.4,5.3l0.8,4.2v55.8L896.6,284.7z"
   style="fill:#cccccc;fill-opacity:1" />
	<path
   id="TN_1_"
   class="st3"
   d="M1207,562l-20.4,1.9l-36.2,3.4l-58.4,4.2l-18.3,0.6l1.4-0.9l1.4-7l-1.9-5.6l6.1-3.6l0.6-3.9   l1.9-6.7l4.7-14.8l0.8-8.7l0.5-0.3l19.1-0.3l21.1-1.2l0.2-6.1l5.4-0.2l47.2-5.1l83.9-8.1l16-2.3l11.8-0.3l3.7-3l2,0.5l-0.2,5.1   l-0.6,2.5l-3.7,3.4l-2.5,5.6l-3.1-0.6l-3.7,1.4l-3.4,5.1l-2.2-0.3l-1.2-1.9l-1.7,0.6l-6.7,6.2l-1.2,4.8l-6.5,3.4l-6.7,5.6l-5.9,2.3   l-6.8,4.4l-0.9,5.6l-3.9,0.8l-3.1,2.6l-0.3,7.5L1207,562z"
   style="fill:#cccccc;fill-opacity:1" />
	<path
   id="TX_1_"
   class="st3"
   d="M604.2,664.6l57.5,5.6l45.5,3l11.5-151.8l84.5,3.7l-2.6,36.2l-1.6,28l0.3,3.1l6.8,6.4l3.1,1.7h2.8   l0.8-1.9l1.1,1.4l3.7,0.3l1.7-0.9V599l1.6,0.8l-0.6,5.7l7,1.1l3.7,1.4l6.5,1.1l4,2.8l4.4-3l4.2,0.9l3.4,4.8l1.2,0.2v3.3l5.1,1.7   l3.9-3.3l2.3,0.8l3.3,0.2l0.9,3.3l8.1,3.1l3.6-0.8l3-6.2h0.2l1.7,3l7.1,1.4l5.3,2l5,1.6l3.7-1.9l1.1-3.6h5.6l3.3,1.6l4.7-3.1h0.6   l0.8,2.2h7.3l3-2.8l2,0.6l2.6,3.3l5.1,3l5.3,1.6l3.9,2.2l4.2,3.1l4.8-1.9l3.3,1.2l1.1,31.1l1.1,14.8l0.9,6.4l4,6.8l1.4,7l6.5,9.2   l0.5,4.8l0.9,1.2l-1.1,12l-4.5,7.5l2,4l-0.8,3.7l-1.2,11.2l-2,4.7l0.5,6.5l-8.7,2.5l-15.4,7l-1.6,3l-4,3l-3.3,2.3l-2,1.2l-8.9,8.2   l-4.2,3.3l-8.2,5l-8.9,3.7l-9.8,5.3l-2.8,2.3l-9,5.6l-5.3,0.9l-6.1,8.5l-6.2,0.5l-1.6,3l3.6,3l-2.3,8.5l-2,7l-1.7,6.1l-1.2,7   l1.2,3.7l2.8,10.9l1.6,9.5l2.8,4.2l-1.6,2.3l-4.8,3l-8.9-6.1l-8.5-1.7l-2,0.8l-5-0.9l-6.5-4.8l-8.1-1.7l-11.8-5.3l-3.3-6.1l-2-10.1   l-5-3l-0.9-3.6l0.9-0.9l0.5-5.3l-2-0.9l-0.9-1.6l2-6.8l-2.5-3.6l-5-2l-5.3-6.8l-5.6-10.3l-6.5-4l0.3-3l-8.2-19.1l-1.2-6.5l-2.8-3   l-0.3-2.3l-9.3-8.2l-4-4.8v-1.7l-4-3.3l-10.6-1.7l-11.5-0.9l-4.8-3.6l-7,2.8l-5.6,2.3l-3.6,5l-1.6,5.7l-6.8,9.5l-3.7,3.7l-4-1.6   l-2.8-1.7l-3-0.9l-6.1-3.6V769l-2.8-3l-8.1-3.3l-11.5-12.1l-3.6-7.3v-12.6l-5-10.1l-0.8-4.2l-2.5-1.6l-1.7-3.3l-7.8-3.3l-2-2.5   l-11-12.3l-2-5l-7.3-3.6l-2.3-6.8l-4-4.5l-2.6-0.8L604.2,664.6z M875.1,884.7l-0.9-11l-4.2-11.2l-0.9-10.9l2.3-12.7l5.1-10.7   l5.4-8.4l5-5.6l0.9,0.3l-7.5,10.3l-6.8,10.1l-3.1,10.3l-0.5,8.1l1.4,9.5l4,11.2l0.8,8.1l0.3,2.3L875.1,884.7z"
   style="fill:#cccccc;fill-opacity:1" />
	<path
   id="UT_1_"
   class="st3"
   d="M519.6,478.6l38.2,5.6l3-21.3l10.9-78.5l3.6-34.2l-50-5.4l3.4-20.4l2.8-16.5l-53.9-9.5l-19.4-3.9   l-16.5,82.2l-8.4,46.6l-5.1,23.9l-2.6,14.3L519.6,478.6z"
   style="fill:#cccccc;fill-opacity:1" />
	<path
   id="VA_1_"
   class="st3"
   d="M1461.7,415.4l-0.3,4.4l-4.5,5.9l-0.6,7.1l0.8,5.3l-2.8,7.8l-3.4,3l-2.3-7.1l0.6-8.4l2.5-6.5   l1.1-5.1l-0.2-2.6L1461.7,415.4z M1368,484.7l-60,8.7l-7.5-0.2l-3.4-0.5l-3.9,3l-11.3,0.2l-16,2.5l-10.4,0.9l6.4-4l6.4-3.6v-3.3   l8.9-11.3l6.4-5.7l3.4-3.9l5.6,6.7l5.9,1.4l4.2-1.6l3.1-2.3l3.7,1.9l7.1-2l2.6-6.8l3.7,1.1l5-3.6l2.5,0.6l4.4-5l0.3-4.2l-1.2-1.9   l7.5-16.3l2.8-8.1l0.8-7.3l1.1-0.3l1.7,2.6l2.3,1.9l6.1-0.3l2.6-12.6l4.7-0.9l1.2-4l4.4-3.4l1.7-3.3l2.8-6.7l0.2-7.1l5.6,2.2   l10.3,4.8l0.5-8.1l5.3,1.9l-0.9,4.5l13.4,4.8l2.2,2.8l-1.2,5.1l-2,2l-0.8,2.6l0.8,3.7l3.1,2l6.1,2.2l4.5,1.6l7.6,1.4l3.4,3.3l5,0.6   l1.4,1.9l-0.6,7.3l2.2,1.7l-0.8,3l1.9,1.2l-0.3,2.2l-4.2-0.2l0.2,2.5l3.6,2.3l0.2,2.2l2.8,2.8l0.8,3.9l-4,2.2l2.5,2.3l9-2.6   l5.7,9.6L1368,484.7z"
   style="fill:#cccccc;fill-opacity:1" />
	<path
   id="VT_1_"
   class="st3"
   d="M1458.5,176.2l3.7,10.1l1.2,8.2l-1.6,6.1l3.9,6.8l1.4,3.6l-1.1,4l5.1,2.3l4.5,16.8v8.2l17.9-3.3   l-1.6-1.7l0.9-3l0.3-6.7l-1.6-2.2l0.3-7.3l1.2-14.4v-13.2l-1.7-2.8v-2.5l4.4-1.7l5.4-6.8v-5.6l-3-4.2l-0.5-9l-40.6,10.5   L1458.5,176.2z"
   style="fill:#cccccc;fill-opacity:1" />
	<path
   id="WA_1_"
   class="st3"
   d="M280.5,108.5l-3.6-6.7l-6.4-1.1L270,97l-3.9-0.9l-4.5-0.8l-2.8,1.6l-3.6-4.5l0.5-4.5l4.2-0.5   l2.5-6.2l-4-1.7l0.3-5.7l6.8-0.9l-4.2-4.2l-2.3-11l0.9-4.5V40.8l-2.8-5l3.6-14.6L264,22l3.7,4.5l4.2,4l5,3l7,3.3l4.8,0.9l4.5,2.3   l5.3,1.6l3.6-0.3v-3.7l2-1.7l3.3-2l0.5,1.7l0.5,2.8l-3.6,0.8l-0.5,3.3l2.8,2.3l1.7,3.7l0.9,3l2.3-0.3l0.3-2l-1.6-2l-0.8-5l1.2-2.8   l-0.9-2.3v-4l2.8-5.6l-1.7-4l-3.7-7.5l0.5-1.2l2.2-1.2l6.8,2.3l15.1,4.2l13.4,3l31.1,8.9l35.7,8.9l23.3,5.4l-7.5,27.3l-7,32.4   l-5.3,25.2l-0.6,14.3l0,0l-20-5.8l-23.8-5.4l-22.5,0.5l-1.7-2.4l-8.9,3.2l-6.1-0.7l-4-2.8l-2.6,1l-6.4-0.4l-2.7-2.1l-8-2.8   l-1.8-0.2l-7.5-2.2l-3,2.6l-8.8-0.4l-7.2-5.2L280.5,108.5z M295.4,22.4l3.1-0.3l0.8,2.2l2.3-2.5h3.6l1.2,2.3l-2.3,2.6l0.9,1.2   l-1.1,3.1l-2.2,0.6c0,0-1.4,0.2-1.4-0.3s2.3-4,2.3-4l-2.6-0.9l-0.5,2.3l-1.1,0.9l-2.3-3.6L295.4,22.4z"
   style="fill:#cccccc;fill-opacity:1" />
	<path
   id="WI_1_"
   class="st3"
   d="M1005.9,174.1l4.5,0.8l4.5-0.9l11.5-5l4.5-3l3.3-1.2l3,2.3l-1.7,1.7l-3,4.8l-0.9,3l1.6,0.9l2.8-1.6   l1.7-0.3l4.2,1.2l0.9,1.7l1.7,0.3l0.9-1.7l6.2,8.2l12.7,1.9l12.7,3.4l4,1.7l19.1,4l2.5,3.6l5.6,1.9l2.6,15.8l2.5,2.2l2.3,1.4   l-1.7,3.6l-2.8,2.5l-3.3,7.3l-2,3.7l0.3,2.8l2.3,0.5l1.7-3l2.3-1.2l1.2-3.6l3-2.8l4.2-6.2l6.5-9.8l1.2-0.8l0.5,1.6l-0.3,3.6   l-4.5,10.6l-4.2,8.9l-0.8,5l-0.9,4l1.2,2l-0.3,4.2l-3,3.7l-0.8,2.8l0.9,5.6l0.9,5.3l-2.3,4l-1.2,4.5l-1.6,4.8l1.7,3.7l0.9,9.5   l2.5,7l-0.3,4.7l-24.7,2.8l-27.2,1.6h-19.7l-1.1-2.3l-4.5-0.6l-4-2l-3.6-5.7l-0.5-5.6l3.1-4.5l-0.8-2.2l-3.3-3.4l-1.2-5.1   l-0.9-10.6l-3.3-3.9l-10.9-7l-5.9-8.4l-5.3-1.6l-3.4-4.4h-5l-4.5-5.1l-0.8-10.1l0.2-5.9l2.3-4.8l-1.2-5l-3.9-4.4l2.8-8.4l8.1-5.9   l2.5-3l-0.3-12.6l0.3-4.4l3.7-4.4L1005.9,174.1z"
   style="fill:#cccccc;fill-opacity:1" />
	<path
   id="WV_1_"
   class="st3"
   d="M1343.9,398.4l9-9.3l4-1.2l2.5-2.3l2.3-3.4l1.7,0.5l4.8-0.3l7.1-5.6l2.3-0.8l2,1.6l4,1.9l4.7,4.7   l-0.6,6.7l-8.4-4l-7.5-2.8l-0.2,9.2l-4,8.9l-4.5,3.7l-1.2,3.6l-4.7,0.8l-2.6,12.6l-4.4,0.3l-1.7-1.6l-1.9-3.1l-3.4,0.8l-0.8,7.9   l-2.8,7.9l-7.8,17.1l1.4,2.2l-0.2,3.1l-3.4,3.9l-2.5-0.6l-4.8,3.6l-4.4-1.2l-2.8,7.6l-5.9,1.6l-3.9-2l-3.9,3l-3.6,1.1l-5-1.2   l-5.9-7l-5.4-3.4l-3.9-3.9l-4.5-5.7l-0.8-3.6l-4.4-2.6l-0.9-2l-0.3-8.7l0.5,0.2l3.7-0.3l2.8-1.6v-3.4l2.6-2.3l0.2-8.1l1.4-5.6   l1.7-1.1l0.6,0.5l1.6,1.7l2.6,0.8l1.7-2l-1.6-4.8v-2.5l4.8-7.1l1.9-2l3.1,0.8l4-2.8l4.8-5.3l3.7-6.4l0.3-8.7l0.8-7.5v-7.6l-1.7-4.7   l1.4-2l1.2-1.1l6.7,30l6.7-1.2l17.4-2L1343.9,398.4z"
   style="fill:#cccccc;fill-opacity:1" />
	<path
   id="WY_1_"
   class="st3"
   d="M713.2,254.9l-2.3,39.5l-6.8,68.4l-4.2-0.5l-129.4-14.1l-43.3-4.7l3.1-18.6l10.7-63.7l5.9-37.6   l2-17.4l74.9,10.9l91.8,10.1L713.2,254.9z"
   style="fill:#cccccc;fill-opacity:1" />
</g>


<g
   inkscape:groupmode="layer"
   id="layer2"
   inkscape:label="text"
   style="display:none"><path
     d="m 105.7,840.3 h 3.3 l 5.1,15.7 h -2.9 l -2.4,-8.4 c -0.5,-1.7 -1,-3.5 -1.4,-5.2 h -0.1 c -0.4,1.7 -0.9,3.5 -1.4,5.2 l -2.4,8.4 h -2.8 z m -2.1,9.2 h 7.4 v 2.2 h -7.4 z"
     id="path1072"
     inkscape:connector-curvature="0" /><path
     d="m 114.3,844.2 h 2.8 l 1.9,6.1 c 0.3,1.2 0.7,2.4 1,3.6 h 0.1 c 0.3,-1.2 0.7,-2.4 1,-3.6 l 1.9,-6.1 h 2.7 l -4,11.8 h -3.2 z"
     id="path1074"
     inkscape:connector-curvature="0" /><path
     d="m 126.9,850.1 c 0,-3.8 2.7,-6.2 5.4,-6.2 3.2,0 4.9,2.3 4.9,5.6 0,0.5 -0.1,1.1 -0.1,1.3 h -7.5 c 0.2,2.1 1.6,3.3 3.5,3.3 1,0 1.9,-0.3 2.7,-0.9 l 0.9,1.7 c -1.1,0.8 -2.5,1.3 -4,1.3 -3.3,0 -5.8,-2.2 -5.8,-6.1 z m 7.9,-1.2 c 0,-1.8 -0.8,-2.9 -2.4,-2.9 -1.4,0 -2.6,1 -2.8,2.9 z"
     id="path1076"
     inkscape:connector-curvature="0" /><path
     d="m 139.8,844.2 h 2.3 l 0.2,2.1 h 0.1 c 0.8,-1.5 2.1,-2.4 3.4,-2.4 0.6,0 1,0.1 1.3,0.2 l -0.5,2.4 c -0.4,-0.1 -0.7,-0.2 -1.2,-0.2 -0.9,0 -2.1,0.6 -2.8,2.4 v 7.2 h -2.8 z"
     id="path1078"
     inkscape:connector-curvature="0" /><path
     d="m 148.1,852.8 c 0,-2.5 2.1,-3.8 6.9,-4.4 0,-1.3 -0.5,-2.3 -2.1,-2.3 -1.2,0 -2.3,0.5 -3.3,1.2 l -1,-1.8 c 1.3,-0.8 3,-1.5 4.8,-1.5 2.9,0 4.4,1.8 4.4,5.1 v 7 h -2.3 l -0.2,-1.3 h -0.1 c -1.1,0.9 -2.3,1.6 -3.7,1.6 -1.9,-0.2 -3.4,-1.6 -3.4,-3.6 z m 7,0 v -2.7 c -3.2,0.4 -4.3,1.2 -4.3,2.4 0,1 0.7,1.5 1.7,1.5 1,0.1 1.7,-0.4 2.6,-1.2 z"
     id="path1080"
     inkscape:connector-curvature="0" /><path
     d="m 160.3,858.1 c 0,-1 0.6,-1.9 1.7,-2.5 v -0.1 c -0.6,-0.4 -1.1,-1 -1.1,-2 0,-0.9 0.6,-1.7 1.3,-2.2 v -0.1 c -0.8,-0.6 -1.6,-1.7 -1.6,-3.1 0,-2.7 2.2,-4.2 4.7,-4.2 0.7,0 1.3,0.1 1.7,0.3 h 4.2 v 2.1 H 169 c 0.4,0.4 0.7,1.2 0.7,2 0,2.6 -2,4 -4.5,4 -0.5,0 -1.1,-0.1 -1.6,-0.3 -0.4,0.3 -0.6,0.6 -0.6,1.1 0,0.7 0.5,1.1 1.9,1.1 h 2.1 c 2.8,0 4.3,0.9 4.3,2.9 0,2.3 -2.4,4.2 -6.3,4.2 -2.6,-0.1 -4.7,-1.1 -4.7,-3.2 z m 8.6,-0.6 c 0,-0.9 -0.7,-1.2 -2.1,-1.2 h -1.6 c -0.6,0 -1.1,0 -1.6,-0.2 -0.6,0.5 -0.9,1 -0.9,1.6 0,1.1 1.2,1.7 3,1.7 1.9,0 3.2,-0.9 3.2,-1.9 z m -1.5,-9.4 c 0,-1.5 -0.9,-2.3 -2,-2.3 -1.2,0 -2,0.8 -2,2.3 0,1.5 0.9,2.4 2,2.4 1.1,0 2,-0.9 2,-2.4 z"
     id="path1082"
     inkscape:connector-curvature="0" /><path
     d="m 172.8,850.1 c 0,-3.8 2.7,-6.2 5.4,-6.2 3.2,0 4.9,2.3 4.9,5.6 0,0.5 -0.1,1.1 -0.1,1.3 h -7.5 c 0.2,2.1 1.6,3.3 3.5,3.3 1,0 1.9,-0.3 2.7,-0.9 l 0.9,1.7 c -1.1,0.8 -2.5,1.3 -4,1.3 -3.2,0 -5.8,-2.2 -5.8,-6.1 z m 8,-1.2 c 0,-1.8 -0.8,-2.9 -2.4,-2.9 -1.4,0 -2.6,1 -2.8,2.9 z"
     id="path1084"
     inkscape:connector-curvature="0" /><path
     d="m 190,848 c 0,-5.1 2.8,-8.1 6.9,-8.1 4.1,0 6.9,3 6.9,8.1 0,5.1 -2.8,8.2 -6.9,8.2 -4.1,0 -6.9,-3.1 -6.9,-8.2 z m 11,0 c 0,-3.5 -1.6,-5.7 -4.1,-5.7 -2.5,0 -4.1,2.1 -4.1,5.7 0,3.6 1.6,5.8 4.1,5.8 2.5,0 4.1,-2.2 4.1,-5.8 z"
     id="path1086"
     inkscape:connector-curvature="0" /><path
     d="m 206.8,844.2 h 2.3 l 0.2,2.1 h 0.1 c 0.8,-1.5 2.1,-2.4 3.4,-2.4 0.6,0 1,0.1 1.3,0.2 l -0.5,2.4 c -0.4,-0.1 -0.7,-0.2 -1.2,-0.2 -0.9,0 -2.1,0.6 -2.8,2.4 v 7.2 h -2.8 z"
     id="path1088"
     inkscape:connector-curvature="0" /><path
     d="m 215,850.1 c 0,-3.8 2.4,-6.2 5,-6.2 1.3,0 2.2,0.5 3.1,1.3 L 223,843.3 V 839 h 2.8 v 17 h -2.3 l -0.2,-1.3 h -0.1 c -0.9,0.9 -2.1,1.6 -3.4,1.6 -2.9,-0.1 -4.8,-2.3 -4.8,-6.2 z m 8,2.5 v -5.5 c -0.8,-0.7 -1.6,-1 -2.4,-1 -1.5,0 -2.7,1.4 -2.7,3.9 0,2.6 1,3.9 2.7,3.9 0.8,0.1 1.6,-0.3 2.4,-1.3 z"
     id="path1090"
     inkscape:connector-curvature="0" /><path
     d="m 228.5,850.1 c 0,-3.8 2.7,-6.2 5.4,-6.2 3.2,0 4.9,2.3 4.9,5.6 0,0.5 -0.1,1.1 -0.1,1.3 h -7.5 c 0.2,2.1 1.6,3.3 3.5,3.3 1,0 1.9,-0.3 2.7,-0.9 l 0.9,1.7 c -1.1,0.8 -2.5,1.3 -4,1.3 -3.3,0 -5.8,-2.2 -5.8,-6.1 z m 7.9,-1.2 c 0,-1.8 -0.8,-2.9 -2.4,-2.9 -1.4,0 -2.6,1 -2.8,2.9 z"
     id="path1092"
     inkscape:connector-curvature="0" /><path
     d="m 241.4,844.2 h 2.3 l 0.2,2.1 h 0.1 c 0.8,-1.5 2.1,-2.4 3.4,-2.4 0.6,0 1,0.1 1.3,0.2 l -0.5,2.4 c -0.4,-0.1 -0.7,-0.2 -1.2,-0.2 -0.9,0 -2.1,0.6 -2.8,2.4 v 7.2 h -2.8 z"
     id="path1094"
     inkscape:connector-curvature="0" /><path
     d="m 255.4,840.3 h 4.9 c 3.5,0 6.1,1.2 6.1,4.8 0,3.5 -2.6,5.1 -6,5.1 h -2.3 v 5.8 h -2.8 v -15.7 z m 4.8,7.7 c 2.3,0 3.5,-0.9 3.5,-2.9 0,-1.9 -1.2,-2.6 -3.6,-2.6 h -1.9 v 5.5 z"
     id="path1096"
     inkscape:connector-curvature="0" /><path
     d="m 269.1,844.2 h 2.3 l 0.2,2.1 h 0.1 c 0.8,-1.5 2.1,-2.4 3.4,-2.4 0.6,0 1,0.1 1.3,0.2 l -0.5,2.4 c -0.4,-0.1 -0.7,-0.2 -1.2,-0.2 -0.9,0 -2.1,0.6 -2.8,2.4 v 7.2 h -2.8 z"
     id="path1098"
     inkscape:connector-curvature="0" /><path
     d="m 277.8,840.5 c 0,-0.9 0.7,-1.6 1.7,-1.6 1,0 1.7,0.6 1.7,1.6 0,0.9 -0.7,1.6 -1.7,1.6 -1,0 -1.7,-0.7 -1.7,-1.6 z m 0.3,3.7 h 2.8 V 856 h -2.8 z"
     id="path1100"
     inkscape:connector-curvature="0" /><path
     d="m 283.6,850.1 c 0,-3.9 2.8,-6.2 5.9,-6.2 1.5,0 2.6,0.6 3.4,1.3 l -1.3,1.8 c -0.6,-0.5 -1.2,-0.9 -2,-0.9 -1.9,0 -3.2,1.6 -3.2,3.9 0,2.4 1.3,3.9 3.1,3.9 0.9,0 1.8,-0.5 2.4,-1 l 1.1,1.8 c -1.1,1 -2.5,1.5 -3.8,1.5 -3.1,0 -5.6,-2.2 -5.6,-6.1 z"
     id="path1102"
     inkscape:connector-curvature="0" /><path
     d="m 294.7,850.1 c 0,-3.8 2.7,-6.2 5.4,-6.2 3.2,0 4.9,2.3 4.9,5.6 0,0.5 -0.1,1.1 -0.1,1.3 h -7.5 c 0.2,2.1 1.6,3.3 3.5,3.3 1,0 1.9,-0.3 2.7,-0.9 l 0.9,1.7 c -1.1,0.8 -2.5,1.3 -4,1.3 -3.3,0 -5.8,-2.2 -5.8,-6.1 z m 7.9,-1.2 c 0,-1.8 -0.8,-2.9 -2.4,-2.9 -1.4,0 -2.6,1 -2.8,2.9 z"
     id="path1104"
     inkscape:connector-curvature="0" /><path
     d="m 307.4,846.2 c 0,-1.1 0.8,-1.9 1.8,-1.9 1,0 1.8,0.8 1.8,1.9 0,1.1 -0.8,1.9 -1.8,1.9 -1,-0.1 -1.8,-0.9 -1.8,-1.9 z m 0,8.2 c 0,-1.1 0.8,-1.9 1.8,-1.9 1,0 1.8,0.8 1.8,1.9 0,1.1 -0.8,1.9 -1.8,1.9 -1,-0.1 -1.8,-0.9 -1.8,-1.9 z"
     id="path1106"
     inkscape:connector-curvature="0" /><path
     d="m 318.3,854.4 1.2,-1.9 c 1.1,0.9 2.3,1.5 3.6,1.5 1.6,0 2.3,-0.8 2.3,-2.1 0,-3.2 -6.5,-2.7 -6.5,-7.2 0,-2.6 1.8,-4.3 4.6,-4.3 2,0 3.3,0.8 4.3,1.9 l -1.4,1.6 c -0.9,-0.8 -1.6,-1.3 -2.8,-1.3 -1.3,0 -2.1,0.7 -2.1,1.9 0,2.9 6.5,2.3 6.5,7.2 0,2.7 -1.8,4.5 -5,4.5 -1.5,0 -3.4,-0.7 -4.7,-1.8 z m 4.2,-16.4 h 1.9 v 3.3 h -1.9 z m 0,17.2 h 1.9 v 3.4 h -1.9 z"
     id="path1108"
     inkscape:connector-curvature="0" /><path
     d="m 330.7,854.5 1.5,-1.7 c 0.6,0.7 1.5,1.2 2.4,1.2 2,0 3.6,-1.5 3.6,-6.1 0,-3.8 -1.2,-5.3 -2.9,-5.3 -1.3,0 -2.3,1 -2.3,2.9 0,1.8 0.9,2.7 2.4,2.7 0.9,0 2,-0.5 2.8,-1.9 l 0.1,1.9 c -0.9,1.2 -2.3,2 -3.4,2 -2.6,0 -4.5,-1.5 -4.5,-4.7 0,-3.1 2.2,-5 4.8,-5 3,0 5.5,2.3 5.5,7.5 0,5.9 -2.9,8.4 -6,8.4 -1.8,-0.2 -3.1,-0.9 -4,-1.9 z"
     id="path1110"
     inkscape:connector-curvature="0" /><path
     d="m 343,854.5 1.5,-1.7 c 0.6,0.7 1.5,1.2 2.4,1.2 2,0 3.6,-1.5 3.6,-6.1 0,-3.8 -1.2,-5.3 -2.9,-5.3 -1.3,0 -2.3,1 -2.3,2.9 0,1.8 0.9,2.7 2.4,2.7 0.9,0 2,-0.5 2.8,-1.9 l 0.1,1.9 c -0.9,1.2 -2.3,2 -3.4,2 -2.6,0 -4.5,-1.5 -4.5,-4.7 0,-3.1 2.2,-5 4.8,-5 3,0 5.5,2.3 5.5,7.5 0,5.9 -2.9,8.4 -6,8.4 -1.7,-0.2 -3.1,-0.9 -4,-1.9 z"
     id="path1112"
     inkscape:connector-curvature="0" /><path
     d="m 355.3,854.5 1.5,-1.7 c 0.6,0.7 1.5,1.2 2.4,1.2 2,0 3.6,-1.5 3.6,-6.1 0,-3.8 -1.2,-5.3 -2.9,-5.3 -1.3,0 -2.3,1 -2.3,2.9 0,1.8 0.9,2.7 2.4,2.7 0.9,0 2,-0.5 2.8,-1.9 l 0.1,1.9 c -0.9,1.2 -2.3,2 -3.4,2 -2.6,0 -4.5,-1.5 -4.5,-4.7 0,-3.1 2.2,-5 4.8,-5 3,0 5.5,2.3 5.5,7.5 0,5.9 -2.9,8.4 -6,8.4 -1.7,-0.2 -3.1,-0.9 -4,-1.9 z"
     id="path1114"
     inkscape:connector-curvature="0" /><path
     d="m 368,854.4 c 0,-1.1 0.8,-1.9 1.8,-1.9 1,0 1.8,0.8 1.8,1.9 0,1.1 -0.8,1.9 -1.8,1.9 -1,-0.1 -1.8,-0.9 -1.8,-1.9 z"
     id="path1116"
     inkscape:connector-curvature="0" /><path
     d="m 374.2,854.5 1.5,-1.7 c 0.6,0.7 1.5,1.2 2.4,1.2 2,0 3.6,-1.5 3.6,-6.1 0,-3.8 -1.2,-5.3 -2.9,-5.3 -1.3,0 -2.3,1 -2.3,2.9 0,1.8 0.9,2.7 2.4,2.7 0.9,0 2,-0.5 2.8,-1.9 l 0.1,1.9 c -0.9,1.2 -2.3,2 -3.4,2 -2.6,0 -4.5,-1.5 -4.5,-4.7 0,-3.1 2.2,-5 4.8,-5 3,0 5.5,2.3 5.5,7.5 0,5.9 -2.9,8.4 -6,8.4 -1.7,-0.2 -3.1,-0.9 -4,-1.9 z"
     id="path1118"
     inkscape:connector-curvature="0" /><path
     d="m 386.5,854.5 1.5,-1.7 c 0.6,0.7 1.5,1.2 2.4,1.2 2,0 3.6,-1.5 3.6,-6.1 0,-3.8 -1.2,-5.3 -2.9,-5.3 -1.3,0 -2.3,1 -2.3,2.9 0,1.8 0.9,2.7 2.4,2.7 0.9,0 2,-0.5 2.8,-1.9 l 0.1,1.9 c -0.9,1.2 -2.3,2 -3.4,2 -2.6,0 -4.5,-1.5 -4.5,-4.7 0,-3.1 2.2,-5 4.8,-5 3,0 5.5,2.3 5.5,7.5 0,5.9 -2.9,8.4 -6,8.4 -1.7,-0.2 -3.1,-0.9 -4,-1.9 z"
     id="path1120"
     inkscape:connector-curvature="0" /><g
     id="g1170">
	<g
   id="g1168">
		<path
   d="m 101,889.8 c 0,-5.1 2.8,-8.1 6.9,-8.1 4.1,0 6.9,3 6.9,8.1 0,5.1 -2.8,8.2 -6.9,8.2 -4.1,0 -6.9,-3.1 -6.9,-8.2 z m 11,0 c 0,-3.5 -1.6,-5.7 -4.1,-5.7 -2.5,0 -4.1,2.1 -4.1,5.7 0,3.6 1.6,5.8 4.1,5.8 2.5,0 4.1,-2.2 4.1,-5.8 z"
   id="path1126"
   inkscape:connector-curvature="0" />
		<path
   d="m 117.7,886 h 2.3 l 0.2,2.1 h 0.1 c 0.8,-1.5 2.1,-2.4 3.4,-2.4 0.6,0 1,0.1 1.3,0.2 l -0.5,2.4 c -0.4,-0.1 -0.7,-0.2 -1.2,-0.2 -0.9,0 -2.1,0.6 -2.8,2.4 v 7.2 h -2.8 z"
   id="path1128"
   inkscape:connector-curvature="0" />
		<path
   d="m 126,891.9 c 0,-3.8 2.4,-6.2 5,-6.2 1.3,0 2.2,0.5 3.1,1.3 l -0.1,-1.9 v -4.3 h 2.8 v 17 h -2.3 l -0.2,-1.3 h -0.1 c -0.9,0.9 -2.1,1.6 -3.4,1.6 -2.9,-0.1 -4.8,-2.3 -4.8,-6.2 z m 8,2.5 v -5.5 c -0.8,-0.7 -1.6,-1 -2.4,-1 -1.5,0 -2.7,1.4 -2.7,3.9 0,2.6 1,3.9 2.7,3.9 0.8,0.1 1.6,-0.3 2.4,-1.3 z"
   id="path1130"
   inkscape:connector-curvature="0" />
		<path
   d="m 139.5,891.9 c 0,-3.8 2.7,-6.2 5.4,-6.2 3.2,0 4.9,2.3 4.9,5.6 0,0.5 -0.1,1.1 -0.1,1.3 h -7.5 c 0.2,2.1 1.6,3.3 3.5,3.3 1,0 1.9,-0.3 2.7,-0.9 l 0.9,1.7 c -1.1,0.8 -2.5,1.3 -4,1.3 -3.3,0 -5.8,-2.2 -5.8,-6.1 z m 7.9,-1.2 c 0,-1.8 -0.8,-2.9 -2.4,-2.9 -1.4,0 -2.6,1 -2.8,2.9 z"
   id="path1132"
   inkscape:connector-curvature="0" />
		<path
   d="m 152.4,886 h 2.3 l 0.2,2.1 h 0.1 c 0.8,-1.5 2.1,-2.4 3.4,-2.4 0.6,0 1,0.1 1.3,0.2 l -0.5,2.4 c -0.4,-0.1 -0.7,-0.2 -1.2,-0.2 -0.9,0 -2.1,0.6 -2.8,2.4 v 7.2 h -2.8 z"
   id="path1134"
   inkscape:connector-curvature="0" />
		<path
   d="m 160.2,896.4 1.3,-1.8 c 1,0.8 2.1,1.3 3.3,1.3 1.3,0 1.9,-0.6 1.9,-1.4 0,-1 -1.3,-1.4 -2.5,-1.9 -1.5,-0.6 -3.3,-1.5 -3.3,-3.4 0,-2 1.7,-3.5 4.3,-3.5 1.6,0 3,0.7 3.9,1.4 l -1.3,1.7 c -0.8,-0.6 -1.7,-1 -2.6,-1 -1.2,0 -1.7,0.6 -1.7,1.3 0,0.9 1.2,1.3 2.5,1.8 1.6,0.6 3.4,1.4 3.4,3.6 0,2 -1.6,3.7 -4.6,3.7 -1.8,-0.2 -3.5,-0.9 -4.6,-1.8 z"
   id="path1136"
   inkscape:connector-curvature="0" />
		<path
   d="m 179.9,884.4 h -4.5 v -2.3 h 11.8 v 2.3 h -4.5 v 13.4 h -2.8 z"
   id="path1138"
   inkscape:connector-curvature="0" />
		<path
   d="m 188.8,891.9 c 0,-3.9 2.7,-6.2 5.6,-6.2 2.9,0 5.6,2.3 5.6,6.2 0,3.9 -2.7,6.2 -5.6,6.2 -2.9,-0.1 -5.6,-2.3 -5.6,-6.2 z m 8.4,0 c 0,-2.4 -1,-3.9 -2.8,-3.9 -1.7,0 -2.8,1.6 -2.8,3.9 0,2.4 1,3.9 2.8,3.9 1.8,0 2.8,-1.6 2.8,-3.9 z"
   id="path1140"
   inkscape:connector-curvature="0" />
		<path
   d="m 202.1,891.9 c 0,-3.8 2.4,-6.2 5,-6.2 1.3,0 2.2,0.5 3.1,1.3 l -0.1,-1.9 v -4.3 h 2.8 v 17 h -2.3 l -0.2,-1.3 h -0.1 c -0.9,0.9 -2.1,1.6 -3.4,1.6 -2.9,-0.1 -4.8,-2.3 -4.8,-6.2 z m 7.9,2.5 v -5.5 c -0.8,-0.7 -1.6,-1 -2.4,-1 -1.5,0 -2.7,1.4 -2.7,3.9 0,2.6 1,3.9 2.7,3.9 0.9,0.1 1.7,-0.3 2.4,-1.3 z"
   id="path1142"
   inkscape:connector-curvature="0" />
		<path
   d="m 215.7,894.6 c 0,-2.5 2.1,-3.8 6.9,-4.4 0,-1.3 -0.5,-2.3 -2.1,-2.3 -1.2,0 -2.3,0.5 -3.3,1.2 l -1,-1.8 c 1.3,-0.8 3,-1.5 4.8,-1.5 2.9,0 4.4,1.8 4.4,5.1 v 7 h -2.3 l -0.2,-1.3 h -0.1 c -1.1,0.9 -2.3,1.6 -3.7,1.6 -2,-0.2 -3.4,-1.6 -3.4,-3.6 z m 6.9,0 v -2.7 c -3.2,0.4 -4.3,1.2 -4.3,2.4 0,1 0.7,1.5 1.7,1.5 1,0.1 1.7,-0.4 2.6,-1.2 z"
   id="path1144"
   inkscape:connector-curvature="0" />
		<path
   d="m 227.9,902.4 0.5,-2.1 c 0.2,0.1 0.6,0.2 0.8,0.2 1.2,0 2,-0.8 2.4,-2 l 0.2,-0.7 -4.6,-11.6 h 2.8 l 2,5.8 c 0.4,1 0.7,2.2 1,3.3 h 0.1 c 0.3,-1.1 0.6,-2.3 0.9,-3.3 l 1.8,-5.8 h 2.7 l -4.3,12.3 c -1,2.7 -2.2,4.3 -4.8,4.3 -0.6,-0.2 -1,-0.3 -1.5,-0.4 z"
   id="path1146"
   inkscape:connector-curvature="0" />
		<path
   d="m 240.3,888 c 0,-1.1 0.8,-1.9 1.8,-1.9 1,0 1.8,0.8 1.8,1.9 0,1.1 -0.8,1.9 -1.8,1.9 -1,-0.1 -1.8,-0.9 -1.8,-1.9 z m 0,8.2 c 0,-1.1 0.8,-1.9 1.8,-1.9 1,0 1.8,0.8 1.8,1.9 0,1.1 -0.8,1.9 -1.8,1.9 -1,-0.1 -1.8,-0.9 -1.8,-1.9 z"
   id="path1148"
   inkscape:connector-curvature="0" />
		<path
   d="m 251.4,896.3 1.5,-1.7 c 0.6,0.7 1.5,1.2 2.4,1.2 2,0 3.6,-1.5 3.6,-6.1 0,-3.8 -1.2,-5.3 -2.9,-5.3 -1.3,0 -2.3,1 -2.3,2.9 0,1.8 0.9,2.7 2.4,2.7 0.9,0 2,-0.5 2.8,-1.9 l 0.1,1.9 c -0.9,1.2 -2.3,2 -3.4,2 -2.6,0 -4.5,-1.5 -4.5,-4.7 0,-3.1 2.2,-5 4.8,-5 3,0 5.5,2.3 5.5,7.5 0,5.9 -2.9,8.4 -6,8.4 -1.8,-0.2 -3.1,-0.9 -4,-1.9 z"
   id="path1150"
   inkscape:connector-curvature="0" />
		<path
   d="m 263.7,900.6 c 1.6,-0.6 2.4,-1.7 2.4,-3 l -0.1,-2.1 1.1,1.7 c -0.3,0.3 -0.7,0.4 -1.1,0.4 -0.9,0 -1.8,-0.6 -1.8,-1.7 0,-1 0.8,-1.7 1.8,-1.7 1.3,0 2.1,1.1 2.1,2.8 0,2.4 -1.4,4.2 -3.7,5 z"
   id="path1152"
   inkscape:connector-curvature="0" />
		<path
   d="m 270.3,896.3 1.5,-1.7 c 0.6,0.7 1.5,1.2 2.4,1.2 2,0 3.6,-1.5 3.6,-6.1 0,-3.8 -1.2,-5.3 -2.9,-5.3 -1.3,0 -2.3,1 -2.3,2.9 0,1.8 0.9,2.7 2.4,2.7 0.9,0 2,-0.5 2.8,-1.9 l 0.1,1.9 c -0.9,1.2 -2.3,2 -3.4,2 -2.6,0 -4.5,-1.5 -4.5,-4.7 0,-3.1 2.2,-5 4.8,-5 3,0 5.5,2.3 5.5,7.5 0,5.9 -2.9,8.4 -6,8.4 -1.8,-0.2 -3.1,-0.9 -4,-1.9 z"
   id="path1154"
   inkscape:connector-curvature="0" />
		<path
   d="m 282.6,896.3 1.5,-1.7 c 0.6,0.7 1.5,1.2 2.4,1.2 2,0 3.6,-1.5 3.6,-6.1 0,-3.8 -1.2,-5.3 -2.9,-5.3 -1.3,0 -2.3,1 -2.3,2.9 0,1.8 0.9,2.7 2.4,2.7 0.9,0 2,-0.5 2.8,-1.9 l 0.1,1.9 c -0.9,1.2 -2.3,2 -3.4,2 -2.6,0 -4.5,-1.5 -4.5,-4.7 0,-3.1 2.2,-5 4.8,-5 3,0 5.5,2.3 5.5,7.5 0,5.9 -2.9,8.4 -6,8.4 -1.8,-0.2 -3.1,-0.9 -4,-1.9 z"
   id="path1156"
   inkscape:connector-curvature="0" />
		<path
   d="m 294.9,896.3 1.5,-1.7 c 0.6,0.7 1.5,1.2 2.4,1.2 2,0 3.6,-1.5 3.6,-6.1 0,-3.8 -1.2,-5.3 -2.9,-5.3 -1.3,0 -2.3,1 -2.3,2.9 0,1.8 0.9,2.7 2.4,2.7 0.9,0 2,-0.5 2.8,-1.9 l 0.1,1.9 c -0.9,1.2 -2.3,2 -3.4,2 -2.6,0 -4.5,-1.5 -4.5,-4.7 0,-3.1 2.2,-5 4.8,-5 3,0 5.5,2.3 5.5,7.5 0,5.9 -2.9,8.4 -6,8.4 -1.8,-0.2 -3.1,-0.9 -4,-1.9 z"
   id="path1158"
   inkscape:connector-curvature="0" />
		<path
   d="m 307.2,900.6 c 1.6,-0.6 2.4,-1.7 2.4,-3 l -0.1,-2.1 1.1,1.7 c -0.3,0.3 -0.7,0.4 -1.1,0.4 -0.9,0 -1.8,-0.6 -1.8,-1.7 0,-1 0.8,-1.7 1.8,-1.7 1.3,0 2.1,1.1 2.1,2.8 0,2.4 -1.4,4.2 -3.7,5 z"
   id="path1160"
   inkscape:connector-curvature="0" />
		<path
   d="m 313.8,896.3 1.5,-1.7 c 0.6,0.7 1.5,1.2 2.4,1.2 2,0 3.6,-1.5 3.6,-6.1 0,-3.8 -1.2,-5.3 -2.9,-5.3 -1.3,0 -2.3,1 -2.3,2.9 0,1.8 0.9,2.7 2.4,2.7 0.9,0 2,-0.5 2.8,-1.9 l 0.1,1.9 c -0.9,1.2 -2.3,2 -3.4,2 -2.6,0 -4.5,-1.5 -4.5,-4.7 0,-3.1 2.2,-5 4.8,-5 3,0 5.5,2.3 5.5,7.5 0,5.9 -2.9,8.4 -6,8.4 -1.8,-0.2 -3.1,-0.9 -4,-1.9 z"
   id="path1162"
   inkscape:connector-curvature="0" />
		<path
   d="m 326.1,896.3 1.5,-1.7 c 0.6,0.7 1.5,1.2 2.4,1.2 2,0 3.6,-1.5 3.6,-6.1 0,-3.8 -1.2,-5.3 -2.9,-5.3 -1.3,0 -2.3,1 -2.3,2.9 0,1.8 0.9,2.7 2.4,2.7 0.9,0 2,-0.5 2.8,-1.9 l 0.1,1.9 c -0.9,1.2 -2.3,2 -3.4,2 -2.6,0 -4.5,-1.5 -4.5,-4.7 0,-3.1 2.2,-5 4.8,-5 3,0 5.5,2.3 5.5,7.5 0,5.9 -2.9,8.4 -6,8.4 -1.7,-0.2 -3.1,-0.9 -4,-1.9 z"
   id="path1164"
   inkscape:connector-curvature="0" />
		<path
   d="m 338.4,896.3 1.5,-1.7 c 0.6,0.7 1.5,1.2 2.4,1.2 2,0 3.6,-1.5 3.6,-6.1 0,-3.8 -1.2,-5.3 -2.9,-5.3 -1.3,0 -2.3,1 -2.3,2.9 0,1.8 0.9,2.7 2.4,2.7 0.9,0 2,-0.5 2.8,-1.9 l 0.1,1.9 c -0.9,1.2 -2.3,2 -3.4,2 -2.6,0 -4.5,-1.5 -4.5,-4.7 0,-3.1 2.2,-5 4.8,-5 3,0 5.5,2.3 5.5,7.5 0,5.9 -2.9,8.4 -6,8.4 -1.7,-0.2 -3.1,-0.9 -4,-1.9 z"
   id="path1166"
   inkscape:connector-curvature="0" />
	</g>
</g></g></svg>