<?xml version="1.0" encoding="UTF-8" standalone="no"?>
<!-- Generator: Adobe Illustrator 22.0.1, SVG Export Plug-In . SVG Version: 6.00 Build 0)  -->

<svg
   xmlns:dc="http://purl.org/dc/elements/1.1/"
   xmlns:cc="http://creativecommons.org/ns#"
   xmlns:rdf="http://www.w3.org/1999/02/22-rdf-syntax-ns#"
   xmlns:svg="http://www.w3.org/2000/svg"
   xmlns="http://www.w3.org/2000/svg"
   xmlns:sodipodi="http://sodipodi.sourceforge.net/DTD/sodipodi-0.dtd"
   xmlns:inkscape="http://www.inkscape.org/namespaces/inkscape"
   version="1.1"
   id="svg975"
   inkscape:export-filename="map_mask.png"
   inkscape:export-xdpi="96"
   inkscape:export-ydpi="96"
   inkscape:version="0.92.3 (2405546, 2018-03-11)"
   sodipodi:docname="map_mask.svg"
   x="0px"
   y="0px"
   viewBox="0 0 1824 984"
   style="enable-background:new 0 0 1824 984;"
   xml:space="preserve"><metadata
   id="metadata1175"><rdf:RDF><cc:Work
       rdf:about=""><dc:format>image/svg+xml</dc:format><dc:type
         rdf:resource="http://purl.org/dc/dcmitype/StillImage" /><dc:title>Blank US states map</dc:title></cc:Work></rdf:RDF></metadata><defs
   id="defs1173">
	

		
		
		
		
		
		
		
		
		
		
		
		
		
		
		
		
		
		
		
		
		
		
		
		
		
	
	
	
	
	
	
	
	
	
	
	
	
	
	
	
	
	
	
	
	
	
	
	
	
	
	
	
	
	
	
	
	
	
	
	
	
	
	
	
	
	
	
	
	
	
	
	
	
	
</defs>
<style
   type="text/css"
   id="style1015">
	.st0{fill:#E5E5E5;}
	.st1{display:none;}
	.st2{display:inline;fill:#FF0000;}
	.st3{fill:#444444;stroke:#E5E5E5;stroke-width:1.2;}
</style>
<path
   d="M 0 0 L 0 984 L 1824 984 L 1824 0 L 0 0 z M 310.30078 13.599609 L 317.09961 15.900391 L 332.19922 20.099609 L 345.59961 23.099609 L 376.69922 32 L 412.40039 40.900391 L 435.69922 46.300781 L 428.19922 73.599609 L 421.19922 106 L 415.90039 131.19922 L 415.30078 145.5 L 395.30078 139.69922 L 371.5 134.30078 L 349 134.80078 L 347.30078 132.40039 L 338.40039 135.59961 L 332.30078 134.90039 L 328.30078 132.09961 L 325.69922 133.09961 L 319.30078 132.69922 L 316.59961 130.59961 L 308.59961 127.80078 L 306.80078 127.59961 L 299.30078 125.40039 L 296.30078 128 L 287.5 127.59961 L 280.30078 122.40039 L 280.5 108.5 L 276.90039 101.80078 L 270.5 100.69922 L 270 97 L 266.09961 96.099609 L 261.59961 95.300781 L 258.80078 96.900391 L 255.19922 92.400391 L 255.69922 87.900391 L 259.90039 87.400391 L 262.40039 81.199219 L 258.40039 79.5 L 258.69922 73.800781 L 265.5 72.900391 L 261.30078 68.699219 L 259 57.699219 L 259.90039 53.199219 L 259.90039 40.800781 L 257.09961 35.800781 L 260.69922 21.199219 L 264 22 L 267.69922 26.5 L 271.90039 30.5 L 276.90039 33.5 L 283.90039 36.800781 L 288.69922 37.699219 L 293.19922 40 L 298.5 41.599609 L 302.09961 41.300781 L 302.09961 37.599609 L 304.09961 35.900391 L 307.40039 33.900391 L 307.90039 35.599609 L 308.40039 38.400391 L 304.80078 39.199219 L 304.30078 42.5 L 307.09961 44.800781 L 308.80078 48.5 L 309.69922 51.5 L 312 51.199219 L 312.30078 49.199219 L 310.69922 47.199219 L 309.90039 42.199219 L 311.09961 39.400391 L 310.19922 37.099609 L 310.19922 33.099609 L 313 27.5 L 311.30078 23.5 L 307.59961 16 L 308.09961 14.800781 L 310.30078 13.599609 z M 301.59961 21.800781 L 305.19922 21.800781 L 306.40039 24.099609 L 304.09961 26.699219 L 305 27.900391 L 303.90039 31 L 301.69922 31.599609 C 301.69922 31.599609 300.30078 31.800781 300.30078 31.300781 C 300.30078 30.800781 302.59961 27.300781 302.59961 27.300781 L 300 26.400391 L 299.5 28.699219 L 298.40039 29.599609 L 296.09961 26 L 295.40039 22.400391 L 298.5 22.099609 L 299.30078 24.300781 L 301.59961 21.800781 z M 437.09961 46.199219 L 457.40039 50.099609 L 450.59961 83.5 L 455.59961 95.300781 L 453.59961 102.5 L 456.69922 110.19922 L 461.69922 112.59961 L 468.80078 128.5 L 472.80078 133.90039 L 473.69922 135.69922 L 479 137.5 L 479.59961 140.5 L 468.69922 167.09961 L 469 171.90039 L 473.5 177.19922 L 476.09961 177.5 L 484 172.09961 L 484.30078 171.5 L 484.80078 171.69922 L 485 179 L 489 199.5 L 494.09961 203.5 L 498 208 L 496.90039 212.5 L 498 218.69922 L 501.09961 220.40039 L 504.80078 217.30078 L 508.5 217 L 513.80078 219.30078 L 517.69922 218.19922 L 523.59961 218 L 529.69922 220.5 L 534.69922 219.69922 L 535.80078 215.69922 L 539.09961 214.09961 L 540.30078 215.80078 L 540.90039 219.80078 L 545.09961 223.5 L 539.19922 260.90039 L 531.59961 306.30078 L 477.5 296.80078 L 416.09961 284.5 L 383.90039 277.5 L 397.59961 222.69922 L 399.5 216.19922 L 403.19922 207.19922 L 401.5 203.59961 L 397.5 203.80078 L 396.59961 202.19922 L 397.19922 200.5 L 397.80078 195.69922 L 404.5 187.5 L 407.30078 186.30078 L 409.19922 184.59961 L 410.59961 180.09961 L 417.59961 169.80078 L 423.69922 163 L 424 156.90039 L 418.59961 152.80078 L 416.69922 145.90039 L 417.30078 130.90039 L 422.59961 105.69922 L 429.59961 73.300781 L 437.09961 46.199219 z M 458.69922 50.699219 L 509.5 61.400391 L 538.09961 66.699219 L 588.30078 74.900391 L 634 81 L 679.40039 86.400391 L 727.30078 91.199219 L 725.80078 113.30078 L 717.59961 202.09961 L 715.59961 225.69922 L 623.80078 215.40039 L 547.69922 204.40039 L 545.5 221.80078 L 542.5 219.19922 L 541.90039 215.30078 L 539.90039 212.30078 L 534.80078 214.59961 L 533.69922 218.5 L 530 219 L 524.09961 216.5 L 517.69922 216.69922 L 514 217.80078 L 509 215.5 L 504.30078 215.80078 L 501 218.80078 L 499.59961 217.90039 L 498.5 212.59961 L 499.59961 207.59961 L 495.40039 202.59961 L 490.30078 198.69922 L 486.40039 179.09961 L 486.19922 170.90039 L 483.69922 169.69922 L 482.80078 171.30078 L 475.80078 176.30078 L 473.90039 176.09961 L 470.30078 171.69922 L 470 167.30078 L 480.90039 140.69922 L 480 136.59961 L 474.59961 134.90039 L 474 133.5 L 469.80078 128.09961 L 462.69922 111.90039 L 457.69922 109.40039 L 454.90039 102.80078 L 456.90039 95.599609 L 451.90039 83.800781 L 458.69922 50.699219 z M 1549.5996 60.699219 L 1551.9004 61 L 1561.1992 64.699219 L 1564.1992 66.300781 L 1578.3008 112.80078 L 1587.5996 112.80078 L 1588.8008 115.80078 L 1589.0996 123.30078 L 1593.5996 126.90039 L 1594.8008 126.90039 L 1595.0996 126.09961 L 1594.3008 124.40039 L 1598.6992 123.59961 L 1601.6992 126.90039 L 1605.3008 132.59961 L 1605.3008 135.59961 L 1602 142.90039 L 1599 143.80078 L 1593.6992 148.59961 L 1586.1992 157.09961 L 1584.1992 157.09961 C 1583.2992 157.09961 1582.5996 153.80078 1582.5996 153.80078 L 1579.8008 154.09961 L 1578.1992 156.40039 L 1574.5 158.69922 L 1572.9004 161 L 1575.4004 163.30078 L 1574.5996 164.19922 L 1573.8008 168.40039 L 1570.8008 168.09961 L 1570.8008 165.59961 L 1570.3008 163.59961 L 1568 164.09961 L 1565.1992 159.09961 L 1561.9004 161.09961 L 1563.9004 163.40039 L 1564.4004 165.09961 L 1563.1992 167.09961 L 1563.6992 171.90039 L 1564 174.40039 L 1561.5 178.40039 L 1557 179.19922 L 1556.5 183.69922 L 1548.3008 188.5 L 1546.3008 189.30078 L 1543.8008 187 L 1539 192.59961 L 1540.5996 197.59961 L 1538.3008 199.59961 L 1538 206.40039 L 1536.3008 216.19922 L 1532.9004 214.80078 L 1532.0996 210 L 1525.9004 208.30078 L 1525.5996 204.40039 L 1507.4004 146.19922 L 1510 146.09961 L 1512.3008 146.69922 L 1512.3008 142.69922 L 1513.5 134.19922 L 1517.5 126.90039 L 1519.8008 120.69922 L 1516.8008 117 L 1516.8008 107.69922 L 1518 106.09961 L 1519.1992 101.90039 L 1518.9004 99.599609 L 1518.5996 92.099609 L 1521.4004 84.599609 L 1525.9004 70.800781 L 1529.1992 64.300781 L 1531.1992 64.300781 L 1533.1992 64.599609 L 1533.1992 66.300781 L 1535.1992 69.900391 L 1539.4004 70.800781 L 1540.5996 69.599609 L 1540.5996 68 L 1546.8008 63.5 L 1549.5996 60.699219 z M 931.90039 85.5 L 935.5 86.300781 L 938.5 87.5 L 939.69922 96 L 942 105.5 L 944.5 108 L 952 108 L 952.5 110 L 962.30078 110.5 L 962.30078 113.80078 L 969.80078 113.80078 L 970.30078 111.80078 L 972 110.09961 L 975.59961 109.19922 L 977.59961 110.80078 L 982.09961 110.80078 L 988.19922 114.80078 L 996.40039 118.5 L 1000.0996 119.30078 L 1000.9004 117.69922 L 1003.1992 116.90039 L 1004 121.40039 L 1008 123.40039 L 1008.8008 122.59961 L 1010.8008 122.90039 L 1010.8008 126.19922 L 1014.8008 127.80078 L 1019.5996 127.80078 L 1022.0996 126.59961 L 1027.0996 121.59961 L 1031.0996 120.80078 L 1032.3008 123.59961 L 1033.0996 125.59961 L 1034.6992 125.59961 L 1036.3008 124.40039 L 1050.0996 123.90039 L 1052.9004 128.69922 L 1053.8008 128.69922 L 1054.9004 127 L 1061.6992 126.40039 L 1060.8008 130 L 1054.6992 132.80078 L 1040.4004 139.19922 L 1032.9004 142.30078 L 1028.0996 146.30078 L 1024.4004 151.90039 L 1020.8008 158 L 1018 159.19922 L 1011 167 L 1009 167.30078 L 1003.0996 171.80078 L 999.09961 176.5 L 998.80078 181.19922 L 999.09961 193.59961 L 997.19922 195.80078 L 988.80078 202 L 985.40039 211.5 L 989.80078 216.30078 L 990.90039 220.5 L 988.59961 225.19922 L 988.40039 231.30078 L 989.19922 242.19922 L 994.59961 248.09961 L 999.59961 248.09961 L 1002.6992 252.5 L 1008 253.90039 L 1013.5996 262.09961 L 1024.8008 269.19922 L 1027.5996 272.5 L 1028.4004 281.80078 L 995.5 282.90039 L 901.80078 283.80078 L 901.80078 228 L 900.69922 223 L 894.30078 217.59961 L 892.90039 215 L 892.90039 212.69922 L 895.69922 210.69922 L 898.19922 207.90039 L 898.19922 199.69922 L 897.59961 189.80078 L 894.80078 178.5 L 892 157.59961 L 891.19922 142.19922 L 888.19922 137 L 885.69922 129.19922 L 885.69922 113.19922 L 886.59961 107.09961 L 883.69922 98.5 L 930.5 98.5 L 931 85.800781 L 931.90039 85.5 z M 728.5 91.400391 L 767.69922 94.800781 L 808.90039 96.800781 L 837.80078 97.699219 L 882.19922 98.599609 L 885 107.19922 L 884.09961 113.19922 L 884.09961 129.40039 L 886.59961 137.69922 L 889.59961 142.59961 L 890.40039 157.69922 L 893.19922 178.80078 L 896 190.09961 L 896.59961 199.69922 L 896.5 201.59961 L 808.09961 199 L 719.80078 192.90039 L 727.09961 113.80078 L 728.5 91.400391 z M 264.69922 97.5 L 268.40039 98.300781 L 269.5 102.19922 L 275.90039 103.09961 L 279.09961 108.5 L 278.80078 122.90039 L 287.09961 128.90039 L 296.80078 129.30078 L 299.5 126.90039 L 306.40039 128.90039 L 308.09961 129 L 315.59961 131.80078 L 318.59961 134 L 325.90039 134.5 L 327.90039 133.69922 L 331.59961 136.19922 L 338.59961 136.90039 L 346.5 134 L 348.19922 136 L 371.19922 135.40039 L 395 140.80078 L 415.40039 146.80078 L 417.30078 153.90039 L 422.59961 157.80078 L 422.30078 162.90039 L 416.59961 169.09961 L 410.5 178 L 409.30078 179.69922 L 408.19922 183.90039 L 406.80078 185.09961 L 403.80078 186.5 L 396.5 195.40039 L 395.90039 200.5 L 395 202.80078 L 397 205.59961 L 400.90039 205.40039 L 402 207.40039 L 398.30078 215.90039 L 396.40039 222.69922 L 382.69922 277.19922 L 356.30078 271.5 L 313.5 261.40039 L 269.59961 250.19922 L 209.59961 231.69922 L 205.40039 226.30078 L 207.40039 217 L 208.59961 203.59961 L 211.59961 199.09961 L 224.19922 179.5 L 234.30078 158.40039 L 242.09961 136.5 L 247.09961 126.40039 L 252.09961 110.90039 L 255.69922 100.80078 L 264.69922 97.5 z M 1086.5996 119.40039 L 1087.4004 120.19922 L 1079.5 128.09961 L 1074.4004 131.09961 L 1071.0996 132.5 L 1068.4004 130.90039 L 1071.1992 127.59961 L 1074.5996 126.40039 L 1083 120.30078 L 1086.5996 119.40039 z M 1103.9004 141.30078 L 1105.5996 143 L 1105.0996 144.59961 L 1099.4004 146.19922 L 1097.0996 151 L 1093.5 152.19922 L 1092.6992 155.90039 L 1089 160.90039 L 1088.5 164.90039 L 1089.6992 165.69922 L 1091.3008 164 L 1096.9004 159.5 L 1098.9004 161.5 L 1102.5 161.5 L 1107.5 163.09961 L 1109.8008 164.80078 L 1112.0996 169.59961 L 1116.3008 173.80078 L 1122.4004 173.5 L 1124.6992 171.90039 L 1127.1992 173.90039 L 1129.6992 174.69922 L 1131.6992 173.5 L 1133.4004 173.5 L 1135.9004 171.90039 L 1142.0996 166.30078 L 1147.4004 164.59961 L 1157.6992 164.09961 L 1164.6992 161.09961 L 1168.6992 159.09961 L 1171 159.40039 L 1171 168.30078 L 1171.8008 168.80078 L 1176.3008 170 L 1179.3008 169.19922 L 1188.8008 166.69922 L 1190.5 165 L 1192.8008 165.80078 L 1192.8008 176.69922 L 1197.8008 181.5 L 1199.8008 182.40039 L 1201.8008 184 L 1199.8008 184.5 L 1198.5996 184 L 1192.9004 183.19922 L 1189.5996 184.09961 L 1186 183.80078 L 1181 186.09961 L 1178.1992 186.09961 L 1169.1992 184.09961 L 1161.0996 184.40039 L 1158.0996 188.40039 L 1147.1992 189.30078 L 1143.5 190.5 L 1141.8008 195.30078 L 1139.8008 197 L 1139 196.69922 L 1136.6992 194.19922 L 1129.6992 197.90039 L 1128.8008 197.90039 L 1127.0996 195.40039 L 1125.9004 195.69922 L 1122.9004 202.5 L 1121.3008 208.69922 L 1116.3008 219.40039 L 1114.4004 218.69922 L 1112.4004 217 L 1109.5996 200.80078 L 1103.9004 198.80078 L 1101.3008 195.19922 L 1081.6992 190.80078 L 1077.3008 189.09961 L 1064.6992 185.69922 L 1052.5996 184.09961 L 1046.5 175.90039 L 1047.5996 175.09961 L 1051.8008 173.90039 L 1057.4004 170.30078 L 1057.4004 168.69922 L 1058.3008 167.80078 L 1067.5996 166.19922 L 1071.3008 163.19922 L 1078.0996 159.90039 L 1078.4004 157.90039 L 1081.4004 153.40039 L 1084.1992 152.19922 L 1086.1992 149.40039 L 1089.8008 145.80078 L 1096.5996 142.09961 L 1103.9004 141.30078 z M 1506.3008 146.59961 L 1524.5 204.80078 L 1525 209.5 L 1531.4004 211.19922 L 1532.1992 216 L 1536.4004 217.90039 L 1534.6992 222.90039 L 1533.5996 224.30078 L 1527.4004 227.30078 L 1524.8008 231.80078 L 1503.4004 237.19922 L 1495.5 239.09961 L 1493.9004 237.40039 L 1494.6992 235.09961 L 1495 227.80078 L 1493.4004 225.59961 L 1493.6992 218.30078 L 1494.9004 204 L 1494.9004 190.59961 L 1493.1992 187.59961 L 1493.1992 186.5 L 1496.9004 185.09961 L 1503 177.59961 L 1503 170.90039 L 1500 166.5 L 1499.1992 153.40039 L 1499.5 149.80078 L 1501.8008 146.80078 L 1503.4004 148.40039 L 1504.3008 149.19922 L 1505.1992 146.69922 L 1506.3008 146.59961 z M 1582.4004 156.80078 L 1583.5996 159.59961 L 1582.1992 160.80078 C 1582.1992 160.80078 1581.9004 163.40039 1581.9004 163.90039 C 1581.9004 164.40039 1579.9004 164.19922 1579.9004 164.19922 L 1577.0996 161.19922 L 1579.3008 157.90039 L 1582.4004 156.80078 z M 1497.5996 157.90039 L 1498.0996 166.90039 L 1501.0996 171.09961 L 1501.0996 176.69922 L 1495.6992 183.5 L 1491.3008 185.19922 L 1491.3008 187.69922 L 1493 190.5 L 1493 203.69922 L 1491.8008 218.09961 L 1491.5 225.40039 L 1493.0996 227.59961 L 1492.8008 234.30078 L 1491.9004 237.30078 L 1493.5 239 L 1475.5996 242.30078 L 1475.5996 234.09961 L 1471.0996 217.30078 L 1466 215 L 1467.0996 211 L 1465.6992 207.40039 L 1461.8008 200.59961 L 1463.4004 194.5 L 1462.1992 186.30078 L 1458.5 176.19922 L 1457 168.40039 L 1497.5996 157.90039 z M 1034.1992 164.80078 L 1037.1992 167.09961 L 1035.5 168.80078 L 1032.5 173.59961 L 1031.5996 176.59961 L 1033.1992 177.5 L 1036 175.90039 L 1037.6992 175.59961 L 1041.9004 176.80078 L 1042.8008 178.5 L 1044.5 178.80078 L 1045.4004 177.09961 L 1051.5996 185.30078 L 1064.3008 187.19922 L 1077 190.59961 L 1081 192.30078 L 1100.0996 196.30078 L 1102.5996 199.90039 L 1108.1992 201.80078 L 1110.8008 217.59961 L 1113.3008 219.80078 L 1115.5996 221.19922 L 1113.9004 224.80078 L 1111.0996 227.30078 L 1107.8008 234.59961 L 1105.8008 238.30078 L 1106.0996 241.09961 L 1108.4004 241.59961 L 1110.0996 238.59961 L 1112.4004 237.40039 L 1113.5996 233.80078 L 1116.5996 231 L 1120.8008 224.80078 L 1127.3008 215 L 1128.5 214.19922 L 1129 215.80078 L 1128.6992 219.40039 L 1124.1992 230 L 1120 238.90039 L 1119.1992 243.90039 L 1118.3008 247.90039 L 1119.5 249.90039 L 1119.1992 254.09961 L 1116.1992 257.80078 L 1115.4004 260.59961 L 1116.3008 266.19922 L 1117.1992 271.5 L 1114.9004 275.5 L 1113.6992 280 L 1112.0996 284.80078 L 1113.8008 288.5 L 1114.6992 298 L 1117.1992 305 L 1116.9004 309.69922 L 1092.1992 312.5 L 1065 314.09961 L 1045.3008 314.09961 L 1044.1992 311.80078 L 1039.6992 311.19922 L 1035.6992 309.19922 L 1032.0996 303.5 L 1031.5996 297.90039 L 1034.6992 293.40039 L 1033.9004 291.19922 L 1030.5996 287.80078 L 1029.4004 282.69922 L 1028.5 272.09961 L 1025.1992 268.19922 L 1014.3008 261.19922 L 1008.4004 252.80078 L 1003.0996 251.19922 L 999.69922 246.80078 L 994.69922 246.80078 L 990.19922 241.69922 L 989.40039 231.59961 L 989.59961 225.69922 L 991.90039 220.90039 L 990.69922 215.90039 L 986.80078 211.5 L 989.59961 203.09961 L 997.69922 197.19922 L 1000.1992 194.19922 L 999.90039 181.59961 L 1000.1992 177.19922 L 1003.9004 172.80078 L 1005.9004 174.09961 L 1010.4004 174.90039 L 1014.9004 174 L 1026.4004 169 L 1030.9004 166 L 1034.1992 164.80078 z M 1569 168 L 1571.1992 169.69922 L 1572.0996 173.40039 L 1569.5 174.80078 L 1566.6992 170.30078 L 1569 168 z M 1456.1992 169.09961 L 1457.3008 176.69922 L 1461 186.80078 L 1462.1992 194.59961 L 1460.5996 201.09961 L 1464.5996 208.09961 L 1465.8008 211.19922 L 1464.4004 216.19922 L 1470.0996 218.80078 L 1474.3008 234.59961 L 1474.3008 243.59961 L 1473.4004 260.5 L 1474.5996 268.90039 L 1475.6992 274.5 L 1478 285.80078 L 1478 298.40039 L 1476.3008 302 L 1479.5996 306.19922 L 1480.4004 307.59961 L 1477.4004 310.40039 L 1477.9004 312.40039 L 1479.9004 311.90039 L 1482.1992 309.90039 L 1485.8008 305.90039 L 1487.5 305 L 1490 305.90039 L 1493.5996 306.19922 L 1505.9004 300.09961 L 1510.4004 295.90039 L 1512.4004 293.59961 L 1518.9004 296.09961 L 1513.5996 301.69922 L 1507.5 306.19922 L 1496.5 314.40039 L 1492.5 316 L 1483.5 319 L 1477.3008 320.69922 L 1475.6992 320.09961 L 1475.1992 314.09961 L 1476 309.90039 L 1475.6992 306.19922 L 1471 303.90039 L 1460.9004 300.80078 L 1451.5996 296.80078 L 1450.6992 296.19922 L 1446.5 295.69922 L 1443.4004 293.40039 L 1440.0996 284.19922 L 1435 283.40039 L 1431.3008 279.69922 L 1371.5996 292.30078 L 1322.5 301.59961 L 1321.6992 291.5 L 1324.1992 289.59961 L 1326.1992 287.90039 L 1327.8008 285.40039 L 1330.5996 283.69922 L 1333.5996 280.90039 L 1334.4004 278.40039 L 1337.6992 274.19922 L 1339.4004 272.59961 L 1339.0996 271 L 1337.0996 266.19922 L 1334.3008 265.90039 L 1331.3008 256.40039 L 1335.8008 253.59961 L 1342.5996 251.30078 L 1348.8008 249.30078 L 1353.8008 248.5 L 1363.5996 248.19922 L 1366.5996 250.19922 L 1369.0996 250.5 L 1372.4004 248.5 L 1376.4004 246.80078 L 1384.5 246 L 1387.8008 243.19922 L 1390.5996 238.19922 L 1393.0996 235.19922 L 1396.4004 235.19922 L 1399.4004 233.5 L 1399.6992 229.90039 L 1397.4004 226.59961 L 1396.9004 224.30078 L 1398.5996 221 L 1398.5996 218.69922 L 1395.8008 218.69922 L 1393 217.5 L 1391.8008 215.80078 L 1391.5 211.80078 L 1400.5 203.30078 L 1401.4004 202.09961 L 1403.6992 197.59961 L 1408.1992 190.59961 L 1412.4004 184.90039 L 1415.6992 181.19922 L 1419.4004 178.40039 L 1424.1992 176.5 L 1432.6992 174.5 L 1437.6992 174.80078 L 1444.6992 172.5 L 1456.1992 169.09961 z M 1207.0996 177.59961 C 1207.0996 177.59961 1209.0996 180.29961 1209.5996 180.59961 C 1209.9996 180.79961 1210.1992 183.09961 1210.1992 183.09961 L 1208.1992 185 L 1203.1992 184.69922 L 1202.3008 180.80078 L 1200.6992 179.90039 L 1201.1992 178.19922 L 1203.6992 177.90039 L 1207.0996 177.59961 z M 1182 191.90039 L 1186.8008 195.5 L 1188.4004 196.30078 L 1189.3008 195.40039 L 1193.5 195.40039 L 1202 200.69922 L 1209 203 L 1213 203 L 1215 207 L 1219 210.40039 L 1218.6992 212.90039 L 1216.1992 212.40039 L 1215 213.59961 L 1216.1992 216.90039 L 1218.1992 218.09961 L 1220.6992 221.69922 L 1221.1992 237.19922 L 1217.5 239.69922 L 1216.5996 243.69922 L 1215.4004 249 L 1210.0996 251 C 1210.0996 251 1209.6008 257.90078 1209.3008 258.80078 C 1209.0008 259.80078 1213 262.09961 1213 262.09961 L 1215.3008 263 L 1217 262.09961 L 1221.1992 256.40039 L 1224.1992 248.59961 L 1230.3008 245.80078 L 1232.8008 244.09961 L 1236.8008 246.90039 L 1240.5 251.90039 L 1244.0996 266 L 1249.0996 278.69922 L 1249.6992 292.80078 L 1246.6992 294.40039 L 1245.5 294.09961 L 1245.1992 293.19922 L 1243.5 292.30078 L 1241.1992 297 L 1240.9004 302.59961 L 1239.1992 303.09961 L 1236.6992 305.59961 L 1237 313.5 L 1233.9004 316.09961 L 1230.5996 321.80078 L 1230.3008 324.09961 L 1230.0996 325 L 1211.5 327.59961 L 1196.0996 329.90039 L 1195.8008 328.19922 L 1166.0996 331.19922 L 1146 332.90039 L 1151 328.09961 L 1151.5 323.90039 L 1155.1992 315.80078 L 1156.8008 306.5 L 1158 299.19922 L 1155.6992 291.69922 L 1151.1992 281.59961 L 1145.5996 272.30078 L 1146.0996 268.09961 L 1146.5996 266.90039 L 1147.8008 263.19922 L 1147 261.5 L 1146.0996 254.19922 L 1148.5996 248 L 1150.3008 238.5 L 1149.0996 234.80078 L 1149.0996 233.09961 L 1152.6992 232.30078 L 1153.5996 228.30078 L 1152.6992 227.09961 L 1153 225.5 L 1155.8008 222.5 L 1160 220.80078 L 1161.5996 214.30078 L 1164.5996 213.09961 L 1165.8008 214.30078 L 1164.9004 218 L 1162.9004 221.69922 L 1162.9004 228.19922 L 1163.8008 228.5 L 1169.4004 225.19922 L 1168.9004 216.69922 L 1168.4004 214.19922 L 1168.9004 210.90039 L 1171.1992 208.09961 L 1175.1992 207.59961 L 1179.1992 206.40039 L 1178.4004 205.19922 L 1175.0996 204.40039 L 1173.5 203.90039 L 1173 198.30078 L 1177.5 194.69922 L 1182 191.90039 z M 719.69922 194.69922 L 808.09961 200.80078 L 896.5 203.40039 L 896.5 207.59961 L 894.5 209.90039 L 891.40039 212.19922 L 891.19922 215.59961 L 892.90039 219 L 899.30078 224.30078 L 900.09961 228.5 L 900.09961 284.30078 L 896.59961 284.69922 L 895.19922 289.69922 L 895.80078 294.40039 L 899.80078 297.5 L 897.90039 305.90039 L 895.09961 312.30078 L 897.40039 317.40039 L 898.5 319.09961 L 896.5 319.30078 L 895.40039 316.80078 L 894.5 313.69922 L 889.40039 310.90039 L 881.90039 308.59961 L 878 306.59961 L 873.5 306.80078 L 867.40039 307.40039 L 861.5 309.30078 L 853.30078 303.40039 L 849.09961 299.69922 L 832.19922 300.90039 L 767.69922 297.19922 L 712.40039 293.80078 L 714.69922 255.30078 L 719.09961 202.5 L 719.69922 194.69922 z M 548.90039 206.19922 L 623.80078 217.09961 L 715.59961 227.19922 L 713.19922 254.90039 L 710.90039 294.40039 L 704.09961 362.80078 L 699.90039 362.30078 L 570.5 348.19922 L 527.19922 343.5 L 530.30078 324.90039 L 541 261.19922 L 546.90039 223.59961 L 548.90039 206.19922 z M 1533.9004 225.80078 L 1538.4004 232.59961 L 1534.6992 240.69922 L 1534.1992 243 L 1537.1992 247 L 1538.9004 245.80078 L 1541.6992 245.80078 L 1545.3008 249.80078 L 1551.4004 259.09961 L 1557 259.90039 L 1560.5996 258.30078 L 1563.4004 255.5 L 1562.1992 251.30078 L 1558.9004 248.80078 L 1556.5996 250 L 1555 248 L 1555.8008 247.19922 L 1559.0996 246.90039 L 1561.9004 248.09961 L 1564.9004 251.80078 L 1566.5 256.30078 L 1567 260 L 1560.5 262.30078 L 1554.4004 265.30078 L 1548.3008 272.30078 L 1545.3008 274.59961 L 1545.3008 273 L 1549 270.69922 L 1549.8008 267.90039 L 1548.5996 263.09961 L 1544.0996 265.40039 L 1542.9004 267.69922 L 1543.6992 271.30078 L 1540.3008 273 L 1535.8008 265.69922 L 1530.5 259 L 1527.4004 256.5 L 1510 260.90039 L 1475.8008 268.40039 L 1474.6992 260.80078 L 1475.5996 244.30078 L 1497 240.40039 L 1525.4004 233.09961 L 1528.1992 228.59961 L 1533.9004 225.80078 z M 208.90039 233.40039 L 269 251.69922 L 308.80078 262 L 296.40039 310.59961 L 282.90039 362 L 302.5 391.80078 L 368 488.59961 L 394.59961 529.19922 L 394 534 L 398.40039 542.09961 L 400.09961 550.5 L 401.69922 552.80078 L 402.80078 553.69922 L 402.5 555.90039 L 400.30078 557.5 L 395 560 L 392 563.30078 L 389.40039 569.40039 L 388.59961 576.69922 L 384.59961 580.59961 L 381 582.30078 L 380.80078 591.90039 L 379.90039 594.90039 L 381.5 597.5 L 386.19922 598 L 385.59961 600.5 L 383.40039 603.59961 L 377.30078 604.5 L 355.40039 602.90039 L 324.80078 598.69922 L 309.30078 596.40039 L 308.5 593.59961 L 308.5 579 L 308 574 L 304 567.5 L 302.80078 563.90039 L 296.69922 557.40039 L 292.19922 550.09961 L 288 549.80078 L 283 548.59961 L 282.5 547 L 284.80078 546.09961 L 283.90039 541.09961 L 281.59961 537.80078 L 274.09961 536.59961 L 268 533.30078 L 266.30078 529.69922 L 262.30078 522.19922 L 257.80078 517.40039 L 253.30078 517.40039 L 247.19922 514.09961 L 240.19922 511.30078 L 233.69922 510.5 L 230 506.30078 L 230.80078 503.30078 L 233.59961 492.30078 L 234.80078 489.30078 L 234.80078 485.59961 L 232.30078 484 L 231.5 479.5 L 229.19922 475.5 L 223.90039 466.5 L 221.90039 461.69922 L 219.59961 454.40039 L 217.09961 446.19922 L 212.09961 439.40039 L 211.30078 434.90039 L 212.5 428.80078 L 214.19922 428.80078 L 217.5 426.30078 L 219.19922 420.69922 L 217.59961 416.5 L 213.40039 415.69922 L 210.40039 411.69922 L 207.09961 406 L 206.80078 393.30078 L 207.69922 390.30078 L 208.59961 386.69922 L 209.40039 383 L 200.5 373.19922 L 200.5 370 L 201 369.19922 L 201.5 364.19922 L 199.5 358 L 195.90039 350.5 L 191.69922 343.5 L 188.90039 337.40039 L 190.5 331.69922 L 191.40039 322.69922 L 194.19922 317.90039 L 194.69922 307.80078 L 193 302.19922 L 190.5 295.69922 L 186.30078 289.19922 L 187.5 284.19922 L 189.80078 277.69922 L 192.59961 276.5 L 193.09961 274.80078 L 197.90039 270.80078 L 206 252.5 L 206.30078 241 L 208.90039 233.40039 z M 1527.3008 257.90039 L 1529.5996 259.90039 L 1534.9004 266.59961 L 1539.3008 273.40039 L 1534.9004 275.59961 L 1532.9004 275.30078 L 1531.1992 278.09961 L 1527.5 281.09961 L 1523.0996 282.80078 L 1522.0996 276.30078 L 1520.9004 269.5 L 1518.4004 260.19922 L 1527.3008 257.90039 z M 1516.9004 260.5 L 1519.4004 269.80078 L 1520.5996 276.59961 L 1521.5 283.09961 L 1510.5996 288.5 L 1502.5 290.19922 L 1498.3008 292.5 L 1497.0996 291.59961 L 1494.0996 294.90039 L 1488.5 299.90039 L 1480.6992 305.19922 L 1478.0996 301.80078 L 1479.5 298.5 L 1479.5 285.59961 L 1477.1992 274.30078 L 1476.3008 269.5 L 1510.1992 262.19922 L 1516.9004 260.5 z M 310.40039 262.19922 L 356 273 L 416.09961 286.19922 L 456.5 294.30078 L 440 376.80078 L 431.59961 423.09961 L 426.5 447.19922 L 423.19922 464.40039 L 419.19922 489.90039 L 416.59961 494.69922 L 414.09961 494.5 L 412.19922 490.5 L 407.80078 489.69922 L 405.80078 488 L 403 488.19922 L 401.59961 489.40039 L 398.80078 491.40039 L 398.30078 502.69922 L 397.80078 505 L 397 524.30078 L 395.30078 527.09961 L 369.40039 487.5 L 304 391 L 284.69922 361.5 L 298 310.80078 L 310.40039 262.19922 z M 1567.3008 269.80078 L 1568.9004 270 L 1570.5 273.59961 L 1568.5 274.40039 L 1562.4004 274.59961 L 1563.0996 273.5 L 1566.5 272.40039 L 1567.3008 269.80078 z M 1552.0996 270.80078 L 1554.5996 270.80078 L 1557.4004 273.09961 L 1553.6992 274.69922 L 1550.3008 276.30078 L 1548.5 274.80078 L 1552.0996 270.80078 z M 1430.5 281.09961 L 1434.0996 284.69922 L 1438.9004 285.30078 L 1442 294 L 1445.6992 297 L 1450.0996 297.59961 L 1450.3008 297.80078 L 1446.3008 302.80078 L 1446.3008 307.59961 L 1443.3008 312.40039 L 1443 315.40039 L 1445 317.40039 L 1444.6992 320.40039 L 1441 322.09961 L 1442.5996 327.40039 L 1442.9004 329.09961 L 1447.3008 329.59961 L 1448.6992 333.5 L 1457.9004 339.59961 L 1457.9004 340.19922 L 1453.0996 344.90039 L 1450.8008 348.30078 L 1448.1992 352.69922 L 1444 354.59961 L 1441.8008 355.09961 L 1438.5 357.09961 L 1436 359.30078 L 1401.1992 366 L 1341.0996 378.09961 L 1323.5 380.30078 L 1317.4004 381.40039 L 1309.5 346.59961 L 1302.8008 306.40039 L 1309.1992 301.90039 L 1311.1992 301.09961 L 1320.0996 292.59961 L 1321.1992 303.30078 L 1373.1992 293.19922 L 1430.5 281.09961 z M 1028.1992 283.59961 L 1029.9004 288.59961 L 1033.1992 291.90039 L 1033.6992 293 L 1030.5996 297.69922 L 1031.0996 303.90039 L 1035.0996 310.30078 L 1039.9004 312.80078 L 1043.5996 313.30078 L 1045 316.09961 L 1045.3008 319.80078 L 1049.1992 321.40039 L 1050.5996 323.09961 L 1051.4004 325.59961 L 1057.3008 330.69922 L 1058.1992 333.69922 L 1057.0996 338.40039 L 1054.5 344.09961 L 1053.5996 347.80078 L 1050.3008 350.30078 L 1047.8008 351.09961 L 1038.9004 353.40039 L 1036.4004 360.90039 L 1037.5996 363.69922 L 1040.1992 366 L 1039.9004 371.40039 L 1036.9004 373.59961 L 1035.8008 376.40039 L 1035.8008 380.09961 L 1033.5996 380.69922 L 1031 382.90039 L 1030.1992 385.5 L 1030.8008 388.09961 L 1028.8008 389.69922 L 1025.1992 385.5 L 1023 381.09961 L 1010.0996 382.30078 L 994.59961 383.19922 L 918.19922 385.09961 L 915.69922 378.40039 L 915.09961 368 L 912.90039 361.5 L 911.80078 353.40039 L 908.40039 347.69922 L 906.80078 340.59961 L 902.59961 328.5 L 900.90039 319.80078 L 898.69922 316.80078 L 896.69922 312.30078 L 899.30078 306.40039 L 901.19922 296.90039 L 897 293.5 L 896.5 289.80078 L 897.59961 286.09961 L 900.40039 285.59961 L 995.30078 284.69922 L 1028.1992 283.59961 z M 458.19922 294.5 L 477.59961 298.40039 L 531.5 307.90039 L 528.69922 324.40039 L 525.30078 344.80078 L 575.30078 350.19922 L 571.69922 384.40039 L 560.80078 462.90039 L 557.80078 484.19922 L 519.59961 478.59961 L 425.59961 461.5 L 428.19922 447.19922 L 433.30078 423.30078 L 441.69922 376.69922 L 458.19922 294.5 z M 712.40039 294.90039 L 767.69922 298.30078 L 832.19922 302 L 848.80078 301.09961 L 852.19922 304.19922 L 861.5 310.59961 L 868 308.69922 L 873.69922 308.09961 L 877.69922 307.90039 L 881.09961 309.80078 L 888.59961 312.09961 L 893.09961 314.59961 L 893.90039 317.09961 L 895.5 320.69922 L 899.5 320.40039 L 901.09961 328.59961 L 905.5 340.90039 L 907.09961 348.19922 L 910.69922 353.90039 L 911.5 361.69922 L 913.69922 368.09961 L 914.30078 378.5 L 917.30078 386.59961 L 919.5 390.80078 L 919.30078 394.40039 L 923.30078 400.5 L 926.69922 405.19922 L 919.69922 405.19922 L 851.59961 404.30078 L 788.5 402.40039 L 754.80078 400.80078 L 757 368 L 705.69922 362.80078 L 712.40039 294.90039 z M 1451.5996 298.30078 L 1460.3008 302.19922 L 1470.1992 305.19922 L 1474.0996 307.09961 L 1474.3008 309.90039 L 1473.5 314.09961 L 1474.0996 321.09961 L 1470.8008 324.09961 L 1469.0996 325.69922 L 1469.9004 326.5 L 1474.0996 326 L 1475.8008 324.80078 L 1478.3008 330.09961 L 1478.5996 344.69922 L 1479.5 346.40039 L 1477.8008 354.90039 L 1473 365 L 1468.8008 371.19922 L 1467.5996 378.69922 L 1464.3008 382.40039 L 1463.0996 382.40039 L 1462.5996 378.19922 L 1463.8008 376.59961 L 1463.5 374.30078 L 1457.3008 373.40039 L 1449.8008 369.80078 L 1444.8008 365.30078 L 1443.1992 362.19922 L 1444.5996 358 L 1444.8008 355.69922 L 1449 353.69922 L 1451.5996 349.30078 L 1454.1992 345.59961 L 1459.3008 340.59961 L 1459.3008 338.69922 L 1449.8008 332.30078 L 1448.1992 328.09961 L 1444 327.59961 L 1443.8008 326.19922 L 1442.6992 322.80078 L 1446.0996 321.09961 L 1446.4004 316.59961 L 1444.4004 314.59961 L 1444.6992 312.69922 L 1447.6992 307.90039 L 1447.6992 303.09961 L 1451.5996 298.30078 z M 1301.3008 307 L 1308 346.80078 L 1308.9004 351.19922 L 1306.9004 353.09961 L 1305 355.90039 L 1306.9004 360.90039 L 1306.9004 368 L 1306.0996 375.80078 L 1305.8008 384.19922 L 1302.4004 389.90039 L 1297.6992 395 L 1294.4004 397.30078 L 1291 396.5 L 1289 398.80078 L 1285.0996 404.40039 L 1283.4004 406.59961 L 1283.4004 410 L 1284.8008 414.19922 L 1284.1992 414.80078 L 1283.0996 414.5 L 1281.5 412.80078 L 1279.9004 411.69922 L 1276.9004 413.69922 L 1275.1992 420.19922 L 1275 427.69922 L 1272.4004 430 L 1272.4004 433.40039 L 1270.5 434.30078 L 1267.4004 434.5 L 1266.1992 434.19922 L 1262.1992 431.09961 L 1259.6992 429.5 L 1258.8008 425.30078 L 1255.0996 425.90039 L 1251.5 428.09961 L 1248.6992 431.19922 L 1246.4004 429.19922 L 1241.5996 428.40039 L 1237.9004 430.59961 L 1235.3008 430.59961 L 1232.5 427.5 L 1224.0996 427.30078 L 1221.5 420.80078 L 1215.9004 418 L 1212.3008 419.19922 L 1206.1992 419.5 L 1198.6992 355.59961 L 1196.0996 331.5 L 1232 326.19922 L 1235.4004 328.19922 L 1239.4004 330.5 L 1247.5 329.59961 L 1252.8008 334.40039 L 1256.0996 334.09961 L 1264.5996 330.09961 L 1269.0996 329.30078 L 1274.0996 328.09961 L 1280.3008 322 L 1285.5996 316.30078 L 1291.6992 312.69922 L 1301.3008 307 z M 1117.5 311.30078 L 1118.0996 319.80078 L 1120.4004 323.80078 L 1122.9004 326.59961 L 1124.9004 332.30078 L 1126.0996 336.30078 L 1126.6992 338 L 1128.0996 356.19922 L 1130.3008 380 L 1132 404.5 L 1133.0996 415.69922 L 1131.9004 423.90039 L 1132.4004 429 L 1135.1992 434 L 1136 442.19922 L 1132.0996 448.40039 L 1129.3008 454.30078 L 1125.4004 459 L 1124.8008 466.59961 L 1124.8008 472.80078 L 1123.1992 477 L 1121.3008 479 L 1122.5 482.09961 L 1123.3008 484.09961 L 1118 486 L 1114.3008 488.5 L 1113.6992 492.90039 L 1115.5996 497.09961 L 1115.5996 498.80078 L 1114.8008 499.09961 L 1105.3008 495.19922 L 1100.9004 496.80078 L 1097.1992 499.40039 L 1095.5996 502.80078 L 1093.0996 503.30078 L 1090.5 500 L 1088.1992 494.09961 L 1089.5996 489.69922 L 1086.5 484.40039 L 1083.0996 476.5 L 1075.5996 475.30078 L 1065.6992 467.09961 L 1062.5996 461.40039 L 1063.8008 456.69922 L 1067.1992 447.09961 L 1068.3008 441.69922 L 1064.0996 439.5 L 1053.8008 438.59961 L 1052.6992 436.69922 L 1052.6992 429.90039 L 1043.8008 424.19922 L 1032.9004 412.40039 L 1029.3008 401.5 L 1028.8008 395.40039 L 1030.1992 391 L 1032.6992 389 L 1032.0996 385.90039 L 1032.6992 384 L 1034.9004 382.09961 L 1037.6992 381.19922 L 1037.6992 376.80078 L 1038.5 374.80078 L 1041.8008 372.30078 L 1042.0996 365.59961 L 1039.0996 362.80078 L 1038.1992 361.09961 L 1040.1992 354.69922 L 1048.3008 352.69922 L 1051.3008 351.80078 L 1055 348.80078 L 1056.1992 344.59961 L 1058.8008 338.90039 L 1059.9004 333.80078 L 1058.8008 330.09961 L 1052.6992 324.80078 L 1052.0996 322.59961 L 1050.4004 320.40039 L 1047 319 L 1046.6992 315.69922 L 1065.8008 315.69922 L 1092.8008 314.09961 L 1117.5 311.30078 z M 1194.5996 329.90039 L 1197.0996 354 L 1204.6992 420.19922 L 1203.8008 424.69922 L 1205.8008 427.19922 L 1206.0996 429.19922 L 1202.5 431.69922 L 1196.9004 434.30078 L 1191.9004 434.90039 L 1191.0996 442.40039 L 1183.8008 448 L 1179.3008 454.19922 L 1179.5996 457.90039 L 1178.8008 460.09961 L 1173.4004 460.09961 L 1171.1992 457.5 L 1163.0996 462.19922 L 1163.4004 467 L 1162 467.30078 L 1161.1992 465.90039 L 1157.5 463.30078 L 1151.9004 465.59961 L 1149.6992 470.09961 L 1147.8008 469.19922 L 1145.3008 466.40039 L 1138.5 467.19922 L 1129.5996 468.80078 L 1125.6992 470.80078 L 1125.6992 466.80078 L 1126.3008 459.5 L 1129.9004 455 L 1132.6992 448.90039 L 1136.9004 442.40039 L 1136.0996 433.40039 L 1133.3008 428.59961 L 1132.8008 423.59961 L 1134 415.40039 L 1132.9004 404.40039 L 1131.5 384.80078 L 1127.5996 338 L 1132.5996 339.09961 L 1134.9004 340.69922 L 1136.5996 340.19922 L 1139.9004 337.19922 L 1143.8008 334.40039 L 1166 332.69922 L 1194.5996 329.90039 z M 576.69922 350.40039 L 699.59961 363.80078 L 755.5 369.19922 L 746.59961 502.80078 L 724.40039 501.90039 L 670.5 497.19922 L 612.19922 490.40039 L 559.40039 484.30078 L 562.40039 463 L 573.30078 384.69922 L 576.69922 350.40039 z M 1308.8008 353.5 L 1315.5 383.5 L 1322.1992 382.30078 L 1339.5996 380.30078 L 1343.9004 398.40039 L 1352.9004 389.09961 L 1356.9004 387.90039 L 1359.4004 385.59961 L 1361.6992 382.19922 L 1363.4004 382.69922 L 1368.1992 382.40039 L 1375.3008 376.80078 L 1377.5996 376 L 1379.5996 377.59961 L 1383.5996 379.5 L 1388.3008 384.19922 L 1387.6992 390.90039 L 1379.3008 386.90039 L 1371.8008 384.09961 L 1371.5996 393.30078 L 1367.5996 402.19922 L 1363.0996 405.90039 L 1361.9004 409.5 L 1357.1992 410.30078 L 1354.5996 422.90039 L 1350.1992 423.19922 L 1348.5 421.59961 L 1346.5996 418.5 L 1343.1992 419.30078 L 1342.4004 427.19922 L 1339.5996 435.09961 L 1331.8008 452.19922 L 1333.1992 454.40039 L 1333 457.5 L 1329.5996 461.40039 L 1327.0996 460.80078 L 1322.3008 464.40039 L 1317.9004 463.19922 L 1315.0996 470.80078 L 1309.1992 472.40039 L 1305.3008 470.40039 L 1301.4004 473.40039 L 1297.8008 474.5 L 1292.8008 473.30078 L 1286.9004 466.30078 L 1281.5 462.90039 L 1277.5996 459 L 1273.0996 453.30078 L 1272.3008 449.69922 L 1267.9004 447.09961 L 1267 445.09961 L 1266.6992 436.40039 L 1267.1992 436.59961 L 1270.9004 436.30078 L 1273.6992 434.69922 L 1273.6992 431.30078 L 1276.3008 429 L 1276.5 420.90039 L 1277.9004 415.30078 L 1279.5996 414.19922 L 1280.1992 414.69922 L 1281.8008 416.40039 L 1284.4004 417.19922 L 1286.0996 415.19922 L 1284.5 410.40039 L 1284.5 407.90039 L 1289.3008 400.80078 L 1291.1992 398.80078 L 1294.3008 399.59961 L 1298.3008 396.80078 L 1303.0996 391.5 L 1306.8008 385.09961 L 1307.0996 376.40039 L 1307.9004 368.90039 L 1307.9004 361.30078 L 1306.1992 356.59961 L 1307.5996 354.59961 L 1308.8008 353.5 z M 1443.0996 356 L 1442.9004 357.69922 L 1442.0996 361.30078 L 1441.3008 364.40039 L 1444.5996 370 L 1448.1992 371.59961 L 1451.1992 377.19922 L 1454 384.5 L 1459.5996 388.19922 L 1461.1992 387.40039 L 1464.8008 398.80078 L 1455.5 400.5 L 1447.6992 401 L 1442 376 L 1438.4004 367.30078 L 1436.1992 360.90039 L 1436.5 360.40039 L 1439.5996 357.80078 L 1442.1992 356.19922 L 1443.0996 356 z M 1434.5996 360.80078 L 1436.9004 367.90039 L 1440.5 376.40039 L 1446.4004 402.5 L 1455.4004 402 L 1465.1992 400.30078 L 1464.4004 407.80078 L 1461.8008 413.69922 L 1450.8008 418.40039 L 1449.1992 417.80078 L 1444.1992 411.30078 L 1441.6992 412.5 L 1435.5996 411.69922 L 1431.5996 406.40039 L 1432.0996 401.09961 L 1434.5996 399.09961 L 1432.0996 396.30078 L 1430.4004 399.30078 L 1429.5996 399.59961 L 1429.0996 394 L 1432.4004 392.40039 L 1431.5996 383.90039 L 1428.8008 383.40039 L 1428.3008 381.69922 L 1430.3008 376 L 1432.5996 373.5 L 1431.8008 371.90039 L 1428.8008 374.40039 L 1425.8008 376.40039 C 1425.8008 376.40039 1425 378.79922 1425 379.69922 C 1425 380.79922 1422.6992 383.30078 1422.6992 383.30078 L 1424.6992 385.30078 L 1425 388.59961 L 1423 396.80078 L 1426.3008 405.30078 L 1430 408.59961 L 1430 411.40039 L 1432.3008 414.69922 L 1430.6992 418 L 1427.4004 417.5 L 1422.5996 415.90039 L 1415.9004 416.09961 L 1410.5996 414.40039 L 1407.5 412.40039 L 1407 411.19922 L 1407 407.90039 L 1409.8008 403.90039 L 1410.9004 398.80078 L 1414.1992 393.69922 L 1408.5 389.80078 L 1405.1992 393.80078 L 1396.1992 390.5 L 1397.0996 386 L 1389.5996 383.5 L 1387.5996 381.30078 L 1384.5996 378.5 L 1380.4004 376.30078 L 1378.0996 374.59961 L 1374.8008 375.5 L 1371.6992 377.80078 L 1367.6992 381.09961 L 1363.6992 381.40039 L 1361.1992 380.30078 L 1358.4004 384.5 L 1356.1992 386.80078 L 1352.3008 387.90039 L 1344.8008 395.5 L 1341.6992 379.30078 L 1400.0996 367.5 L 1434.5996 360.80078 z M 1022.3008 382.69922 L 1024.1992 386.40039 L 1028.1992 391.19922 L 1027.0996 394.90039 L 1027.9004 401.40039 L 1031.5 412.69922 L 1042.6992 424.80078 L 1050.9004 430.19922 L 1050.9004 436.59961 L 1052.5996 439.59961 L 1063.3008 440.5 L 1066.3008 442.09961 L 1065.4004 446.80078 L 1062 456.09961 L 1060.8008 461.19922 L 1064.1992 467.69922 L 1074.8008 476.40039 L 1081.9004 477.5 L 1084.6992 484.59961 L 1087.8008 489.59961 L 1086.4004 493.59961 L 1089 500.59961 L 1092.3008 504.5 L 1096 504 L 1097.6992 506.5 L 1096.5996 509 L 1096.5996 513.5 L 1093.5996 515.09961 L 1087.0996 520.40039 L 1086.3008 529.59961 L 1083.6992 538 L 1077.3008 539.69922 L 1069.1992 538.90039 L 1070 536.09961 L 1074.8008 532.19922 L 1076 527.40039 L 1072.5996 521.69922 L 1022.0996 523.69922 L 985.90039 524.80078 L 949.09961 525.09961 L 948.30078 516.19922 L 949.5 454.09961 L 947.5 436.09961 L 943.5 432.80078 L 939.80078 428.09961 L 936.5 423.09961 L 937.30078 419.5 L 940.09961 417 L 940.09961 412.5 L 937.90039 410.80078 L 933.90039 410.5 L 929.09961 405.80078 L 924.40039 399.69922 L 920.80078 394.09961 L 921 390.69922 L 919 386.69922 L 994.80078 384.80078 L 1010.3008 383.90039 L 1022.3008 382.69922 z M 1390.1992 384.90039 L 1395.5 386.80078 L 1394.5996 391.30078 L 1408 396.09961 L 1410.1992 398.90039 L 1409 404 L 1407 406 L 1406.1992 408.59961 L 1407 412.30078 L 1410.0996 414.30078 L 1416.1992 416.5 L 1420.6992 418.09961 L 1428.3008 419.5 L 1431.6992 422.80078 L 1436.6992 423.40039 L 1438.0996 425.30078 L 1437.5 432.59961 L 1439.6992 434.30078 L 1438.9004 437.30078 L 1440.8008 438.5 L 1440.5 440.69922 L 1436.3008 440.5 L 1436.5 443 L 1440.0996 445.30078 L 1440.3008 447.5 L 1443.0996 450.30078 L 1443.9004 454.19922 L 1439.9004 456.40039 L 1442.4004 458.69922 L 1451.4004 456.09961 L 1457.0996 465.69922 L 1368 484.69922 L 1308 493.40039 L 1300.5 493.19922 L 1297.0996 492.69922 L 1293.1992 495.69922 L 1281.9004 495.90039 L 1265.9004 498.40039 L 1255.5 499.30078 L 1261.9004 495.30078 L 1268.3008 491.69922 L 1268.3008 488.40039 L 1277.1992 477.09961 L 1283.5996 471.40039 L 1287 467.5 L 1292.5996 474.19922 L 1298.5 475.59961 L 1302.6992 474 L 1305.8008 471.69922 L 1309.5 473.59961 L 1316.5996 471.59961 L 1319.1992 464.80078 L 1322.9004 465.90039 L 1327.9004 462.30078 L 1330.4004 462.90039 L 1334.8008 457.90039 L 1335.0996 453.69922 L 1333.9004 451.80078 L 1341.4004 435.5 L 1344.1992 427.40039 L 1345 420.09961 L 1346.0996 419.80078 L 1347.8008 422.40039 L 1350.0996 424.30078 L 1356.1992 424 L 1358.8008 411.40039 L 1363.5 410.5 L 1364.6992 406.5 L 1369.0996 403.09961 L 1370.8008 399.80078 L 1373.5996 393.09961 L 1373.8008 386 L 1379.4004 388.19922 L 1389.6992 393 L 1390.1992 384.90039 z M 754.80078 402.30078 L 788.5 403.69922 L 851.59961 405.59961 L 919.69922 406.5 L 927.90039 406.40039 L 933.30078 411.69922 L 937.30078 412 L 938.5 413.09961 L 938.5 416.40039 L 935.90039 418.59961 L 935 423.30078 L 938.59961 428.90039 L 942.30078 433.59961 L 946.19922 436.69922 L 948.09961 453.90039 L 947 508.30078 L 927.40039 508.80078 L 855.5 507.90039 L 786 504.59961 L 748.19922 503 L 754.80078 402.30078 z M 1442.1992 413.40039 L 1443.3008 417 C 1443.3008 417 1444.4004 421.30078 1444.4004 421.80078 C 1444.4004 422.30078 1443 423.69922 1443 423.69922 L 1441.3008 420.69922 L 1441 417.90039 L 1439.3008 414 L 1442.1992 413.40039 z M 1461.6992 415.40039 L 1461.4004 419.80078 L 1456.9004 425.69922 L 1456.3008 432.80078 L 1457.0996 438.09961 L 1454.3008 445.90039 L 1450.9004 448.90039 L 1448.5996 441.80078 L 1449.1992 433.40039 L 1451.6992 426.90039 L 1452.8008 421.80078 L 1452.5996 419.19922 L 1461.6992 415.40039 z M 1216 419.19922 L 1220.5 421.5 L 1223.3008 428.5 L 1232 428.69922 L 1234.8008 431.80078 L 1238.4004 431.80078 L 1242.0996 429.59961 L 1246 430.40039 L 1249 433 L 1252.9004 428.80078 L 1256 426.90039 L 1258 426.59961 L 1258.8008 430.19922 L 1261.8008 431.90039 L 1265.8008 435 L 1266.0996 444.5 L 1267.5 447.5 L 1271.5 449.69922 L 1272.3008 453.09961 L 1277 459 L 1280.9004 463.19922 L 1286 466.30078 L 1282.6992 470 L 1276.3008 475.59961 L 1267 487.69922 L 1266.8008 490.69922 L 1260.6992 494 L 1252 499.59961 L 1181.9004 506.30078 L 1134.6992 511.30078 L 1128 511.30078 L 1127.8008 517.69922 L 1108.1992 518.80078 L 1091 518.5 L 1094.3008 515.90039 L 1098 513.90039 L 1098.1992 508.80078 L 1099.5996 506 L 1097 502.30078 L 1098.1992 499.5 L 1101.3008 497.30078 L 1104.9004 495.90039 L 1114.4004 499.80078 L 1116.9004 499.19922 L 1116.9004 495.80078 L 1115 492.09961 L 1115.5996 488.69922 L 1118.5996 486.5 L 1125.0996 484.30078 L 1122.8008 478.59961 L 1124.4004 477 L 1126.3008 471.69922 L 1130.6992 469.69922 L 1139.4004 468.09961 L 1145.0996 467.5 L 1147.3008 470 L 1150.6992 471.59961 L 1153.5 466.19922 L 1157.6992 464.5 L 1160.3008 466.40039 L 1161.5 468.59961 L 1165.1992 467.69922 L 1164.9004 462.59961 L 1171 459.19922 L 1173 461.19922 L 1180 461.40039 L 1181.4004 457.80078 L 1181.0996 454.40039 L 1185.0996 448.69922 L 1192.6992 443.09961 L 1193.5 436.09961 L 1197.5 435.5 L 1203.4004 432.69922 L 1207.8008 429.59961 L 1207.3008 426.30078 L 1205.4004 424 L 1206.1992 420.69922 L 1212.6992 420.40039 L 1216 419.19922 z M 425.19922 463 L 519.5 480.09961 L 557.69922 485.69922 L 550.90039 533.90039 L 540 616.40039 L 530.69922 677.90039 L 491.19922 673.69922 L 472.09961 670 L 446 654.5 L 423.19922 641.09961 L 404.40039 629.30078 L 375 612.69922 L 374.19922 611.09961 L 374.69922 608.80078 L 378.80078 605.19922 L 384.5 604.59961 L 387.09961 600.90039 L 388.5 596.19922 L 382.40039 595.59961 L 381.59961 594.40039 L 382.5 591.90039 L 382.69922 582.90039 L 385.69922 581.5 L 390.40039 577 L 391.19922 569.40039 L 393.69922 563.80078 L 396.19922 561 L 401.5 558.5 L 404.09961 556.59961 L 404.69922 552.90039 L 403 551.5 L 401.90039 549.80078 L 400.19922 541.30078 L 395.80078 533.5 L 396.40039 528.40039 L 398.69922 524.69922 L 399.5 505.30078 L 400 503 L 400.40039 492.40039 L 403.69922 489.80078 L 405.40039 489.59961 L 407.30078 491.30078 L 411.30078 491.90039 L 413.19922 495.90039 L 417.59961 496.19922 L 420.90039 490.30078 L 424.90039 464.69922 L 425.19922 463 z M 1457.1992 467.30078 L 1460.3008 474.80078 L 1465.9004 484.90039 L 1469.5996 488.59961 L 1470.5 492.19922 L 1466.8008 492.5 L 1468 493.40039 L 1467.5 499.90039 L 1463.5 501.90039 L 1462.5996 505.19922 L 1460.5996 509.69922 L 1454.9004 512.19922 L 1451.1992 511.69922 L 1448.9004 511.40039 L 1446.4004 509.40039 L 1446.9004 511.40039 L 1446.9004 513 L 1449.9004 513 L 1451.0996 515 L 1448.0996 524.80078 L 1454.5996 524.80078 L 1455.5 527.30078 L 1459.0996 523.69922 L 1461.0996 522.90039 L 1458.0996 528.5 L 1453.3008 536 L 1451.3008 536 L 1449.5996 535.19922 L 1445.4004 536.09961 L 1437.3008 539.80078 L 1427.1992 548 L 1421.9004 555.30078 L 1418.9004 565.40039 L 1418.0996 569.09961 L 1410.8008 569.90039 L 1402.9004 572.19922 L 1387.0996 559.09961 L 1367.4004 547.09961 L 1362.5996 545.90039 L 1336.8008 549.19922 L 1334.3008 544.5 L 1329.9004 541.09961 L 1304 541.90039 L 1292.5 543.30078 L 1278.1992 550.30078 L 1267.5996 554.5 L 1257.5 556.40039 L 1236.6992 558.59961 L 1236.9004 552.19922 L 1239.5 550.19922 L 1243.6992 549.09961 L 1244.8008 543.19922 L 1250.9004 539.30078 L 1257 537 L 1264 531.30078 L 1270.8008 527.69922 L 1271.9004 522.69922 L 1278.3008 516.80078 L 1279.4004 518.40039 L 1283.3008 518.69922 L 1287 513.09961 L 1289.5996 512.5 L 1293.5996 513 L 1296.4004 506.80078 L 1300.3008 503.09961 L 1301.0996 500.30078 L 1301.3008 494.90039 L 1308.0996 495.09961 L 1367.9004 486.40039 L 1457.1992 467.30078 z M 559.30078 485.90039 L 612.09961 492 L 670.19922 498.80078 L 719.90039 503.19922 L 719.40039 520 L 717.19922 519.80078 L 705.69922 671.59961 L 661.59961 668.80078 L 602.40039 663.09961 L 603.5 672.90039 L 584.59961 670.5 L 558.69922 666.5 L 556.80078 681.40039 L 532.30078 678.30078 L 541.59961 616.59961 L 552.5 533.90039 L 559.30078 485.90039 z M 1472.3008 490.09961 L 1476.5 498.59961 L 1477.0996 505.40039 L 1476.8008 510.69922 L 1471.5 513 L 1467.0996 516.69922 L 1465.4004 518.59961 L 1463.6992 518.40039 L 1467.6992 514.5 L 1472.6992 510.5 L 1475 509.59961 L 1475.3008 506.5 L 1474.4004 497 L 1472.0996 493.40039 L 1471.1992 490.40039 L 1472.3008 490.09961 z M 1297.5996 494 L 1299.5996 494.5 L 1299.4004 499.59961 L 1298.8008 502.09961 L 1295.0996 505.5 L 1292.5996 511.09961 L 1289.5 510.5 L 1285.8008 511.90039 L 1282.4004 517 L 1280.1992 516.69922 L 1279 514.80078 L 1277.3008 515.40039 L 1270.5996 521.59961 L 1269.4004 526.40039 L 1262.9004 529.80078 L 1256.1992 535.40039 L 1250.3008 537.69922 L 1243.5 542.09961 L 1242.5996 547.69922 L 1238.6992 548.5 L 1235.5996 551.09961 L 1235.3008 558.59961 L 1207 562 L 1186.5996 563.90039 L 1150.4004 567.30078 L 1092 571.5 L 1073.6992 572.09961 L 1075.0996 571.19922 L 1076.5 564.19922 L 1074.5996 558.59961 L 1080.6992 555 L 1081.3008 551.09961 L 1083.1992 544.40039 L 1087.9004 529.59961 L 1088.6992 520.90039 L 1089.1992 520.59961 L 1108.3008 520.30078 L 1129.4004 519.09961 L 1129.5996 513 L 1135 512.80078 L 1182.1992 507.69922 L 1266.0996 499.59961 L 1282.0996 497.30078 L 1293.9004 497 L 1297.5996 494 z M 721.59961 503.40039 L 786.09961 506.19922 L 855.59961 509.5 L 927.5 510.30078 L 947.09961 509.80078 L 946.90039 516.5 L 947.80078 527.09961 L 950.09961 537.40039 L 950.30078 550.80078 L 952.5 567.69922 L 953 626.09961 L 950 624.19922 L 944.69922 622.80078 L 940 620.19922 L 937.40039 616.80078 L 933.80078 615.90039 L 930.69922 618.69922 L 925.09961 618.69922 L 924.19922 616.5 L 922 616.5 L 917.80078 619.5 L 914.80078 618.09961 L 907.80078 618.09961 L 906.69922 622.30078 L 904.19922 623.40039 L 899.5 622.19922 L 894.19922 620.19922 L 887.69922 619 L 886 615.69922 L 884 615.69922 L 881 622.19922 L 878.40039 622.69922 L 871.59961 619.90039 L 870.5 616.30078 L 866.30078 616.09961 L 863.5 615.19922 L 859.59961 618.5 L 856.30078 617.40039 L 856.30078 613.80078 L 854.40039 613.59961 L 851 608.80078 L 845.59961 607.69922 L 841.69922 610.30078 L 838.09961 607.80078 L 831.59961 606.90039 L 827.69922 605.30078 L 821.80078 604.5 L 822.40039 599.09961 L 818 596.90039 L 817.69922 598.59961 L 817.19922 598.90039 L 814.69922 598.69922 L 812.40039 595.69922 L 811 599 L 809.59961 599 L 807 597.59961 L 800.80078 592 L 800.5 589.5 L 801.90039 561.5 L 804.69922 523.69922 L 721 520 L 721.59961 503.40039 z M 718.69922 521.40039 L 803.19922 525.09961 L 800.59961 561.30078 L 799 589.30078 L 799.30078 592.40039 L 806.09961 598.80078 L 809.19922 600.5 L 812 600.5 L 812.80078 598.59961 L 813.90039 600 L 817.59961 600.30078 L 819.30078 599.40039 L 819.30078 599 L 820.90039 599.80078 L 820.30078 605.5 L 827.30078 606.59961 L 831 608 L 837.5 609.09961 L 841.5 611.90039 L 845.90039 608.90039 L 850.09961 609.80078 L 853.5 614.59961 L 854.69922 614.80078 L 854.69922 618.09961 L 859.80078 619.80078 L 863.69922 616.5 L 866 617.30078 L 869.30078 617.5 L 870.19922 620.80078 L 878.30078 623.90039 L 881.90039 623.09961 L 884.90039 616.90039 L 885.09961 616.90039 L 886.80078 619.90039 L 893.90039 621.30078 L 899.19922 623.30078 L 904.19922 624.90039 L 907.90039 623 L 909 619.40039 L 914.59961 619.40039 L 917.90039 621 L 922.59961 617.90039 L 923.19922 617.90039 L 924 620.09961 L 931.30078 620.09961 L 934.30078 617.30078 L 936.30078 617.90039 L 938.90039 621.19922 L 944 624.19922 L 949.30078 625.80078 L 953.19922 628 L 957.40039 631.09961 L 962.19922 629.19922 L 965.5 630.40039 L 966.59961 661.5 L 967.69922 676.30078 L 968.59961 682.69922 L 972.59961 689.5 L 974 696.5 L 980.5 705.69922 L 981 710.5 L 981.90039 711.69922 L 980.80078 723.69922 L 976.30078 731.19922 L 978.30078 735.19922 L 977.5 738.90039 L 976.30078 750.09961 L 974.30078 754.80078 L 974.80078 761.30078 L 966.09961 763.80078 L 950.69922 770.80078 L 949.09961 773.80078 L 945.09961 776.80078 L 941.80078 779.09961 L 939.80078 780.30078 L 930.90039 788.5 L 926.69922 791.80078 L 918.5 796.80078 L 909.59961 800.5 L 899.80078 805.80078 L 897 808.09961 L 888 813.69922 L 882.69922 814.59961 L 876.59961 823.09961 L 870.40039 823.59961 L 868.80078 826.59961 L 872.40039 829.59961 L 870.09961 838.09961 L 868.09961 845.09961 L 866.40039 851.19922 L 865.19922 858.19922 L 866.40039 861.90039 L 869.19922 872.80078 L 870.80078 882.30078 L 873.59961 886.5 L 872 888.80078 L 867.19922 891.80078 L 858.30078 885.69922 L 849.80078 884 L 847.80078 884.80078 L 842.80078 883.90039 L 836.30078 879.09961 L 828.19922 877.40039 L 816.40039 872.09961 L 813.09961 866 L 811.09961 855.90039 L 806.09961 852.90039 L 805.19922 849.30078 L 806.09961 848.40039 L 806.59961 843.09961 L 804.59961 842.19922 L 803.69922 840.59961 L 805.69922 833.80078 L 803.19922 830.19922 L 798.19922 828.19922 L 792.90039 821.40039 L 787.30078 811.09961 L 780.80078 807.09961 L 781.09961 804.09961 L 772.90039 785 L 771.69922 778.5 L 768.90039 775.5 L 768.59961 773.19922 L 759.30078 765 L 755.30078 760.19922 L 755.30078 758.5 L 751.30078 755.19922 L 740.69922 753.5 L 729.19922 752.59961 L 724.40039 749 L 717.40039 751.80078 L 711.80078 754.09961 L 708.19922 759.09961 L 706.59961 764.80078 L 699.80078 774.30078 L 696.09961 778 L 692.09961 776.40039 L 689.30078 774.69922 L 686.30078 773.80078 L 680.19922 770.19922 L 680.19922 769 L 677.40039 766 L 669.30078 762.69922 L 657.80078 750.59961 L 654.19922 743.30078 L 654.19922 730.69922 L 649.19922 720.59961 L 648.40039 716.40039 L 645.90039 714.80078 L 644.19922 711.5 L 636.40039 708.19922 L 634.40039 705.69922 L 623.40039 693.40039 L 621.40039 688.40039 L 614.09961 684.80078 L 611.80078 678 L 607.80078 673.5 L 605.19922 672.69922 L 604.19922 664.59961 L 661.69922 670.19922 L 707.19922 673.19922 L 718.69922 521.40039 z M 1071.6992 523.09961 L 1074.5 527.59961 L 1073.5996 531.19922 L 1068.8008 535.19922 L 1067.4004 540 L 1077.3008 541.09961 L 1083.0996 539.80078 L 1081.6992 544.59961 L 1079.8008 551.09961 L 1079.3008 554.40039 L 1072.8008 558.09961 L 1075 564.30078 L 1073.5996 570.69922 L 1070.3008 572.90039 L 1070 578 L 1066.0996 579.69922 L 1061.5996 588.69922 L 1062.4004 591.30078 L 1062.5996 593.90039 L 1058.6992 595.59961 L 1052.5 604.30078 L 1053.6992 607.69922 L 1049.5 611.30078 L 1047.8008 620.5 L 1046.6992 624.19922 L 1048.9004 627.59961 L 1046.5996 629.80078 L 1049.1992 634.59961 L 1049.6992 640.5 L 1048.3008 643.5 L 1006.6992 644.69922 L 967.5 645 L 966.90039 629.30078 L 962.40039 627.40039 L 957.69922 629.30078 L 954.40039 626.80078 L 953.90039 567.40039 L 951.69922 550.5 L 951.5 537.30078 L 949.19922 526.59961 L 985.90039 526.09961 L 1022.0996 525 L 1071.6992 523.09961 z M 245.40039 526 L 251 529.30078 L 255.80078 531.19922 L 254.40039 532.09961 L 247.40039 531.80078 L 244.90039 529.30078 L 243.5 526.90039 L 245.40039 526 z M 235.5 526.80078 L 240.59961 526.80078 L 240.59961 526.90039 L 242.59961 529.19922 L 242.30078 531.19922 L 237.30078 531 L 236.40039 529.09961 L 235.5 526.80078 z M 1329.0996 542.40039 L 1332.6992 545.40039 L 1335.5 550.80078 L 1342.5996 549.59961 L 1362.1992 547.30078 L 1366.4004 548.5 L 1385.8008 560 L 1401.5 572.90039 L 1393.3008 581.30078 L 1389.3008 590.80078 L 1388.5 600.59961 L 1386 601.80078 L 1384.3008 606 L 1380.5996 606.90039 L 1377.3008 612.5 L 1373.0996 616.69922 L 1369.5 622 L 1367 623.19922 L 1361.4004 628.5 L 1356.9004 628.80078 L 1358.5 633.80078 L 1350.6992 642 L 1347.0996 644.5 L 1344 645.90039 L 1340.6992 644.30078 L 1337.6992 635.59961 L 1333.8008 632 L 1329.9004 631.19922 L 1327.5996 624.09961 L 1322.9004 614 L 1316.4004 611.19922 L 1313.4004 608.40039 L 1311.5 604.40039 L 1307.8008 601.30078 L 1304.1992 599.30078 L 1300.8008 594.80078 L 1295.8008 591.09961 L 1289 588.5 L 1288.4004 586.30078 L 1284.8008 581.90039 L 1284 579.59961 L 1278.0996 571.19922 L 1272.8008 571.40039 L 1266.6992 567.5 L 1264.8008 565.59961 L 1264.5 563.40039 L 1265.4004 560.90039 L 1269.5996 558.90039 L 1268.4004 555.80078 L 1278.3008 551.59961 L 1292.5996 544.59961 L 1303.5996 543.19922 L 1329.0996 542.40039 z M 277.09961 555.59961 L 281.30078 558.69922 L 282.90039 561.5 L 282 563.80078 L 279.69922 562.90039 L 278.5 561.30078 L 275.69922 557.69922 L 275.40039 557.80078 L 275.40039 555.90039 L 277.09961 555.59961 z M 1267.1992 556.09961 L 1268 558.30078 L 1264.5996 559.69922 L 1263.1992 563.09961 L 1263.8008 566.19922 L 1266 568.69922 L 1272.6992 572.90039 L 1277.6992 572.69922 L 1282.6992 580 L 1283.5996 582.5 L 1287.1992 586.90039 L 1288 589.5 L 1295.3008 592.30078 L 1300 595.69922 L 1303.5996 600.40039 L 1307.1992 602.40039 L 1310.3008 605.19922 L 1312.5 609.40039 L 1315.8008 612.40039 L 1322.1992 615.19922 L 1326.4004 624.5 L 1329 632.40039 L 1333.4004 633.5 L 1336.6992 636.5 L 1339.8008 645.40039 L 1344.3008 647.90039 L 1346.9004 646.69922 L 1347.5 648.59961 L 1342.4004 658.19922 L 1343.1992 662.19922 L 1340.9004 668.69922 L 1337.3008 684.19922 L 1338.5 694 L 1330.4004 693.5 L 1321.6992 692.40039 L 1319.5 694.90039 L 1322 702.19922 L 1321.5 708.30078 L 1318.0996 707.40039 L 1317.8008 702.69922 L 1309.6992 702.69922 L 1301.5 703.80078 L 1251.3008 706.80078 L 1239.3008 706.30078 L 1237.0996 704.40039 L 1233.1992 697.69922 L 1232 692.59961 L 1229.5 691.19922 L 1228.6992 690.40039 L 1230.0996 687 L 1229.5 678.5 L 1227 671.5 L 1228.1992 663.90039 L 1230.8008 656.40039 L 1230.5 652.5 L 1227.5 651.40039 L 1226.9004 646.40039 L 1222.5 641 L 1219.5 631.40039 L 1217.1992 620.5 L 1214.5996 613 L 1208.6992 588.09961 L 1203.3008 575.69922 L 1202.0996 567.5 L 1202.3008 563.90039 L 1207.4004 563.40039 L 1228.5 560.90039 L 1257.4004 557.80078 L 1267.1992 556.09961 z M 1200.6992 564.30078 L 1200.5 567.69922 L 1201.6992 576.40039 L 1207.0996 588.69922 L 1213 613.59961 L 1215.8008 621.40039 L 1218 631.80078 L 1221.0996 641.90039 L 1225.3008 647.19922 L 1226.0996 652.80078 L 1228.9004 653.90039 L 1229.1992 656.5 L 1226.5996 664 L 1225.4004 671.90039 L 1227.9004 678.90039 L 1228.5 687 L 1226.9004 691 L 1228.3008 692.69922 L 1230.5996 693.90039 L 1231.4004 697.30078 L 1222.6992 697.09961 L 1212.3008 698 L 1172.4004 702.5 L 1156.0996 704.80078 L 1155.5 711 L 1158.5996 714.09961 L 1162.5 716.90039 L 1163 728.69922 L 1154.9004 732.59961 L 1150.6992 732.09961 L 1154.9004 729.09961 L 1154.9004 727.5 L 1150.0996 718.19922 L 1146.5 717.30078 L 1144.1992 724.09961 L 1142.1992 728.30078 L 1141.3008 728 L 1136.5996 728 L 1134.0996 705.19922 L 1129.6992 676 L 1130.1992 654.09961 L 1131.3008 605.90039 L 1131 580 L 1131.3008 570.09961 L 1150.3008 568.90039 L 1186.6992 565.5 L 1200.6992 564.30078 z M 1130 570 L 1129.6992 579.80078 L 1130 605.69922 L 1128.4004 675.80078 L 1132.8008 705.30078 L 1135.4004 728.30078 L 1134.8008 730.80078 L 1126.6992 730.80078 L 1124.4004 729.59961 L 1121.0996 729.09961 L 1110.5 732.09961 L 1107.6992 730.90039 L 1103.6992 737.40039 L 1101.8008 738.59961 L 1098.4004 728.69922 L 1093.3008 723.59961 L 1094.9004 712.59961 L 1094 710.40039 L 1091 710.90039 L 1078.3008 712 L 1040.6992 713.09961 L 1039.9004 710.80078 L 1041.0996 698.09961 L 1054.5 674.80078 L 1053.5996 671.80078 L 1055 671.30078 L 1056.0996 666.5 L 1052.5 663.40039 L 1052.6992 660.80078 L 1049.5996 653.80078 L 1049 646 L 1049.3008 644.59961 L 1051.1992 640.69922 L 1050.6992 634.19922 L 1048.4004 629.80078 L 1050.6992 627.59961 L 1048.1992 623.69922 L 1049.0996 620.69922 L 1050.6992 611.80078 L 1055.4004 607.90039 L 1054.1992 604.30078 L 1059.5996 596.40039 L 1064.0996 594.69922 L 1063.9004 591 L 1063.0996 588.5 L 1067.0996 580.59961 L 1071.5 578.59961 L 1071.8008 573.59961 L 1092 573 L 1122.5 570.5 L 1130 570 z M 272.80078 571.19922 L 273.5 571.19922 L 276.30078 576.19922 L 278.19922 579.19922 L 275.90039 579.5 L 273.90039 577.59961 C 273.90039 577.59961 272.80078 575.29961 272.80078 574.59961 L 272.80078 571.19922 z M 1047.8008 644.90039 L 1047.5996 646 L 1048.1992 653.90039 L 1051.3008 660.90039 L 1051.0996 663.90039 L 1054.5 667 L 1053.9004 670.09961 L 1051.6992 670.69922 L 1053.0996 674.69922 L 1039.6992 697.69922 L 1038.5 710.90039 L 1039.6992 714.59961 L 1091.0996 712.40039 L 1093.0996 712.09961 L 1093.4004 712.90039 L 1091.8008 724.19922 L 1097.0996 729.5 L 1100.5 739.59961 L 1097.5 742.19922 L 1094.6992 745.19922 L 1096.3008 748 L 1101.0996 748.90039 L 1102 744.90039 L 1105 741.59961 L 1107.3008 741.30078 L 1107.8008 745.5 L 1109.8008 748.5 L 1107 753.30078 L 1102 753.30078 L 1102 754.09961 L 1104.8008 755.69922 L 1104.5 756.59961 L 1100.9004 756.09961 L 1099.1992 760.30078 L 1104.1992 763.90039 L 1113.1992 765.09961 L 1118.5 769.30078 L 1120.5 769.30078 L 1120.5 771.59961 L 1116.9004 776.40039 L 1115.1992 774.80078 L 1110.6992 774.80078 L 1109.0996 772.5 L 1102.9004 769.5 L 1096.4004 768.59961 L 1095.5 763.80078 L 1094.5996 762.59961 L 1092.9004 764.59961 L 1089.5996 765.40039 L 1089.9004 767.69922 L 1088.6992 770.19922 L 1092 770.69922 L 1090.8008 771.5 L 1087.1992 776.80078 L 1081.9004 778.80078 L 1081 777.90039 L 1084.5996 776.69922 L 1083.4004 772.19922 L 1081.4004 770.59961 L 1078.5996 772.90039 L 1074.5996 773.80078 L 1073 777.5 L 1067.4004 779.5 L 1054.3008 773.90039 L 1051.8008 771.40039 L 1053.8008 770.19922 L 1055 767.69922 L 1052.1992 764.90039 L 1045.1992 764.40039 L 1044.6992 760.80078 L 1042.4004 757.09961 L 1037.4004 756.19922 L 1034.5996 757.80078 L 1031.8008 755.5 L 1027 757.09961 L 1025.8008 759.40039 L 1030 761.90039 L 1034 761.09961 L 1039 762.80078 L 1037.8008 766.09961 L 1032.8008 764.5 L 1027.8008 762.80078 L 1022.0996 765.09961 L 1012 763.40039 L 996 757.80078 L 983.40039 758.30078 L 976.30078 760.40039 L 976 754.69922 L 978 750 L 979.19922 738.69922 L 980 734.69922 L 978.09961 731 L 982.5 723.90039 L 983.59961 711 L 982.69922 709.80078 L 982.19922 705 L 975.5 695.69922 L 974.09961 688.90039 L 970.09961 681.90039 L 969.30078 676.19922 L 968.19922 661.40039 L 967.59961 646.30078 L 1006.8008 646.09961 L 1047.8008 644.90039 z M 1322.3008 693.90039 L 1330.4004 695 L 1338.3008 695.5 L 1341.9004 706.80078 L 1347.5996 721.90039 L 1355.8008 736.5 L 1361.5 746.30078 L 1369 754.80078 L 1375.1992 760.5 L 1377.6992 765 L 1376 767 L 1374.9004 769.19922 L 1379.4004 780.69922 L 1383.9004 785.19922 L 1387.9004 793.40039 L 1393.5 802.40039 L 1400.5 815.09961 L 1402.5 826.90039 L 1403.3008 845.5 L 1404.1992 848.30078 L 1403.6992 853.59961 L 1400 855.59961 L 1400.5 858.59961 L 1399.5996 861.59961 L 1400.0996 865.30078 L 1400.9004 868.30078 L 1396.6992 873.30078 L 1391.9004 875.59961 L 1385.8008 875.90039 L 1383.5 878.40039 L 1379.8008 880 L 1377.8008 879.19922 L 1376.0996 877.59961 L 1375.5996 873.09961 L 1374.4004 867.80078 L 1369.0996 859.69922 L 1363.5 856.09961 L 1357.4004 855.59961 L 1356.1992 857.59961 L 1351.4004 850.80078 L 1350.5 845.19922 L 1346.5 839 L 1343.6992 837.30078 L 1341.1992 840.59961 L 1338.4004 840.09961 L 1335.0996 832.30078 L 1330.5996 826.19922 L 1326.0996 818 L 1322.0996 813.19922 L 1316.5 807.5 L 1319.8008 803.80078 L 1324.8008 795.30078 L 1324.5 792.80078 L 1317.5 791.19922 L 1315 792.09961 L 1315.5 793 L 1319.5 794.59961 L 1317.1992 801.59961 L 1316 802.40039 L 1313.1992 796.19922 L 1311.1992 788.69922 L 1310.6992 784.5 L 1313 777.19922 L 1313 762.40039 L 1308.3008 756.69922 L 1306.3008 751.90039 L 1298.1992 749.90039 L 1295.1992 749 L 1292.6992 745 L 1287.4004 742.5 L 1285.6992 737.19922 L 1281.5 735.59961 L 1277.8008 729.90039 L 1271.3008 727.59961 L 1266.8008 725.30078 L 1262.8008 725.30078 L 1256.5996 726.5 L 1256.3008 729.5 L 1257.5 731.09961 L 1256.6992 732.80078 L 1251.9004 732.5 L 1246.1992 738.09961 L 1240.5996 741.09961 L 1234.5 741.09961 L 1229.5 743.09961 L 1229 738.90039 L 1226.5 735.90039 L 1222 734.19922 L 1219.5 731.90039 L 1206.9004 725.80078 L 1195.0996 723 L 1188.3008 723.90039 L 1179 724.69922 L 1169.6992 728 L 1164.5996 728.90039 L 1164.0996 715.80078 L 1159.5996 712.69922 L 1157.0996 710.19922 L 1157.5996 705.80078 L 1212.5996 699.30078 L 1222.9004 698.5 L 1232.0996 698.5 L 1236 705 L 1238.5996 707.59961 L 1251.3008 708.09961 L 1301.5996 705.09961 L 1309.8008 704 L 1316.1992 704 L 1316.5 708.40039 L 1322.9004 710 L 1323.5 701.90039 L 1321.1992 695.09961 L 1322.3008 693.90039 z M 886.90039 814.19922 L 887.80078 814.5 L 880.30078 824.80078 L 873.5 834.90039 L 870.40039 845.19922 L 869.90039 853.30078 L 871.30078 862.80078 L 875.30078 874 L 876.09961 882.09961 L 876.40039 884.40039 L 875.09961 884.69922 L 874.19922 873.69922 L 870 862.5 L 869.09961 851.59961 L 871.40039 838.90039 L 876.5 828.19922 L 881.90039 819.80078 L 886.90039 814.19922 z M 1404.5996 861 L 1404.3008 866.30078 L 1402.6992 868.90039 L 1398.8008 879.19922 L 1393.0996 885.30078 L 1384.9004 891.80078 L 1380.6992 895.09961 L 1378.8008 893.40039 L 1382.5 891 L 1387.8008 888 L 1394.5996 881.5 L 1399.5996 873.30078 L 1401.9004 866.19922 L 1403.5 861.80078 L 1404.5996 861 z M 1369.5 893.90039 L 1371.5 894.69922 L 1374.0996 895.19922 L 1374.6992 896.90039 L 1369.3008 898.80078 L 1362.8008 901.09961 L 1359.1992 903 L 1357.9004 901.19922 L 1361.5996 900.30078 L 1363.5996 900 L 1365.9004 896.40039 L 1369.5 893.90039 z "
   id="rect1017"
   style="fill:#e5e5e5;fill-opacity:1;font-variant-east_asian:normal;opacity:1;vector-effect:none;stroke-width:1.20188976;stroke-linecap:butt;stroke-linejoin:miter;stroke-miterlimit:4;stroke-dasharray:none;stroke-dashoffset:0;stroke-opacity:1;stroke:#e5e5e5" />
<sodipodi:namedview
   bordercolor="#666666"
   borderopacity="1"
   gridtolerance="10"
   guidetolerance="10"
   id="namedview977"
   inkscape:current-layer="svg975"
   inkscape:cx="1370.244"
   inkscape:cy="655.69566"
   inkscape:pageopacity="0"
   inkscape:pageshadow="2"
   inkscape:snap-page="true"
   inkscape:window-height="480"
   inkscape:window-width="640"
   inkscape:zoom="4"
   objecttolerance="10"
   pagecolor="#e9e9e9"
   showgrid="false"
   inkscape:pagecheckerboard="true">
	</sodipodi:namedview>
<title
   id="title918">Blank US states map</title>
<g
   id="layer1"
   inkscape:groupmode="layer"
   inkscape:label="center"
   sodipodi:insensitive="true"
   class="st1">
	<circle
   id="path1719"
   class="st2"
   cx="912"
   cy="492"
   r="3.8" />
</g>



<g
   inkscape:groupmode="layer"
   id="layer2"
   inkscape:label="text"
   style="display:none"><path
     d="m 105.7,840.3 h 3.3 l 5.1,15.7 h -2.9 l -2.4,-8.4 c -0.5,-1.7 -1,-3.5 -1.4,-5.2 h -0.1 c -0.4,1.7 -0.9,3.5 -1.4,5.2 l -2.4,8.4 h -2.8 z m -2.1,9.2 h 7.4 v 2.2 h -7.4 z"
     id="path1072"
     inkscape:connector-curvature="0" /><path
     d="m 114.3,844.2 h 2.8 l 1.9,6.1 c 0.3,1.2 0.7,2.4 1,3.6 h 0.1 c 0.3,-1.2 0.7,-2.4 1,-3.6 l 1.9,-6.1 h 2.7 l -4,11.8 h -3.2 z"
     id="path1074"
     inkscape:connector-curvature="0" /><path
     d="m 126.9,850.1 c 0,-3.8 2.7,-6.2 5.4,-6.2 3.2,0 4.9,2.3 4.9,5.6 0,0.5 -0.1,1.1 -0.1,1.3 h -7.5 c 0.2,2.1 1.6,3.3 3.5,3.3 1,0 1.9,-0.3 2.7,-0.9 l 0.9,1.7 c -1.1,0.8 -2.5,1.3 -4,1.3 -3.3,0 -5.8,-2.2 -5.8,-6.1 z m 7.9,-1.2 c 0,-1.8 -0.8,-2.9 -2.4,-2.9 -1.4,0 -2.6,1 -2.8,2.9 z"
     id="path1076"
     inkscape:connector-curvature="0" /><path
     d="m 139.8,844.2 h 2.3 l 0.2,2.1 h 0.1 c 0.8,-1.5 2.1,-2.4 3.4,-2.4 0.6,0 1,0.1 1.3,0.2 l -0.5,2.4 c -0.4,-0.1 -0.7,-0.2 -1.2,-0.2 -0.9,0 -2.1,0.6 -2.8,2.4 v 7.2 h -2.8 z"
     id="path1078"
     inkscape:connector-curvature="0" /><path
     d="m 148.1,852.8 c 0,-2.5 2.1,-3.8 6.9,-4.4 0,-1.3 -0.5,-2.3 -2.1,-2.3 -1.2,0 -2.3,0.5 -3.3,1.2 l -1,-1.8 c 1.3,-0.8 3,-1.5 4.8,-1.5 2.9,0 4.4,1.8 4.4,5.1 v 7 h -2.3 l -0.2,-1.3 h -0.1 c -1.1,0.9 -2.3,1.6 -3.7,1.6 -1.9,-0.2 -3.4,-1.6 -3.4,-3.6 z m 7,0 v -2.7 c -3.2,0.4 -4.3,1.2 -4.3,2.4 0,1 0.7,1.5 1.7,1.5 1,0.1 1.7,-0.4 2.6,-1.2 z"
     id="path1080"
     inkscape:connector-curvature="0" /><path
     d="m 160.3,858.1 c 0,-1 0.6,-1.9 1.7,-2.5 v -0.1 c -0.6,-0.4 -1.1,-1 -1.1,-2 0,-0.9 0.6,-1.7 1.3,-2.2 v -0.1 c -0.8,-0.6 -1.6,-1.7 -1.6,-3.1 0,-2.7 2.2,-4.2 4.7,-4.2 0.7,0 1.3,0.1 1.7,0.3 h 4.2 v 2.1 H 169 c 0.4,0.4 0.7,1.2 0.7,2 0,2.6 -2,4 -4.5,4 -0.5,0 -1.1,-0.1 -1.6,-0.3 -0.4,0.3 -0.6,0.6 -0.6,1.1 0,0.7 0.5,1.1 1.9,1.1 h 2.1 c 2.8,0 4.3,0.9 4.3,2.9 0,2.3 -2.4,4.2 -6.3,4.2 -2.6,-0.1 -4.7,-1.1 -4.7,-3.2 z m 8.6,-0.6 c 0,-0.9 -0.7,-1.2 -2.1,-1.2 h -1.6 c -0.6,0 -1.1,0 -1.6,-0.2 -0.6,0.5 -0.9,1 -0.9,1.6 0,1.1 1.2,1.7 3,1.7 1.9,0 3.2,-0.9 3.2,-1.9 z m -1.5,-9.4 c 0,-1.5 -0.9,-2.3 -2,-2.3 -1.2,0 -2,0.8 -2,2.3 0,1.5 0.9,2.4 2,2.4 1.1,0 2,-0.9 2,-2.4 z"
     id="path1082"
     inkscape:connector-curvature="0" /><path
     d="m 172.8,850.1 c 0,-3.8 2.7,-6.2 5.4,-6.2 3.2,0 4.9,2.3 4.9,5.6 0,0.5 -0.1,1.1 -0.1,1.3 h -7.5 c 0.2,2.1 1.6,3.3 3.5,3.3 1,0 1.9,-0.3 2.7,-0.9 l 0.9,1.7 c -1.1,0.8 -2.5,1.3 -4,1.3 -3.2,0 -5.8,-2.2 -5.8,-6.1 z m 8,-1.2 c 0,-1.8 -0.8,-2.9 -2.4,-2.9 -1.4,0 -2.6,1 -2.8,2.9 z"
     id="path1084"
     inkscape:connector-curvature="0" /><path
     d="m 190,848 c 0,-5.1 2.8,-8.1 6.9,-8.1 4.1,0 6.9,3 6.9,8.1 0,5.1 -2.8,8.2 -6.9,8.2 -4.1,0 -6.9,-3.1 -6.9,-8.2 z m 11,0 c 0,-3.5 -1.6,-5.7 -4.1,-5.7 -2.5,0 -4.1,2.1 -4.1,5.7 0,3.6 1.6,5.8 4.1,5.8 2.5,0 4.1,-2.2 4.1,-5.8 z"
     id="path1086"
     inkscape:connector-curvature="0" /><path
     d="m 206.8,844.2 h 2.3 l 0.2,2.1 h 0.1 c 0.8,-1.5 2.1,-2.4 3.4,-2.4 0.6,0 1,0.1 1.3,0.2 l -0.5,2.4 c -0.4,-0.1 -0.7,-0.2 -1.2,-0.2 -0.9,0 -2.1,0.6 -2.8,2.4 v 7.2 h -2.8 z"
     id="path1088"
     inkscape:connector-curvature="0" /><path
     d="m 215,850.1 c 0,-3.8 2.4,-6.2 5,-6.2 1.3,0 2.2,0.5 3.1,1.3 L 223,843.3 V 839 h 2.8 v 17 h -2.3 l -0.2,-1.3 h -0.1 c -0.9,0.9 -2.1,1.6 -3.4,1.6 -2.9,-0.1 -4.8,-2.3 -4.8,-6.2 z m 8,2.5 v -5.5 c -0.8,-0.7 -1.6,-1 -2.4,-1 -1.5,0 -2.7,1.4 -2.7,3.9 0,2.6 1,3.9 2.7,3.9 0.8,0.1 1.6,-0.3 2.4,-1.3 z"
     id="path1090"
     inkscape:connector-curvature="0" /><path
     d="m 228.5,850.1 c 0,-3.8 2.7,-6.2 5.4,-6.2 3.2,0 4.9,2.3 4.9,5.6 0,0.5 -0.1,1.1 -0.1,1.3 h -7.5 c 0.2,2.1 1.6,3.3 3.5,3.3 1,0 1.9,-0.3 2.7,-0.9 l 0.9,1.7 c -1.1,0.8 -2.5,1.3 -4,1.3 -3.3,0 -5.8,-2.2 -5.8,-6.1 z m 7.9,-1.2 c 0,-1.8 -0.8,-2.9 -2.4,-2.9 -1.4,0 -2.6,1 -2.8,2.9 z"
     id="path1092"
     inkscape:connector-curvature="0" /><path
     d="m 241.4,844.2 h 2.3 l 0.2,2.1 h 0.1 c 0.8,-1.5 2.1,-2.4 3.4,-2.4 0.6,0 1,0.1 1.3,0.2 l -0.5,2.4 c -0.4,-0.1 -0.7,-0.2 -1.2,-0.2 -0.9,0 -2.1,0.6 -2.8,2.4 v 7.2 h -2.8 z"
     id="path1094"
     inkscape:connector-curvature="0" /><path
     d="m 255.4,840.3 h 4.9 c 3.5,0 6.1,1.2 6.1,4.8 0,3.5 -2.6,5.1 -6,5.1 h -2.3 v 5.8 h -2.8 v -15.7 z m 4.8,7.7 c 2.3,0 3.5,-0.9 3.5,-2.9 0,-1.9 -1.2,-2.6 -3.6,-2.6 h -1.9 v 5.5 z"
     id="path1096"
     inkscape:connector-curvature="0" /><path
     d="m 269.1,844.2 h 2.3 l 0.2,2.1 h 0.1 c 0.8,-1.5 2.1,-2.4 3.4,-2.4 0.6,0 1,0.1 1.3,0.2 l -0.5,2.4 c -0.4,-0.1 -0.7,-0.2 -1.2,-0.2 -0.9,0 -2.1,0.6 -2.8,2.4 v 7.2 h -2.8 z"
     id="path1098"
     inkscape:connector-curvature="0" /><path
     d="m 277.8,840.5 c 0,-0.9 0.7,-1.6 1.7,-1.6 1,0 1.7,0.6 1.7,1.6 0,0.9 -0.7,1.6 -1.7,1.6 -1,0 -1.7,-0.7 -1.7,-1.6 z m 0.3,3.7 h 2.8 V 856 h -2.8 z"
     id="path1100"
     inkscape:connector-curvature="0" /><path
     d="m 283.6,850.1 c 0,-3.9 2.8,-6.2 5.9,-6.2 1.5,0 2.6,0.6 3.4,1.3 l -1.3,1.8 c -0.6,-0.5 -1.2,-0.9 -2,-0.9 -1.9,0 -3.2,1.6 -3.2,3.9 0,2.4 1.3,3.9 3.1,3.9 0.9,0 1.8,-0.5 2.4,-1 l 1.1,1.8 c -1.1,1 -2.5,1.5 -3.8,1.5 -3.1,0 -5.6,-2.2 -5.6,-6.1 z"
     id="path1102"
     inkscape:connector-curvature="0" /><path
     d="m 294.7,850.1 c 0,-3.8 2.7,-6.2 5.4,-6.2 3.2,0 4.9,2.3 4.9,5.6 0,0.5 -0.1,1.1 -0.1,1.3 h -7.5 c 0.2,2.1 1.6,3.3 3.5,3.3 1,0 1.9,-0.3 2.7,-0.9 l 0.9,1.7 c -1.1,0.8 -2.5,1.3 -4,1.3 -3.3,0 -5.8,-2.2 -5.8,-6.1 z m 7.9,-1.2 c 0,-1.8 -0.8,-2.9 -2.4,-2.9 -1.4,0 -2.6,1 -2.8,2.9 z"
     id="path1104"
     inkscape:connector-curvature="0" /><path
     d="m 307.4,846.2 c 0,-1.1 0.8,-1.9 1.8,-1.9 1,0 1.8,0.8 1.8,1.9 0,1.1 -0.8,1.9 -1.8,1.9 -1,-0.1 -1.8,-0.9 -1.8,-1.9 z m 0,8.2 c 0,-1.1 0.8,-1.9 1.8,-1.9 1,0 1.8,0.8 1.8,1.9 0,1.1 -0.8,1.9 -1.8,1.9 -1,-0.1 -1.8,-0.9 -1.8,-1.9 z"
     id="path1106"
     inkscape:connector-curvature="0" /><path
     d="m 318.3,854.4 1.2,-1.9 c 1.1,0.9 2.3,1.5 3.6,1.5 1.6,0 2.3,-0.8 2.3,-2.1 0,-3.2 -6.5,-2.7 -6.5,-7.2 0,-2.6 1.8,-4.3 4.6,-4.3 2,0 3.3,0.8 4.3,1.9 l -1.4,1.6 c -0.9,-0.8 -1.6,-1.3 -2.8,-1.3 -1.3,0 -2.1,0.7 -2.1,1.9 0,2.9 6.5,2.3 6.5,7.2 0,2.7 -1.8,4.5 -5,4.5 -1.5,0 -3.4,-0.7 -4.7,-1.8 z m 4.2,-16.4 h 1.9 v 3.3 h -1.9 z m 0,17.2 h 1.9 v 3.4 h -1.9 z"
     id="path1108"
     inkscape:connector-curvature="0" /><path
     d="m 330.7,854.5 1.5,-1.7 c 0.6,0.7 1.5,1.2 2.4,1.2 2,0 3.6,-1.5 3.6,-6.1 0,-3.8 -1.2,-5.3 -2.9,-5.3 -1.3,0 -2.3,1 -2.3,2.9 0,1.8 0.9,2.7 2.4,2.7 0.9,0 2,-0.5 2.8,-1.9 l 0.1,1.9 c -0.9,1.2 -2.3,2 -3.4,2 -2.6,0 -4.5,-1.5 -4.5,-4.7 0,-3.1 2.2,-5 4.8,-5 3,0 5.5,2.3 5.5,7.5 0,5.9 -2.9,8.4 -6,8.4 -1.8,-0.2 -3.1,-0.9 -4,-1.9 z"
     id="path1110"
     inkscape:connector-curvature="0" /><path
     d="m 343,854.5 1.5,-1.7 c 0.6,0.7 1.5,1.2 2.4,1.2 2,0 3.6,-1.5 3.6,-6.1 0,-3.8 -1.2,-5.3 -2.9,-5.3 -1.3,0 -2.3,1 -2.3,2.9 0,1.8 0.9,2.7 2.4,2.7 0.9,0 2,-0.5 2.8,-1.9 l 0.1,1.9 c -0.9,1.2 -2.3,2 -3.4,2 -2.6,0 -4.5,-1.5 -4.5,-4.7 0,-3.1 2.2,-5 4.8,-5 3,0 5.5,2.3 5.5,7.5 0,5.9 -2.9,8.4 -6,8.4 -1.7,-0.2 -3.1,-0.9 -4,-1.9 z"
     id="path1112"
     inkscape:connector-curvature="0" /><path
     d="m 355.3,854.5 1.5,-1.7 c 0.6,0.7 1.5,1.2 2.4,1.2 2,0 3.6,-1.5 3.6,-6.1 0,-3.8 -1.2,-5.3 -2.9,-5.3 -1.3,0 -2.3,1 -2.3,2.9 0,1.8 0.9,2.7 2.4,2.7 0.9,0 2,-0.5 2.8,-1.9 l 0.1,1.9 c -0.9,1.2 -2.3,2 -3.4,2 -2.6,0 -4.5,-1.5 -4.5,-4.7 0,-3.1 2.2,-5 4.8,-5 3,0 5.5,2.3 5.5,7.5 0,5.9 -2.9,8.4 -6,8.4 -1.7,-0.2 -3.1,-0.9 -4,-1.9 z"
     id="path1114"
     inkscape:connector-curvature="0" /><path
     d="m 368,854.4 c 0,-1.1 0.8,-1.9 1.8,-1.9 1,0 1.8,0.8 1.8,1.9 0,1.1 -0.8,1.9 -1.8,1.9 -1,-0.1 -1.8,-0.9 -1.8,-1.9 z"
     id="path1116"
     inkscape:connector-curvature="0" /><path
     d="m 374.2,854.5 1.5,-1.7 c 0.6,0.7 1.5,1.2 2.4,1.2 2,0 3.6,-1.5 3.6,-6.1 0,-3.8 -1.2,-5.3 -2.9,-5.3 -1.3,0 -2.3,1 -2.3,2.9 0,1.8 0.9,2.7 2.4,2.7 0.9,0 2,-0.5 2.8,-1.9 l 0.1,1.9 c -0.9,1.2 -2.3,2 -3.4,2 -2.6,0 -4.5,-1.5 -4.5,-4.7 0,-3.1 2.2,-5 4.8,-5 3,0 5.5,2.3 5.5,7.5 0,5.9 -2.9,8.4 -6,8.4 -1.7,-0.2 -3.1,-0.9 -4,-1.9 z"
     id="path1118"
     inkscape:connector-curvature="0" /><path
     d="m 386.5,854.5 1.5,-1.7 c 0.6,0.7 1.5,1.2 2.4,1.2 2,0 3.6,-1.5 3.6,-6.1 0,-3.8 -1.2,-5.3 -2.9,-5.3 -1.3,0 -2.3,1 -2.3,2.9 0,1.8 0.9,2.7 2.4,2.7 0.9,0 2,-0.5 2.8,-1.9 l 0.1,1.9 c -0.9,1.2 -2.3,2 -3.4,2 -2.6,0 -4.5,-1.5 -4.5,-4.7 0,-3.1 2.2,-5 4.8,-5 3,0 5.5,2.3 5.5,7.5 0,5.9 -2.9,8.4 -6,8.4 -1.7,-0.2 -3.1,-0.9 -4,-1.9 z"
     id="path1120"
     inkscape:connector-curvature="0" /><g
     id="g1170">
	<g
   id="g1168">
		<path
   d="m 101,889.8 c 0,-5.1 2.8,-8.1 6.9,-8.1 4.1,0 6.9,3 6.9,8.1 0,5.1 -2.8,8.2 -6.9,8.2 -4.1,0 -6.9,-3.1 -6.9,-8.2 z m 11,0 c 0,-3.5 -1.6,-5.7 -4.1,-5.7 -2.5,0 -4.1,2.1 -4.1,5.7 0,3.6 1.6,5.8 4.1,5.8 2.5,0 4.1,-2.2 4.1,-5.8 z"
   id="path1126"
   inkscape:connector-curvature="0" />
		<path
   d="m 117.7,886 h 2.3 l 0.2,2.1 h 0.1 c 0.8,-1.5 2.1,-2.4 3.4,-2.4 0.6,0 1,0.1 1.3,0.2 l -0.5,2.4 c -0.4,-0.1 -0.7,-0.2 -1.2,-0.2 -0.9,0 -2.1,0.6 -2.8,2.4 v 7.2 h -2.8 z"
   id="path1128"
   inkscape:connector-curvature="0" />
		<path
   d="m 126,891.9 c 0,-3.8 2.4,-6.2 5,-6.2 1.3,0 2.2,0.5 3.1,1.3 l -0.1,-1.9 v -4.3 h 2.8 v 17 h -2.3 l -0.2,-1.3 h -0.1 c -0.9,0.9 -2.1,1.6 -3.4,1.6 -2.9,-0.1 -4.8,-2.3 -4.8,-6.2 z m 8,2.5 v -5.5 c -0.8,-0.7 -1.6,-1 -2.4,-1 -1.5,0 -2.7,1.4 -2.7,3.9 0,2.6 1,3.9 2.7,3.9 0.8,0.1 1.6,-0.3 2.4,-1.3 z"
   id="path1130"
   inkscape:connector-curvature="0" />
		<path
   d="m 139.5,891.9 c 0,-3.8 2.7,-6.2 5.4,-6.2 3.2,0 4.9,2.3 4.9,5.6 0,0.5 -0.1,1.1 -0.1,1.3 h -7.5 c 0.2,2.1 1.6,3.3 3.5,3.3 1,0 1.9,-0.3 2.7,-0.9 l 0.9,1.7 c -1.1,0.8 -2.5,1.3 -4,1.3 -3.3,0 -5.8,-2.2 -5.8,-6.1 z m 7.9,-1.2 c 0,-1.8 -0.8,-2.9 -2.4,-2.9 -1.4,0 -2.6,1 -2.8,2.9 z"
   id="path1132"
   inkscape:connector-curvature="0" />
		<path
   d="m 152.4,886 h 2.3 l 0.2,2.1 h 0.1 c 0.8,-1.5 2.1,-2.4 3.4,-2.4 0.6,0 1,0.1 1.3,0.2 l -0.5,2.4 c -0.4,-0.1 -0.7,-0.2 -1.2,-0.2 -0.9,0 -2.1,0.6 -2.8,2.4 v 7.2 h -2.8 z"
   id="path1134"
   inkscape:connector-curvature="0" />
		<path
   d="m 160.2,896.4 1.3,-1.8 c 1,0.8 2.1,1.3 3.3,1.3 1.3,0 1.9,-0.6 1.9,-1.4 0,-1 -1.3,-1.4 -2.5,-1.9 -1.5,-0.6 -3.3,-1.5 -3.3,-3.4 0,-2 1.7,-3.5 4.3,-3.5 1.6,0 3,0.7 3.9,1.4 l -1.3,1.7 c -0.8,-0.6 -1.7,-1 -2.6,-1 -1.2,0 -1.7,0.6 -1.7,1.3 0,0.9 1.2,1.3 2.5,1.8 1.6,0.6 3.4,1.4 3.4,3.6 0,2 -1.6,3.7 -4.6,3.7 -1.8,-0.2 -3.5,-0.9 -4.6,-1.8 z"
   id="path1136"
   inkscape:connector-curvature="0" />
		<path
   d="m 179.9,884.4 h -4.5 v -2.3 h 11.8 v 2.3 h -4.5 v 13.4 h -2.8 z"
   id="path1138"
   inkscape:connector-curvature="0" />
		<path
   d="m 188.8,891.9 c 0,-3.9 2.7,-6.2 5.6,-6.2 2.9,0 5.6,2.3 5.6,6.2 0,3.9 -2.7,6.2 -5.6,6.2 -2.9,-0.1 -5.6,-2.3 -5.6,-6.2 z m 8.4,0 c 0,-2.4 -1,-3.9 -2.8,-3.9 -1.7,0 -2.8,1.6 -2.8,3.9 0,2.4 1,3.9 2.8,3.9 1.8,0 2.8,-1.6 2.8,-3.9 z"
   id="path1140"
   inkscape:connector-curvature="0" />
		<path
   d="m 202.1,891.9 c 0,-3.8 2.4,-6.2 5,-6.2 1.3,0 2.2,0.5 3.1,1.3 l -0.1,-1.9 v -4.3 h 2.8 v 17 h -2.3 l -0.2,-1.3 h -0.1 c -0.9,0.9 -2.1,1.6 -3.4,1.6 -2.9,-0.1 -4.8,-2.3 -4.8,-6.2 z m 7.9,2.5 v -5.5 c -0.8,-0.7 -1.6,-1 -2.4,-1 -1.5,0 -2.7,1.4 -2.7,3.9 0,2.6 1,3.9 2.7,3.9 0.9,0.1 1.7,-0.3 2.4,-1.3 z"
   id="path1142"
   inkscape:connector-curvature="0" />
		<path
   d="m 215.7,894.6 c 0,-2.5 2.1,-3.8 6.9,-4.4 0,-1.3 -0.5,-2.3 -2.1,-2.3 -1.2,0 -2.3,0.5 -3.3,1.2 l -1,-1.8 c 1.3,-0.8 3,-1.5 4.8,-1.5 2.9,0 4.4,1.8 4.4,5.1 v 7 h -2.3 l -0.2,-1.3 h -0.1 c -1.1,0.9 -2.3,1.6 -3.7,1.6 -2,-0.2 -3.4,-1.6 -3.4,-3.6 z m 6.9,0 v -2.7 c -3.2,0.4 -4.3,1.2 -4.3,2.4 0,1 0.7,1.5 1.7,1.5 1,0.1 1.7,-0.4 2.6,-1.2 z"
   id="path1144"
   inkscape:connector-curvature="0" />
		<path
   d="m 227.9,902.4 0.5,-2.1 c 0.2,0.1 0.6,0.2 0.8,0.2 1.2,0 2,-0.8 2.4,-2 l 0.2,-0.7 -4.6,-11.6 h 2.8 l 2,5.8 c 0.4,1 0.7,2.2 1,3.3 h 0.1 c 0.3,-1.1 0.6,-2.3 0.9,-3.3 l 1.8,-5.8 h 2.7 l -4.3,12.3 c -1,2.7 -2.2,4.3 -4.8,4.3 -0.6,-0.2 -1,-0.3 -1.5,-0.4 z"
   id="path1146"
   inkscape:connector-curvature="0" />
		<path
   d="m 240.3,888 c 0,-1.1 0.8,-1.9 1.8,-1.9 1,0 1.8,0.8 1.8,1.9 0,1.1 -0.8,1.9 -1.8,1.9 -1,-0.1 -1.8,-0.9 -1.8,-1.9 z m 0,8.2 c 0,-1.1 0.8,-1.9 1.8,-1.9 1,0 1.8,0.8 1.8,1.9 0,1.1 -0.8,1.9 -1.8,1.9 -1,-0.1 -1.8,-0.9 -1.8,-1.9 z"
   id="path1148"
   inkscape:connector-curvature="0" />
		<path
   d="m 251.4,896.3 1.5,-1.7 c 0.6,0.7 1.5,1.2 2.4,1.2 2,0 3.6,-1.5 3.6,-6.1 0,-3.8 -1.2,-5.3 -2.9,-5.3 -1.3,0 -2.3,1 -2.3,2.9 0,1.8 0.9,2.7 2.4,2.7 0.9,0 2,-0.5 2.8,-1.9 l 0.1,1.9 c -0.9,1.2 -2.3,2 -3.4,2 -2.6,0 -4.5,-1.5 -4.5,-4.7 0,-3.1 2.2,-5 4.8,-5 3,0 5.5,2.3 5.5,7.5 0,5.9 -2.9,8.4 -6,8.4 -1.8,-0.2 -3.1,-0.9 -4,-1.9 z"
   id="path1150"
   inkscape:connector-curvature="0" />
		<path
   d="m 263.7,900.6 c 1.6,-0.6 2.4,-1.7 2.4,-3 l -0.1,-2.1 1.1,1.7 c -0.3,0.3 -0.7,0.4 -1.1,0.4 -0.9,0 -1.8,-0.6 -1.8,-1.7 0,-1 0.8,-1.7 1.8,-1.7 1.3,0 2.1,1.1 2.1,2.8 0,2.4 -1.4,4.2 -3.7,5 z"
   id="path1152"
   inkscape:connector-curvature="0" />
		<path
   d="m 270.3,896.3 1.5,-1.7 c 0.6,0.7 1.5,1.2 2.4,1.2 2,0 3.6,-1.5 3.6,-6.1 0,-3.8 -1.2,-5.3 -2.9,-5.3 -1.3,0 -2.3,1 -2.3,2.9 0,1.8 0.9,2.7 2.4,2.7 0.9,0 2,-0.5 2.8,-1.9 l 0.1,1.9 c -0.9,1.2 -2.3,2 -3.4,2 -2.6,0 -4.5,-1.5 -4.5,-4.7 0,-3.1 2.2,-5 4.8,-5 3,0 5.5,2.3 5.5,7.5 0,5.9 -2.9,8.4 -6,8.4 -1.8,-0.2 -3.1,-0.9 -4,-1.9 z"
   id="path1154"
   inkscape:connector-curvature="0" />
		<path
   d="m 282.6,896.3 1.5,-1.7 c 0.6,0.7 1.5,1.2 2.4,1.2 2,0 3.6,-1.5 3.6,-6.1 0,-3.8 -1.2,-5.3 -2.9,-5.3 -1.3,0 -2.3,1 -2.3,2.9 0,1.8 0.9,2.7 2.4,2.7 0.9,0 2,-0.5 2.8,-1.9 l 0.1,1.9 c -0.9,1.2 -2.3,2 -3.4,2 -2.6,0 -4.5,-1.5 -4.5,-4.7 0,-3.1 2.2,-5 4.8,-5 3,0 5.5,2.3 5.5,7.5 0,5.9 -2.9,8.4 -6,8.4 -1.8,-0.2 -3.1,-0.9 -4,-1.9 z"
   id="path1156"
   inkscape:connector-curvature="0" />
		<path
   d="m 294.9,896.3 1.5,-1.7 c 0.6,0.7 1.5,1.2 2.4,1.2 2,0 3.6,-1.5 3.6,-6.1 0,-3.8 -1.2,-5.3 -2.9,-5.3 -1.3,0 -2.3,1 -2.3,2.9 0,1.8 0.9,2.7 2.4,2.7 0.9,0 2,-0.5 2.8,-1.9 l 0.1,1.9 c -0.9,1.2 -2.3,2 -3.4,2 -2.6,0 -4.5,-1.5 -4.5,-4.7 0,-3.1 2.2,-5 4.8,-5 3,0 5.5,2.3 5.5,7.5 0,5.9 -2.9,8.4 -6,8.4 -1.8,-0.2 -3.1,-0.9 -4,-1.9 z"
   id="path1158"
   inkscape:connector-curvature="0" />
		<path
   d="m 307.2,900.6 c 1.6,-0.6 2.4,-1.7 2.4,-3 l -0.1,-2.1 1.1,1.7 c -0.3,0.3 -0.7,0.4 -1.1,0.4 -0.9,0 -1.8,-0.6 -1.8,-1.7 0,-1 0.8,-1.7 1.8,-1.7 1.3,0 2.1,1.1 2.1,2.8 0,2.4 -1.4,4.2 -3.7,5 z"
   id="path1160"
   inkscape:connector-curvature="0" />
		<path
   d="m 313.8,896.3 1.5,-1.7 c 0.6,0.7 1.5,1.2 2.4,1.2 2,0 3.6,-1.5 3.6,-6.1 0,-3.8 -1.2,-5.3 -2.9,-5.3 -1.3,0 -2.3,1 -2.3,2.9 0,1.8 0.9,2.7 2.4,2.7 0.9,0 2,-0.5 2.8,-1.9 l 0.1,1.9 c -0.9,1.2 -2.3,2 -3.4,2 -2.6,0 -4.5,-1.5 -4.5,-4.7 0,-3.1 2.2,-5 4.8,-5 3,0 5.5,2.3 5.5,7.5 0,5.9 -2.9,8.4 -6,8.4 -1.8,-0.2 -3.1,-0.9 -4,-1.9 z"
   id="path1162"
   inkscape:connector-curvature="0" />
		<path
   d="m 326.1,896.3 1.5,-1.7 c 0.6,0.7 1.5,1.2 2.4,1.2 2,0 3.6,-1.5 3.6,-6.1 0,-3.8 -1.2,-5.3 -2.9,-5.3 -1.3,0 -2.3,1 -2.3,2.9 0,1.8 0.9,2.7 2.4,2.7 0.9,0 2,-0.5 2.8,-1.9 l 0.1,1.9 c -0.9,1.2 -2.3,2 -3.4,2 -2.6,0 -4.5,-1.5 -4.5,-4.7 0,-3.1 2.2,-5 4.8,-5 3,0 5.5,2.3 5.5,7.5 0,5.9 -2.9,8.4 -6,8.4 -1.7,-0.2 -3.1,-0.9 -4,-1.9 z"
   id="path1164"
   inkscape:connector-curvature="0" />
		<path
   d="m 338.4,896.3 1.5,-1.7 c 0.6,0.7 1.5,1.2 2.4,1.2 2,0 3.6,-1.5 3.6,-6.1 0,-3.8 -1.2,-5.3 -2.9,-5.3 -1.3,0 -2.3,1 -2.3,2.9 0,1.8 0.9,2.7 2.4,2.7 0.9,0 2,-0.5 2.8,-1.9 l 0.1,1.9 c -0.9,1.2 -2.3,2 -3.4,2 -2.6,0 -4.5,-1.5 -4.5,-4.7 0,-3.1 2.2,-5 4.8,-5 3,0 5.5,2.3 5.5,7.5 0,5.9 -2.9,8.4 -6,8.4 -1.7,-0.2 -3.1,-0.9 -4,-1.9 z"
   id="path1166"
   inkscape:connector-curvature="0" />
	</g>
</g></g></svg>